<svg xmlns="http://www.w3.org/2000/svg" xmlns:xlink="http://www.w3.org/1999/xlink" width="96.199" height="86.704" viewBox="0 0 96.199 86.704">
  <defs>
    <clipPath id="clip-path">
      <path id="Path_47643" data-name="Path 47643" d="M0,0H96.2V-86.7H0Z" fill="none"/>
    </clipPath>
  </defs>
  <g id="Group_14904" data-name="Group 14904" transform="translate(0 86.704)">
    <g id="Group_14903" data-name="Group 14903" clip-path="url(#clip-path)">
      <g id="Group_14890" data-name="Group 14890" transform="translate(76.025 -80.911)">
        <path id="Path_47630" data-name="Path 47630" d="M0,0A12.8,12.8,0,0,0-10.035-5.794H-46.714A12.806,12.806,0,0,0-56.749,0L-75.088,31.765a12.8,12.8,0,0,0,0,11.587l18.339,31.765a12.806,12.806,0,0,0,10.035,5.794h36.679A12.8,12.8,0,0,0,0,75.117L18.34,43.352a12.808,12.808,0,0,0,0-11.587Z" fill="#60a9ac"/>
      </g>
      <g id="Group_14891" data-name="Group 14891" transform="translate(62.029 -69.752)">
        <path id="Path_47631" data-name="Path 47631" d="M0,0H-37.745a.786.786,0,0,0-.787.786V52.012a.788.788,0,0,0,.787.787H0a.786.786,0,0,0,.786-.787V.786A.786.786,0,0,0,0,0M-.786,51.226H-36.959V1.573H-.786Z" fill="#fff"/>
      </g>
      <g id="Group_14892" data-name="Group 14892" transform="translate(36.922 -61.776)">
        <path id="Path_47632" data-name="Path 47632" d="M0,0H12.469a.786.786,0,0,0,.787-.786.787.787,0,0,0-.787-.787H0a.786.786,0,0,0-.786.787A.786.786,0,0,0,0,0" fill="#fff"/>
      </g>
      <g id="Group_14893" data-name="Group 14893" transform="translate(38.888 -53.463)">
        <path id="Path_47633" data-name="Path 47633" d="M0,0A.786.786,0,0,0,.786.786H16.738A.786.786,0,0,0,17.525,0a.786.786,0,0,0-.787-.786H.786A.786.786,0,0,0,0,0" fill="#fff"/>
      </g>
      <g id="Group_14894" data-name="Group 14894" transform="translate(55.626 -45.225)">
        <path id="Path_47634" data-name="Path 47634" d="M0,0H-15.952a.786.786,0,0,0-.786.786.786.786,0,0,0,.786.787H0A.786.786,0,0,0,.786.786.786.786,0,0,0,0,0" fill="#fff"/>
      </g>
      <g id="Group_14895" data-name="Group 14895" transform="translate(55.626 -36.2)">
        <path id="Path_47635" data-name="Path 47635" d="M0,0H-15.952a.786.786,0,0,0-.786.786.786.786,0,0,0,.786.787H0A.786.786,0,0,0,.786.786.786.786,0,0,0,0,0" fill="#fff"/>
      </g>
      <g id="Group_14896" data-name="Group 14896" transform="translate(55.626 -27.176)">
        <path id="Path_47636" data-name="Path 47636" d="M0,0H-15.952a.786.786,0,0,0-.786.786.786.786,0,0,0,.786.787H0A.786.786,0,0,0,.786.786.786.786,0,0,0,0,0" fill="#fff"/>
      </g>
      <g id="Group_14897" data-name="Group 14897" transform="translate(30.687 -32.381)">
        <path id="Path_47637" data-name="Path 47637" d="M0,0H4.493A.786.786,0,0,0,5.28-.786V-5.28a.786.786,0,0,0-.787-.786H0a.786.786,0,0,0-.786.786V-.786A.786.786,0,0,0,0,0M.786-4.493H3.707v2.921H.786Z" fill="#fff"/>
      </g>
      <g id="Group_14898" data-name="Group 14898" transform="translate(30.687 -23.356)">
        <path id="Path_47638" data-name="Path 47638" d="M0,0H4.493A.786.786,0,0,0,5.28-.786V-5.28a.786.786,0,0,0-.787-.786H0a.786.786,0,0,0-.786.786V-.786A.786.786,0,0,0,0,0M.786-4.493H3.707v2.921H.786Z" fill="#fff"/>
      </g>
      <g id="Group_14899" data-name="Group 14899" transform="translate(31.72 -51.318)">
        <path id="Path_47639" data-name="Path 47639" d="M0,0A.786.786,0,0,0,1.111,0h0L4.289-3.178a.785.785,0,0,0,0-1.112.785.785,0,0,0-1.112,0L.556-1.668-.477-2.7a.786.786,0,0,0-1.112,0,.786.786,0,0,0,0,1.112Z" fill="#fff"/>
      </g>
      <g id="Group_14900" data-name="Group 14900" transform="translate(31.72 -42.294)">
        <path id="Path_47640" data-name="Path 47640" d="M0,0A.786.786,0,0,0,1.111,0h0L4.289-3.177a.785.785,0,0,0,0-1.112.785.785,0,0,0-1.112,0L.556-1.668-.477-2.7a.787.787,0,0,0-1.112.019.787.787,0,0,0,0,1.093Z" fill="#fff"/>
      </g>
      <g id="Group_14901" data-name="Group 14901" transform="translate(69.219 -50.946)">
        <path id="Path_47641" data-name="Path 47641" d="M0,0A.786.786,0,0,0-.786.786V16.064A.786.786,0,0,0,0,16.851a.786.786,0,0,0,.786-.787V.786A.786.786,0,0,0,0,0" fill="#fff"/>
      </g>
      <g id="Group_14902" data-name="Group 14902" transform="translate(70.567 -63.079)">
        <path id="Path_47642" data-name="Path 47642" d="M0,0H-2.7A2.138,2.138,0,0,0-4.831,2.134V33.14a.806.806,0,0,0,.05.275l1.855,4.947a1.687,1.687,0,0,0,2.171.985,1.686,1.686,0,0,0,.985-.985l1.855-4.946a.811.811,0,0,0,.049-.276v-31A2.136,2.136,0,0,0,0,0M-2.7,1.573H0a.562.562,0,0,1,.562.561V7.19h-3.82V2.133a.562.562,0,0,1,.562-.56m-.562,7.189H.561V32.353H-3.258Zm0,23.591,2.015,5.456a.112.112,0,0,1-.145.065.11.11,0,0,1-.065-.065L-2.91,33.926H.213Z" fill="#fff"/>
      </g>
    </g>
  </g>
</svg>
