<svg xmlns="http://www.w3.org/2000/svg" xmlns:xlink="http://www.w3.org/1999/xlink" width="96.199" height="86.704" viewBox="0 0 96.199 86.704">
  <defs>
    <clipPath id="clip-path">
      <path id="Path_47629" data-name="Path 47629" d="M0,0H96.2V-86.7H0Z" fill="none"/>
    </clipPath>
  </defs>
  <g id="Group_14889" data-name="Group 14889" transform="translate(0 86.704)">
    <g id="Group_14888" data-name="Group 14888" clip-path="url(#clip-path)">
      <g id="Group_14876" data-name="Group 14876" transform="translate(76.474 -80.911)">
        <path id="Path_47617" data-name="Path 47617" d="M0,0A12.8,12.8,0,0,0-10.035-5.794H-46.714A12.806,12.806,0,0,0-56.749,0L-75.088,31.765a12.8,12.8,0,0,0,0,11.587l18.339,31.765a12.806,12.806,0,0,0,10.035,5.794h36.679A12.8,12.8,0,0,0,0,75.117L18.34,43.352a12.808,12.808,0,0,0,0-11.587Z" fill="#60a9ac"/>
      </g>
      <g id="Group_14877" data-name="Group 14877" transform="translate(34.983 -32.502)">
        <path id="Path_47618" data-name="Path 47618" d="M0,0H9.665a.906.906,0,0,0,.906-.906.906.906,0,0,0-.906-.906H0a.906.906,0,0,0-.906.906A.906.906,0,0,0,0,0" fill="#fff"/>
      </g>
      <g id="Group_14878" data-name="Group 14878" transform="translate(34.983 -28.82)">
        <path id="Path_47619" data-name="Path 47619" d="M0,0H4.66a.906.906,0,0,0,.906-.906.906.906,0,0,0-.906-.906H0a.906.906,0,0,0-.906.906A.906.906,0,0,0,0,0" fill="#fff"/>
      </g>
      <g id="Group_14879" data-name="Group 14879" transform="translate(44.647 -30.632)">
        <path id="Path_47620" data-name="Path 47620" d="M0,0H-1.38a.906.906,0,0,0-.906.906.905.905,0,0,0,.906.906H0A.906.906,0,0,0,.906.906.906.906,0,0,0,0,0" fill="#fff"/>
      </g>
      <g id="Group_14880" data-name="Group 14880" transform="translate(34.983 -21.456)">
        <path id="Path_47621" data-name="Path 47621" d="M0,0H4.66a.906.906,0,0,0,.906-.906.906.906,0,0,0-.906-.906H0a.906.906,0,0,0-.906.906A.906.906,0,0,0,0,0" fill="#fff"/>
      </g>
      <g id="Group_14881" data-name="Group 14881" transform="translate(44.647 -23.269)">
        <path id="Path_47622" data-name="Path 47622" d="M0,0H-1.38a.906.906,0,0,0-.906.906.905.905,0,0,0,.906.906H0A.906.906,0,0,0,.906.906.906.906,0,0,0,0,0" fill="#fff"/>
      </g>
      <g id="Group_14882" data-name="Group 14882" transform="translate(34.983 -25.138)">
        <path id="Path_47623" data-name="Path 47623" d="M0,0H9.665a.906.906,0,0,0,.906-.906.906.906,0,0,0-.906-.906H0a.906.906,0,0,0-.906.906A.906.906,0,0,0,0,0" fill="#fff"/>
      </g>
      <g id="Group_14883" data-name="Group 14883" transform="translate(51.551 -25.138)">
        <path id="Path_47624" data-name="Path 47624" d="M0,0H4.66a.906.906,0,0,0,.906-.906.906.906,0,0,0-.906-.906H0a.906.906,0,0,0-.906.906A.906.906,0,0,0,0,0" fill="#fff"/>
      </g>
      <g id="Group_14884" data-name="Group 14884" transform="translate(61.216 -26.951)">
        <path id="Path_47625" data-name="Path 47625" d="M0,0H-1.38a.906.906,0,0,0-.906.906.905.905,0,0,0,.906.906H0A.906.906,0,0,0,.906.906.906.906,0,0,0,0,0" fill="#fff"/>
      </g>
      <g id="Group_14885" data-name="Group 14885" transform="translate(61.216 -30.632)">
        <path id="Path_47626" data-name="Path 47626" d="M0,0H-9.665a.906.906,0,0,0-.906.906.906.906,0,0,0,.906.906H0A.906.906,0,0,0,.906.906.906.906,0,0,0,0,0" fill="#fff"/>
      </g>
      <g id="Group_14886" data-name="Group 14886" transform="translate(61.216 -23.269)">
        <path id="Path_47627" data-name="Path 47627" d="M0,0H-9.665a.906.906,0,0,0-.906.906.906.906,0,0,0,.906.906H0A.906.906,0,0,0,.906.906.906.906,0,0,0,0,0" fill="#fff"/>
      </g>
      <g id="Group_14887" data-name="Group 14887" transform="translate(75.412 -46.698)">
        <path id="Path_47628" data-name="Path 47628" d="M0,0A27.313,27.313,0,0,0-27.3-27.321,27.313,27.313,0,0,0-54.625-.017a27.314,27.314,0,0,0,6.731,17.963V31.584a1.945,1.945,0,0,0,1.942,1.942H-8.673a1.945,1.945,0,0,0,1.942-1.942V17.946A27.257,27.257,0,0,0,0,0M-8.673,10.312H-9.838v-2.2a.9.9,0,0,0-.9-.906H-28.5l.617-.786a1.156,1.156,0,0,1,.917-.445h1.5a2.475,2.475,0,0,0,2.112-1.2l1.3-2.178A2.437,2.437,0,0,0-21.715,1.1l-.276-2.885a1.162,1.162,0,0,1,.114-.624l.9-1.831a.652.652,0,0,1,.466-.352l2.923-.537a.646.646,0,0,1,.469.094L-15.377-3.9a.647.647,0,0,1,.271.369l.583,2.113A2.352,2.352,0,0,0-12.669.268l1.7.3a2.465,2.465,0,0,0,2.3-.828l.851-1A.532.532,0,0,1-7.1-1.343l1.744,1.3a2.468,2.468,0,0,0,1.1.459L-1.83.775a25.439,25.439,0,0,1-4.9,14.275v-2.8a1.945,1.945,0,0,0-1.942-1.942m-19.545,18.3H-42.974V9.018h14.756Zm0-19.589,1.812,0H-22v5.028a.9.9,0,0,0,.9.906.908.908,0,0,0,.641-.266l1.431-1.431,1.431,1.43a.9.9,0,0,0,1.28,0,.9.9,0,0,0,.266-.642V9.017h4.4v19.59H-26.406Zm6.213,0h2.33v2.839l-.525-.523a.9.9,0,0,0-1.279,0h0l-.524.523ZM-28.74-25.458-30.087-22.5a2.967,2.967,0,0,0-.268,1.234V-18.8a.529.529,0,0,1-.332.493l-1.637.666a2.331,2.331,0,0,0-1.453,1.978l-.25,3.007a2.349,2.349,0,0,0,.278,1.317l1.019,1.869a.543.543,0,0,1,.056.356l-.445,2.29a.534.534,0,0,1-.408.419l-2.209.488a1.156,1.156,0,0,1-.852-.14l-1.718-1.032A3,3,0,0,0-39.535-7.5l-3.63-.374a2.96,2.96,0,0,0-1.691.325l-2.69,1.414a2.974,2.974,0,0,0-1.517,1.97l-.48,2.093a.535.535,0,0,1-.415.4l-2.829.562A25.533,25.533,0,0,1-28.74-25.458M-52.795.741-49.6.1a2.351,2.351,0,0,0,1.828-1.776l.479-2.093a1.166,1.166,0,0,1,.594-.771L-44.01-5.95a1.174,1.174,0,0,1,.661-.127l3.631.375a1.182,1.182,0,0,1,.48.16l1.718,1.033a2.965,2.965,0,0,0,2.175.356l2.209-.488a2.341,2.341,0,0,0,1.8-1.843l.445-2.291a2.354,2.354,0,0,0-.244-1.568l-1.019-1.869a.534.534,0,0,1-.062-.3l.248-3.007a.528.528,0,0,1,.33-.448L-30-16.632A2.334,2.334,0,0,0-28.544-18.8v-2.466a1.169,1.169,0,0,1,.1-.483l1.7-3.734A25.527,25.527,0,0,1-1.838-1.057L-3.981-1.38A.639.639,0,0,1-4.27-1.5L-6.013-2.8A2.349,2.349,0,0,0-9.2-2.432l-.85,1a.651.651,0,0,1-.6.218l-1.7-.3a.537.537,0,0,1-.422-.383l-.584-2.112a2.452,2.452,0,0,0-1.03-1.407l-1.742-1.132A2.449,2.449,0,0,0-17.913-6.9l-2.927.531a2.473,2.473,0,0,0-1.766,1.335l-.9,1.833A2.976,2.976,0,0,0-23.8-1.61l.275,2.884a.64.64,0,0,1-.088.394l-1.3,2.177a.65.65,0,0,1-.556.316h-1.5A2.96,2.96,0,0,0-29.31,5.3l-1.1,1.41a2.456,2.456,0,0,0-.294.5H-43.881a.906.906,0,0,0-.906.905h0v2.2h-1.165a1.945,1.945,0,0,0-1.942,1.942v2.8A25.437,25.437,0,0,1-52.795.74ZM-8.543,31.584a.13.13,0,0,1-.13.129H-45.952a.129.129,0,0,1-.129-.129V12.254a.129.129,0,0,1,.129-.129h1.165V29.513a.906.906,0,0,0,.906.906h33.137a.906.906,0,0,0,.906-.906V12.125h1.165a.13.13,0,0,1,.13.129Z" fill="#fff"/>
      </g>
    </g>
  </g>
</svg>
