<svg xmlns="http://www.w3.org/2000/svg" xmlns:xlink="http://www.w3.org/1999/xlink" width="96.199" height="86.704" viewBox="0 0 96.199 86.704">
  <defs>
    <clipPath id="clip-path">
      <path id="Path_47655" data-name="Path 47655" d="M0,0H96.2V-86.7H0Z" fill="none"/>
    </clipPath>
  </defs>
  <g id="Group_14917" data-name="Group 14917" transform="translate(0 86.704)">
    <g id="Group_14916" data-name="Group 14916" clip-path="url(#clip-path)">
      <g id="Group_14905" data-name="Group 14905" transform="translate(76.474 -80.911)">
        <path id="Path_47644" data-name="Path 47644" d="M0,0A12.8,12.8,0,0,0-10.035-5.794H-46.714A12.806,12.806,0,0,0-56.749,0L-75.088,31.765a12.8,12.8,0,0,0,0,11.587l18.339,31.765a12.806,12.806,0,0,0,10.035,5.794h36.679A12.8,12.8,0,0,0,0,75.117L18.34,43.352a12.808,12.808,0,0,0,0-11.587Z" fill="#60a9ac"/>
      </g>
      <g id="Group_14906" data-name="Group 14906" transform="translate(48.099 -65.372)">
        <path id="Path_47645" data-name="Path 47645" d="M0,0A.816.816,0,0,0,.816-.816V-4.544A.816.816,0,0,0,0-5.359a.816.816,0,0,0-.816.815V-.816A.816.816,0,0,0,0,0" fill="#fff"/>
      </g>
      <g id="Group_14907" data-name="Group 14907" transform="translate(71.401 -47.43)">
        <path id="Path_47646" data-name="Path 47646" d="M0,0H-3.728a.816.816,0,0,0-.816.816.815.815,0,0,0,.816.815H0A.816.816,0,0,0,.816.816.816.816,0,0,0,0,0" fill="#fff"/>
      </g>
      <g id="Group_14908" data-name="Group 14908" transform="translate(28.527 -47.43)">
        <path id="Path_47647" data-name="Path 47647" d="M0,0H-3.728a.816.816,0,0,0-.816.816.815.815,0,0,0,.816.815H0A.816.816,0,0,0,.816.816.816.816,0,0,0,0,0" fill="#fff"/>
      </g>
      <g id="Group_14909" data-name="Group 14909" transform="translate(63.999 -63.668)">
        <path id="Path_47648" data-name="Path 47648" d="M0,0-2.636,2.637a.814.814,0,0,0,0,1.153.816.816,0,0,0,1.153,0L1.153,1.153A.815.815,0,0,0,0,0" fill="#fff"/>
      </g>
      <g id="Group_14910" data-name="Group 14910" transform="translate(33.683 -33.351)">
        <path id="Path_47649" data-name="Path 47649" d="M0,0-2.636,2.636a.815.815,0,0,0,0,1.154.816.816,0,0,0,1.153,0L1.153,1.153A.815.815,0,0,0,0,0" fill="#fff"/>
      </g>
      <g id="Group_14911" data-name="Group 14911" transform="translate(62.516 -33.351)">
        <path id="Path_47650" data-name="Path 47650" d="M0,0A.816.816,0,0,0-1.153,0a.816.816,0,0,0,0,1.153L1.483,3.79A.816.816,0,1,0,2.637,2.636Z" fill="#fff"/>
      </g>
      <g id="Group_14912" data-name="Group 14912" transform="translate(33.683 -59.878)">
        <path id="Path_47651" data-name="Path 47651" d="M0,0A.815.815,0,0,0,1.153.02a.815.815,0,0,0,.02-1.153c-.006-.007-.013-.013-.02-.02L-1.483-3.79a.816.816,0,0,0-1.153,0,.815.815,0,0,0,0,1.154Z" fill="#fff"/>
      </g>
      <g id="Group_14913" data-name="Group 14913" transform="translate(48.099 -63.275)">
        <path id="Path_47652" data-name="Path 47652" d="M0,0A16.659,16.659,0,0,0-16.66,16.659,16.661,16.661,0,0,0-11,29.173,9.6,9.6,0,0,1-7.942,34.2,2.678,2.678,0,0,0-9.5,37.649a2.674,2.674,0,0,0,1.69,1.6v5.372A2.681,2.681,0,0,0-5.126,47.3H5.126a2.682,2.682,0,0,0,2.68-2.679V39.251A2.677,2.677,0,0,0,7.941,34.2,9.607,9.607,0,0,1,11,29.174,16.659,16.659,0,0,0,12.516,5.663,16.657,16.657,0,0,0,0,0M6.175,41.709H-6.175v-2.33H6.175Zm0-2.33M5.126,45.67H-5.126a1.049,1.049,0,0,1-1.049-1.048V43.34H6.175v1.282A1.049,1.049,0,0,1,5.126,45.67M6.99,37.748H-6.99A1.049,1.049,0,0,1-8.039,36.7,1.049,1.049,0,0,1-6.99,35.651H6.99a1.049,1.049,0,1,1,0,2.1m2.931-9.8a11.2,11.2,0,0,0-3.6,6.071H-6.316a11.206,11.206,0,0,0-3.6-6.071A15.03,15.03,0,0,1-11.29,6.738,15.03,15.03,0,0,1,9.921,5.369a15.029,15.029,0,0,1,1.369,21.21,15,15,0,0,1-1.369,1.37" fill="#fff"/>
      </g>
      <g id="Group_14914" data-name="Group 14914" transform="translate(59.382 -48.991)">
        <path id="Path_47653" data-name="Path 47653" d="M0,0-2.212-.268a9.351,9.351,0,0,0-.782-1.888L-1.61-3.9a.815.815,0,0,0-.062-1.084L-3.909-7.218a.815.815,0,0,0-1.08-.065L-6.742-5.908a9.4,9.4,0,0,0-1.889-.784L-8.881-8.9a.815.815,0,0,0-.81-.723h-3.161a.816.816,0,0,0-.81.717L-13.929-6.7a9.36,9.36,0,0,0-1.889.782L-17.559-7.3a.816.816,0,0,0-1.084.062L-20.88-5a.817.817,0,0,0-.065,1.08l1.375,1.753a9.445,9.445,0,0,0-.783,1.889l-2.209.253a.813.813,0,0,0-.722.81v3.16a.815.815,0,0,0,.717.81l2.212.267a9.36,9.36,0,0,0,.782,1.889l-1.384,1.741A.815.815,0,0,0-20.9,9.738l2.237,2.237a.815.815,0,0,0,1.08.065l1.753-1.376a9.309,9.309,0,0,0,1.889.784l.252,2.208a.817.817,0,0,0,.811.724h3.16a.816.816,0,0,0,.81-.718l.267-2.212a9.36,9.36,0,0,0,1.889-.782l1.741,1.384a.816.816,0,0,0,1.084-.062l2.237-2.237a.817.817,0,0,0,.065-1.08L-3,6.92a9.286,9.286,0,0,0,.784-1.889L0,4.779a.816.816,0,0,0,.724-.81V.807A.816.816,0,0,0,0,0M-.913,3.243l-2.042.233a.814.814,0,0,0-.7.631A7.729,7.729,0,0,1-4.672,6.55a.816.816,0,0,0,.047.94l1.273,1.622-1.212,1.212L-6.17,9.041a.817.817,0,0,0-.944-.051A7.727,7.727,0,0,1-9.558,10a.816.816,0,0,0-.631.7l-.247,2.047h-1.71l-.233-2.041a.819.819,0,0,0-.631-.7,7.76,7.76,0,0,1-2.445-1.013.816.816,0,0,0-.939.046l-1.622,1.273L-19.228,9.1l1.281-1.608a.816.816,0,0,0,.051-.943A7.733,7.733,0,0,1-18.907,4.1a.814.814,0,0,0-.7-.63l-2.046-.248V1.513l2.042-.233a.814.814,0,0,0,.7-.631A7.755,7.755,0,0,1-17.9-1.795a.816.816,0,0,0-.046-.939l-1.273-1.622L-18-5.566-16.4-4.287a.817.817,0,0,0,.944.05,7.774,7.774,0,0,1,2.444-1.011.816.816,0,0,0,.631-.7l.247-2.047h1.71l.233,2.042a.815.815,0,0,0,.631.7A7.719,7.719,0,0,1-7.112-4.235a.816.816,0,0,0,.94-.047l1.623-1.273,1.211,1.212-1.28,1.607a.817.817,0,0,0-.052.944A7.716,7.716,0,0,1-3.658.652a.815.815,0,0,0,.7.631l2.047.247Z" fill="#fff"/>
      </g>
      <g id="Group_14915" data-name="Group 14915" transform="translate(48.099 -52.09)">
        <path id="Path_47654" data-name="Path 47654" d="M0,0A5.476,5.476,0,0,0,0,10.952,5.476,5.476,0,0,0,5.476,5.476,5.483,5.483,0,0,0,0,0M0,9.32A3.845,3.845,0,0,1-3.845,5.476,3.845,3.845,0,0,1,0,1.631,3.845,3.845,0,0,1,3.845,5.476,3.849,3.849,0,0,1,0,9.32" fill="#fff"/>
      </g>
    </g>
  </g>
</svg>
