<svg xmlns="http://www.w3.org/2000/svg" xmlns:xlink="http://www.w3.org/1999/xlink" width="96.199" height="86.704" viewBox="0 0 96.199 86.704">
  <defs>
    <clipPath id="clip-path">
      <path id="Path_47616" data-name="Path 47616" d="M0,0H96.2V-86.7H0Z" fill="none"/>
    </clipPath>
  </defs>
  <g id="Group_14875" data-name="Group 14875" transform="translate(0 86.704)">
    <g id="Group_14874" data-name="Group 14874" clip-path="url(#clip-path)">
      <g id="Group_14867" data-name="Group 14867" transform="translate(76.474 -80.911)">
        <path id="Path_47609" data-name="Path 47609" d="M0,0A12.8,12.8,0,0,0-10.035-5.794H-46.714A12.806,12.806,0,0,0-56.749,0L-75.088,31.765a12.8,12.8,0,0,0,0,11.587l18.339,31.765a12.806,12.806,0,0,0,10.035,5.794h36.679A12.8,12.8,0,0,0,0,75.117L18.34,43.352a12.808,12.808,0,0,0,0-11.587Z" fill="#60a9ac"/>
      </g>
      <g id="Group_14868" data-name="Group 14868" transform="translate(47.574 -44.574)">
        <path id="Path_47610" data-name="Path 47610" d="M0,0V-15.733a3.007,3.007,0,0,0,1.951-3.779A3.007,3.007,0,0,0-.916-21.606h-11.51A3.007,3.007,0,0,0-15.435-18.6a3.007,3.007,0,0,0,2.093,2.867V0L-24.5,19.146a3.531,3.531,0,0,0,1.274,4.829,3.533,3.533,0,0,0,1.777.48H8.1a3.531,3.531,0,0,0,3.051-5.309ZM-12.426-19.777H-.916A1.177,1.177,0,0,1,.262-18.6,1.177,1.177,0,0,1-.916-17.423h-11.51A1.177,1.177,0,0,1-13.6-18.6a1.177,1.177,0,0,1,1.177-1.177M-11.635.708A.932.932,0,0,0-11.51.247V-15.589h9.679V.247a.921.921,0,0,0,.124.461L2.072,7.193a18.5,18.5,0,0,1-8.5-.3,20.309,20.309,0,0,0-8.535-.477ZM9.579,21.772a1.681,1.681,0,0,1-1.474.853H-21.448a1.7,1.7,0,0,1-1.7-1.7,1.7,1.7,0,0,1,.232-.856l6.709-11.514a18.118,18.118,0,0,1,9.293.109,20.329,20.329,0,0,0,5.4.727,19.084,19.084,0,0,0,4.56-.534L9.575,20.068a1.687,1.687,0,0,1,0,1.7" fill="#fff"/>
      </g>
      <g id="Group_14869" data-name="Group 14869" transform="translate(41.95 -31.435)">
        <path id="Path_47611" data-name="Path 47611" d="M0,0A3.532,3.532,0,0,0-3.531,3.532,3.531,3.531,0,0,0,0,7.063,3.531,3.531,0,0,0,3.532,3.532,3.535,3.535,0,0,0,0,0M0,5.232a1.7,1.7,0,0,1-1.7-1.7A1.7,1.7,0,0,1,0,1.831a1.7,1.7,0,0,1,1.7,1.7A1.7,1.7,0,0,1,0,5.232" fill="#fff"/>
      </g>
      <g id="Group_14870" data-name="Group 14870" transform="translate(34.279 -32.089)">
        <path id="Path_47612" data-name="Path 47612" d="M0,0A1.046,1.046,0,0,1,1.046,1.046,1.046,1.046,0,0,1,0,2.093,1.046,1.046,0,0,1-1.046,1.046,1.046,1.046,0,0,1,0,0" fill="#fff"/>
      </g>
      <g id="Group_14871" data-name="Group 14871" transform="translate(50.525 -28.95)">
        <path id="Path_47613" data-name="Path 47613" d="M0,0A1.046,1.046,0,0,1,1.046,1.046,1.046,1.046,0,0,1,0,2.093,1.046,1.046,0,0,1-1.046,1.046,1.046,1.046,0,0,1,0,0" fill="#fff"/>
      </g>
      <g id="Group_14872" data-name="Group 14872" transform="translate(41.95 -42.103)">
        <path id="Path_47614" data-name="Path 47614" d="M0,0A1.046,1.046,0,0,1,1.046,1.046,1.046,1.046,0,0,1,0,2.093,1.046,1.046,0,0,1-1.046,1.046,1.046,1.046,0,0,1,0,0" fill="#fff"/>
      </g>
      <g id="Group_14873" data-name="Group 14873" transform="translate(73.146 -53.501)">
        <path id="Path_47615" data-name="Path 47615" d="M0,0-2.263-1.308v-4.7A.917.917,0,0,0-2.721-6.8L-6.792-9.151v-2.613a.915.915,0,0,0-.915-.915.916.916,0,0,0-.916.915v2.613l-3.613,2.087L-14.5-8.372a.915.915,0,0,0-1.251.335.916.916,0,0,0,.335,1.251l2.263,1.308v4.172L-16.765.78-19.028-.528a.916.916,0,0,0-1.249.344.916.916,0,0,0,.333,1.242l2.263,1.308v4.7a.917.917,0,0,0,.458.793l4.071,2.351v2.613a.916.916,0,0,0,.916.915.915.915,0,0,0,.915-.915V10.21l3.614-2.087,2.263,1.308A.915.915,0,0,0-4.191,9.1a.915.915,0,0,0-.327-1.252l-.011-.007L-6.792,6.537V2.365L-3.179.279-.916,1.587A.915.915,0,0,0,.335,1.252.916.916,0,0,0,0,0ZM-12.236,8.624l-3.613-2.087V2.366L-12.236.279l3.613,2.086V6.537Zm8.141-9.931L-7.707.78l-3.614-2.087V-5.478l3.614-2.087,3.612,2.087Z" fill="#fff"/>
      </g>
    </g>
  </g>
</svg>
