<svg xmlns="http://www.w3.org/2000/svg" xmlns:xlink="http://www.w3.org/1999/xlink" width="96.199" height="86.704" viewBox="0 0 96.199 86.704">
  <defs>
    <clipPath id="clip-path">
      <path id="Path_47574" data-name="Path 47574" d="M0,0H96.2V-86.7H0Z" fill="none"/>
    </clipPath>
  </defs>
  <g id="Group_14828" data-name="Group 14828" transform="translate(0 86.704)">
    <g id="Group_14827" data-name="Group 14827" clip-path="url(#clip-path)">
      <g id="Group_14814" data-name="Group 14814" transform="translate(76.474 -80.911)">
        <path id="Path_47561" data-name="Path 47561" d="M0,0A12.8,12.8,0,0,0-10.035-5.794H-46.714A12.806,12.806,0,0,0-56.749,0L-75.088,31.765a12.8,12.8,0,0,0,0,11.587l18.339,31.765a12.806,12.806,0,0,0,10.035,5.794h36.679A12.8,12.8,0,0,0,0,75.117L18.34,43.352a12.808,12.808,0,0,0,0-11.587Z" fill="#60a9ac"/>
      </g>
      <g id="Group_14815" data-name="Group 14815" transform="translate(50.596 -53.393)">
        <path id="Path_47562" data-name="Path 47562" d="M0,0A3.583,3.583,0,0,0-1.247,2.256H-3.785A3.583,3.583,0,0,0-5.032,0,4.3,4.3,0,0,0-8.581-.48,10.823,10.823,0,0,1,3.239-.543,4.1,4.1,0,0,0,0,0M.18,11.122H-5.212a24.4,24.4,0,0,0,1.555-7.37h2.281A24.433,24.433,0,0,0,.18,11.122m-2.825,18.89a47.416,47.416,0,0,0-5.193-8.529H2.607a41.368,41.368,0,0,0-5.252,8.529M.714,12.618a62.862,62.862,0,0,0,3.209,7.158c-.05.071-.1.142-.153.212H-8.966l-.059-.082a62.527,62.527,0,0,0,3.279-7.288Zm-13.088,9.91c-7.043,8.281-18.706-1.664-12.52-9.706a38.108,38.108,0,0,1,7.386-6.736c2.778-2.093,6.242-4.747,9.792-5.2C-5.941.654-5.475,1.6-5.173,3.148c.228,3.19-1.054,6.578-2.185,9.493-1.3,3.354-2.669,7.128-5.016,9.887M21.047,11.911C19.009,9.262,12.325,3.476,6.9.784A12.265,12.265,0,0,0,3.2-2.305,4.912,4.912,0,0,0,4.235-5.946a6.253,6.253,0,0,0-3.164-4.749,4.507,4.507,0,0,1,3.942-2.383.748.748,0,0,0,0-1.5A6.081,6.081,0,0,0-.31-11.29a7.686,7.686,0,0,0-4.567.015,6.064,6.064,0,0,0-5.331-3.3.748.748,0,0,0,0,1.5A4.459,4.459,0,0,1-6.328-10.8l.076.133A6.641,6.641,0,0,0-7.655-9.6.748.748,0,0,0-6.594-8.545,5.939,5.939,0,0,1-.124-9.626,4.8,4.8,0,0,1,2.748-5.79a3.367,3.367,0,0,1-.967,2.826,12.373,12.373,0,0,0-8.773-.014A3.177,3.177,0,0,1-7.94-4.822a.748.748,0,0,0-1.481.207,4.674,4.674,0,0,0,1,2.291A12.247,12.247,0,0,0-12.28.961c-5.361,2.762-11.8,8.357-13.8,10.95A9.538,9.538,0,0,0-24.01,25.393c5.248,3.707,11.252.987,14.188-4.053,4.179,5.428,6.067,9.553,6.482,10.984a.754.754,0,0,0,1.445-.031c.01-.041,1.058-4.188,6.614-11.075,1.73,3,4.087,5.348,7.678,5.81a9.464,9.464,0,0,0,7.864-2.7A.748.748,0,0,0,19.2,23.269a7.97,7.97,0,0,1-6.612,2.276c-3.8-.489-5.271-3.232-7.163-6.122a64.515,64.515,0,0,1-3.63-8.208C-.066,5.948-.4,2.2.916,1.182c1.5-1.163,4.044.28,5.264.895C11.3,4.656,17.935,10.319,19.861,12.823A7.946,7.946,0,0,1,21.1,20.192a.748.748,0,0,0,1.419.472A9.441,9.441,0,0,0,21.047,11.911Z" fill="#fff"/>
      </g>
      <g id="Group_14816" data-name="Group 14816" transform="translate(66.894 -31.641)">
        <path id="Path_47563" data-name="Path 47563" d="M0,0A.748.748,0,0,0,.888,1.2a6.354,6.354,0,0,0,1.34-8.874.748.748,0,0,0-1.2.887A4.859,4.859,0,0,1,0,0" fill="#fff"/>
      </g>
      <g id="Group_14817" data-name="Group 14817" transform="translate(27.531 -60.735)">
        <path id="Path_47564" data-name="Path 47564" d="M0,0A.748.748,0,0,0,0-1.5.748.748,0,0,0,0,0" fill="#fff"/>
      </g>
      <g id="Group_14818" data-name="Group 14818" transform="translate(35.065 -56.638)">
        <path id="Path_47565" data-name="Path 47565" d="M0,0A.748.748,0,0,0,0-1.5.748.748,0,0,0,0,0" fill="#fff"/>
      </g>
      <g id="Group_14819" data-name="Group 14819" transform="translate(27.809 -51.931)">
        <path id="Path_47566" data-name="Path 47566" d="M0,0A.748.748,0,0,0,0-1.5.748.748,0,0,0,0,0" fill="#fff"/>
      </g>
      <g id="Group_14820" data-name="Group 14820" transform="translate(67.689 -60.735)">
        <path id="Path_47567" data-name="Path 47567" d="M0,0A.748.748,0,0,0,0-1.5.748.748,0,0,0,0,0" fill="#fff"/>
      </g>
      <g id="Group_14821" data-name="Group 14821" transform="translate(60.156 -56.638)">
        <path id="Path_47568" data-name="Path 47568" d="M0,0A.748.748,0,0,0,0-1.5.748.748,0,0,0,0,0" fill="#fff"/>
      </g>
      <g id="Group_14822" data-name="Group 14822" transform="translate(67.412 -51.931)">
        <path id="Path_47569" data-name="Path 47569" d="M0,0A.748.748,0,0,0,0-1.5.748.748,0,0,0,0,0" fill="#fff"/>
      </g>
      <g id="Group_14823" data-name="Group 14823" transform="translate(39.557 -25.282)">
        <path id="Path_47570" data-name="Path 47570" d="M0,0A.748.748,0,0,0,0,1.5.748.748,0,0,0,0,0" fill="#fff"/>
      </g>
      <g id="Group_14824" data-name="Group 14824" transform="translate(31.178 -21.828)">
        <path id="Path_47571" data-name="Path 47571" d="M0,0A.748.748,0,0,0,0,1.5.748.748,0,0,0,0,0" fill="#fff"/>
      </g>
      <g id="Group_14825" data-name="Group 14825" transform="translate(56.603 -25.282)">
        <path id="Path_47572" data-name="Path 47572" d="M0,0A.748.748,0,0,0,0,1.5.748.748,0,0,0,0,0" fill="#fff"/>
      </g>
      <g id="Group_14826" data-name="Group 14826" transform="translate(64.981 -21.828)">
        <path id="Path_47573" data-name="Path 47573" d="M0,0A.748.748,0,0,0,0,1.5.748.748,0,0,0,0,0" fill="#fff"/>
      </g>
    </g>
  </g>
</svg>
