<?xml version="1.0" encoding="utf-8"?>
<!-- Generator: Adobe Illustrator 19.0.0, SVG Export Plug-In . SVG Version: 6.00 Build 0)  -->
<svg version="1.1" id="Layer_1" xmlns="http://www.w3.org/2000/svg" xmlns:xlink="http://www.w3.org/1999/xlink" x="0px" y="0px"
	 viewBox="-270 366.8 69.2 60.2" style="enable-background:new -270 366.8 69.2 60.2;" xml:space="preserve">
<style type="text/css">
	.st0{fill:#EDF2F4;}
	.st1{fill:#6DA3AA;}
</style>
<g id="Group_15873" transform="translate(-819.399 -253.876)">
	<path id="Polygon_37" class="st0" d="M596.6,620.7c2.9,0,5.5,1.5,6.9,4l12.7,22.1c1.4,2.5,1.4,5.5,0,8l-12.7,22.1
		c-1.4,2.5-4.1,4-6.9,4h-25.3c-2.9,0-5.5-1.5-6.9-4l-12.7-22.1c-1.4-2.5-1.4-5.5,0-8l12.7-22.1c1.4-2.5,4.1-4,6.9-4H596.6z"/>
</g>
<path class="st1" d="M-237.8,413.3l2.6-2.6c0.3-0.3,0.5-0.8,0.5-1.2c0-0.5-0.2-0.9-0.5-1.2c-0.3-0.3-0.8-0.5-1.2-0.5
	c-0.4,0-0.9,0.2-1.2,0.5l-3.5,3.5c0,0,0,0,0,0l0,0c-0.3,0.3-0.5,0.8-0.5,1.2c0,0.5,0.2,0.9,0.5,1.2c0.6,0.6,1.8,0.6,2.4,0
	L-237.8,413.3z"/>
<path class="st1" d="M-238.5,407.3C-238.5,407.3-238.4,407.3-238.5,407.3l1.3-1.3c0.3-0.3,0.5-0.8,0.5-1.2c0-0.5-0.2-0.9-0.5-1.2
	c-0.3-0.3-0.8-0.5-1.2-0.5s-0.9,0.2-1.2,0.5l-4.7,4.7c-0.3,0.3-0.5,0.8-0.5,1.2s0.2,0.9,0.5,1.2c0.6,0.6,1.7,0.6,2.4,0L-238.5,407.3
	z"/>
<path class="st1" d="M-248.1,403.7l3.5-3.5c0.3-0.3,0.5-0.8,0.5-1.2c0-0.5-0.2-0.9-0.5-1.2c-0.3-0.3-0.8-0.5-1.2-0.5
	c-0.5,0-0.9,0.2-1.2,0.5l-3.5,3.5c-0.3,0.3-0.5,0.8-0.5,1.2c0,0.5,0.2,0.9,0.5,1.2C-249.9,404.4-248.8,404.4-248.1,403.7z"/>
<path class="st1" d="M-240.3,402.6c0.3-0.3,0.5-0.8,0.5-1.2c0-0.5-0.2-0.9-0.5-1.2c-0.3-0.3-0.8-0.5-1.2-0.5c-0.4,0-0.9,0.2-1.2,0.5
	l-5,5c-0.7,0.7-0.7,1.8,0,2.4c0.7,0.7,1.8,0.7,2.4,0L-240.3,402.6z"/>
<path class="st1" d="M-232.6,412.1l-1.2-1.2c-0.1,0.2-0.3,0.4-0.5,0.6l-2.2,2.2l1.1,1.1c0.7,0.7,2,0.7,2.7,0
	c0.4-0.4,0.6-0.8,0.6-1.4C-232,413-232.2,412.5-232.6,412.1L-232.6,412.1z"/>
<path class="st1" d="M-252.9,392.2l7.8-8.3l0.4-0.4l-2.8-2.6l-8.5,9l2.8,2.6L-252.9,392.2z"/>
<path class="st1" d="M-232.4,390.6l-0.7,0.7c-1.9,1.9-4.9,1.9-6.7,0c-1.2-1.2-1.2-3.1,0-4.3l1.5-1.5c-1.9-0.8-4-1.1-6-0.6l-7.6,8
	c-0.3,2.3,0.2,4.6,1.4,6.5l2.6-2.6c1.2-1.2,3.1-1.2,4.2,0c0.5,0.5,0.8,1.2,0.8,1.8c1.1-0.6,2.5-0.4,3.4,0.5c0.6,0.6,0.9,1.3,0.9,2.1
	c0,0.2,0,0.4-0.1,0.5c0.8-0.1,1.7,0.2,2.3,0.8c0.6,0.6,0.9,1.3,0.9,2.1c0,0.6-0.2,1.2-0.5,1.7c0.6,0.1,1.2,0.4,1.7,0.8
	c0.6,0.6,0.9,1.3,0.9,2.1c0,0,0,0.1,0,0.1l1.7,1.7c0,0,0,0,0,0l1.4,1.4c0.7,0.7,2,0.7,2.7,0c0.8-0.8,0.8-2,0-2.7l0,0l-5.2-5.2
	c-0.2-0.2-0.2-0.6,0-0.9c0.2-0.2,0.6-0.2,0.9,0l5.2,5.2l0.2,0.2c0.7,0.7,2,0.7,2.7,0c0.8-0.8,0.8-2,0-2.7l-3.5-3.5
	c-0.2-0.2-0.2-0.6,0-0.9c0.2-0.2,0.6-0.2,0.9,0l2.4,2.4c0.7,0.7,2,0.7,2.7,0c0.4-0.4,0.6-0.8,0.6-1.4c0-0.5-0.2-1-0.6-1.4l-1.9-2.1
	L-232.4,390.6z"/>
<path class="st1" d="M-227.3,381.6l8.3,8.8v0l0.2,0.3l2.8-2.6l-8.5-9L-227.3,381.6z"/>
<path class="st1" d="M-228.1,382.5c-3-0.4-5.9,0.6-8,2.7l-2.7,2.7c-0.7,0.7-0.7,1.8,0,2.5c1.4,1.4,3.6,1.4,4.9,0l1.1-1.1
	c0.1-0.1,0.3-0.2,0.5-0.2c0.2,0,0.3,0.1,0.4,0.2l9.3,9.2c1.9-2,2.8-4.6,2.6-7.3L-228.1,382.5z"/>
</svg>
