<?xml version="1.0" encoding="utf-8"?>
<!-- Generator: Adobe Illustrator 19.0.0, SVG Export Plug-In . SVG Version: 6.00 Build 0)  -->
<svg version="1.1" id="Layer_1" xmlns="http://www.w3.org/2000/svg" xmlns:xlink="http://www.w3.org/1999/xlink" x="0px" y="0px"
	 viewBox="-295 386.6 19.2 21.4" style="enable-background:new -295 386.6 19.2 21.4;" xml:space="preserve">
<style type="text/css">
	.st0{fill:#44BEED;}
</style>
<path id="Icon_material-event" class="st0" d="M-280,398.4h-5.3v5.3h5.3V398.4z M-281.1,386.6v2.1h-8.5v-2.1h-2.1v2.1h-1.1
	c-1.2,0-2.1,1-2.1,2.1c0,0,0,0,0,0l0,15c0,1.2,1,2.1,2.1,2.1h15c1.2,0,2.1-1,2.1-2.1v-15c0-1.2-1-2.1-2.1-2.1h-1.1v-2.1H-281.1z
	 M-277.9,405.9h-15v-11.8h15L-277.9,405.9z"/>
</svg>
