<?xml version="1.0" encoding="utf-8"?>
<!-- Generator: Adobe Illustrator 19.0.0, SVG Export Plug-In . SVG Version: 6.00 Build 0)  -->
<svg version="1.1" id="Layer_1" xmlns="http://www.w3.org/2000/svg" xmlns:xlink="http://www.w3.org/1999/xlink" x="0px" y="0px"
	 viewBox="-270 366.8 69.2 60.2" style="enable-background:new -270 366.8 69.2 60.2;" xml:space="preserve">
<style type="text/css">
	.st0{fill:#EDF2F4;}
	.st1{fill:#6DA3AA;}
</style>
<g id="Group_15873" transform="translate(-819.399 -253.876)">
	<path id="Polygon_37" class="st0" d="M596.6,620.7c2.9,0,5.5,1.5,6.9,4l12.7,22.1c1.4,2.5,1.4,5.5,0,8l-12.7,22.1
		c-1.4,2.5-4.1,4-6.9,4h-25.3c-2.9,0-5.5-1.5-6.9-4l-12.7-22.1c-1.4-2.5-1.4-5.5,0-8l12.7-22.1c1.4-2.5,4.1-4,6.9-4H596.6z"/>
</g>
<path class="st1" d="M-235.9,378.8L-235.9,378.8c-0.1,0-0.2,0-0.4,0c-0.6,0.1-1.4,0.5-2.1,1.2c-0.8,0.8-1.6,2.1-2.4,3.7
	c-0.5,1.2-0.9,2.5-1.3,3.9c1.9-0.3,3.9-0.5,6-0.5c2.1,0,4.1,0.2,6,0.5c-0.4-1.5-0.8-2.8-1.3-3.9c-0.7-1.6-1.5-2.9-2.4-3.7
	c-0.7-0.7-1.4-1.1-2.1-1.2C-235.6,378.8-235.7,378.8-235.9,378.8L-235.9,378.8L-235.9,378.8z M-230.8,379.5c0.6,0.9,1.3,2,1.8,3.2
	c0.6,1.5,1.3,3.4,1.6,5.4c1.9,0.5,3.7,1,5.3,1.6c1.2,0.5,2.3,1.1,3.2,1.8C-220.6,385.8-225.1,381.3-230.8,379.5L-230.8,379.5z
	 M-241,379.5c-5.6,1.7-10.1,6.3-11.8,12c0.9-0.6,1.9-1.3,3.2-1.8c1.5-0.7,3.3-1.3,5.3-1.6c0.5-2,1-3.7,1.6-5.4
	C-242.3,381.5-241.6,380.4-241,379.5z M-235.9,389.5c-2.3,0-4.5,0.2-6.6,0.5c-0.4,2-0.5,4.3-0.5,6.6c0,2.4,0.2,4.5,0.5,6.6
	c2,0.4,4.2,0.5,6.6,0.5c2.3,0,4.5-0.2,6.6-0.5c0.4-2,0.5-4.3,0.5-6.6c0-2.4-0.2-4.5-0.5-6.6C-231.3,389.7-233.5,389.5-235.9,389.5z
	 M-244.8,390.5c-1.5,0.4-2.7,0.8-3.9,1.3c-1.6,0.7-2.8,1.5-3.6,2.4c-0.7,0.7-1,1.4-1.1,2.1c0,0.1,0,0.3,0,0.4c0,0.1,0,0.3,0,0.4
	c0.1,0.6,0.5,1.4,1.1,2.1c0.8,0.8,2.1,1.6,3.6,2.4c1.2,0.5,2.5,0.9,3.9,1.3c-0.3-1.9-0.5-4-0.5-6.1
	C-245.3,394.5-245.1,392.4-244.8,390.5z M-226.9,390.5c0.3,1.9,0.5,4,0.5,6.1c0,2.1-0.2,4.2-0.5,6.1c1.5-0.4,2.7-0.8,3.9-1.3
	c1.6-0.7,2.8-1.5,3.6-2.4c0.7-0.7,1-1.4,1.1-2.1c0-0.1,0-0.2,0-0.4c0-0.1,0-0.2,0-0.4c-0.1-0.6-0.5-1.4-1.1-2.1
	c-0.8-0.8-2.1-1.6-3.6-2.4C-224.2,391.4-225.4,390.9-226.9,390.5z M-219,401.8c-0.9,0.6-1.9,1.3-3.2,1.8c-1.5,0.6-3.3,1.3-5.3,1.6
	c-0.5,2-1,3.7-1.6,5.3c-0.5,1.2-1.1,2.3-1.8,3.2C-225.1,412.1-220.6,407.6-219,401.8L-219,401.8z M-252.8,401.8
	c1.7,5.7,6.2,10.3,11.8,12c-0.6-0.9-1.3-2-1.8-3.2c-0.6-1.5-1.3-3.4-1.6-5.3c-1.9-0.5-3.7-1-5.3-1.6
	C-250.8,403.1-251.9,402.5-252.8,401.8L-252.8,401.8z M-229.8,405.7c-1.9,0.3-3.9,0.5-6,0.5s-4.1-0.2-6-0.5c0.4,1.5,0.8,2.8,1.3,3.9
	c0.7,1.6,1.5,2.9,2.4,3.7c0.7,0.7,1.4,1.1,2.1,1.2c0.1,0,0.2,0,0.4,0l0,0c0.1,0,0.2,0,0.4,0c0.6-0.1,1.4-0.5,2.1-1.2
	c0.8-0.8,1.6-2.1,2.4-3.7C-230.6,408.6-230.2,407.2-229.8,405.7L-229.8,405.7z"/>
</svg>
