<svg xmlns="http://www.w3.org/2000/svg" width="100.173" height="87.249" viewBox="0 0 100.173 87.249">
  <g id="Group_15878" data-name="Group 15878" transform="translate(-382 -333.751)">
    <path id="Polygon_43" data-name="Polygon 43" d="M70.5,0a8,8,0,0,1,6.938,4.017L97.887,39.641a8,8,0,0,1,0,7.966L77.436,83.232A8,8,0,0,1,70.5,87.249H29.675a8,8,0,0,1-6.938-4.017L2.286,47.607a8,8,0,0,1,0-7.966L22.737,4.017A8,8,0,0,1,29.675,0Z" transform="translate(382 333.751)" fill="#edf2f4"/>
    <g id="Group_14503" data-name="Group 14503" transform="translate(416.164 356.055)">
      <g id="Group_1779" data-name="Group 1779" transform="translate(-0.163 0)">
        <rect id="Rectangle_3350" data-name="Rectangle 3350" width="33.037" height="2.429" rx="1.215" transform="translate(0.102 6.316)" fill="#6da2aa"/>
        <rect id="Rectangle_3351" data-name="Rectangle 3351" width="33.037" height="2.429" rx="1.215" transform="translate(0.102 0)" fill="#6da2aa"/>
        <path id="Subtraction_1" data-name="Subtraction 1" d="M-12437-272.359h-27a3,3,0,0,1-3-3v-24a3,3,0,0,1,3-3h27a3,3,0,0,1,3,3v24A3,3,0,0,1-12437-272.359Zm-19.528-16.832a.871.871,0,0,0-.618.256l-1.238,1.236a.879.879,0,0,0,0,1.239l5.685,5.682a.882.882,0,0,0,.619.257.882.882,0,0,0,.617-.257l10.059-10.056a.875.875,0,0,0,0-1.236l-1.239-1.239a.867.867,0,0,0-.617-.256.867.867,0,0,0-.618.256l-8.2,8.2-3.829-3.83A.871.871,0,0,0-12456.527-289.191Z" transform="translate(12467 315)" fill="#6da2aa"/>
      </g>
    </g>
  </g>
</svg>
