<svg xmlns="http://www.w3.org/2000/svg" width="100.173" height="87.249" viewBox="0 0 100.173 87.249">
  <g id="Group_15881" data-name="Group 15881" transform="translate(-1031 -333.751)">
    <path id="Polygon_45" data-name="Polygon 45" d="M70.5,0a8,8,0,0,1,6.938,4.017L97.887,39.641a8,8,0,0,1,0,7.966L77.436,83.232A8,8,0,0,1,70.5,87.249H29.675a8,8,0,0,1-6.938-4.017L2.286,47.607a8,8,0,0,1,0-7.966L22.737,4.017A8,8,0,0,1,29.675,0Z" transform="translate(1031 333.751)" fill="#edf2f4"/>
    <g id="Group_15052" data-name="Group 15052" transform="translate(-6.949 -41)">
      <g id="Group_14574" data-name="Group 14574" transform="translate(1069.983 417.968)">
        <g id="Group_14506" data-name="Group 14506" transform="translate(19.06 0)">
          <g id="Group_14031" data-name="Group 14031" transform="translate(0 0)">
            <g id="Group_1787" data-name="Group 1787">
              <g id="Group_1785" data-name="Group 1785" transform="translate(0 0)">
                <g id="Group_1685" data-name="Group 1685" transform="translate(0 0)">
                  <circle id="Ellipse_66" data-name="Ellipse 66" cx="5" cy="5" r="5" transform="translate(2.957 0.032)" fill="#6da2aa"/>
                  <rect id="Rectangle_261" data-name="Rectangle 261" width="16" height="9" rx="4.5" transform="translate(-0.043 12.032)" fill="#6da2aa"/>
                </g>
              </g>
            </g>
          </g>
        </g>
        <g id="Group_15051" data-name="Group 15051" transform="translate(0.06 0)">
          <g id="Group_14031-2" data-name="Group 14031" transform="translate(0 0)">
            <g id="Group_1787-2" data-name="Group 1787">
              <g id="Group_1785-2" data-name="Group 1785" transform="translate(0 0)">
                <g id="Group_1685-2" data-name="Group 1685" transform="translate(0 0)">
                  <circle id="Ellipse_66-2" data-name="Ellipse 66" cx="5" cy="5" r="5" transform="translate(2.957 0.032)" fill="#6da2aa"/>
                  <rect id="Rectangle_261-2" data-name="Rectangle 261" width="16" height="9" rx="4.5" transform="translate(-0.043 12.032)" fill="#6da2aa"/>
                </g>
              </g>
            </g>
          </g>
        </g>
      </g>
      <g id="Group_14575" data-name="Group 14575" transform="translate(1069.949 401.262)">
        <rect id="Rectangle_3357" data-name="Rectangle 3357" width="34.768" height="2.556" rx="1.278" transform="translate(0 6.647)" fill="#6da2aa"/>
        <rect id="Rectangle_3358" data-name="Rectangle 3358" width="34.768" height="2.556" rx="1.278" transform="translate(0)" fill="#6da2aa"/>
      </g>
    </g>
  </g>
</svg>
