<svg id="external_link" data-name="external link" xmlns="http://www.w3.org/2000/svg" width="22.059" height="22.059" viewBox="0 0 22.059 22.059">
  <path id="Path_48464" data-name="Path 48464" d="M16.11,7.838A.919.919,0,1,1,16.11,6h5.515a.922.922,0,0,1,.919.919v5.515a.919.919,0,1,1-1.838,0v-3.3l-8.543,8.539a.916.916,0,0,1-1.3-1.3l8.539-8.543ZM6,9.676A1.838,1.838,0,0,1,7.838,7.838h4.6a.919.919,0,1,1,0,1.838h-4.6V20.706H18.868v-4.6a.919.919,0,1,1,1.838,0v4.6a1.838,1.838,0,0,1-1.838,1.838H7.838A1.838,1.838,0,0,1,6,20.706Z" transform="translate(-3.243 -3.243)" fill="#6da2aa"/>
  <path id="Path_48465" data-name="Path 48465" d="M0,0H22.059V22.059H0Z" fill="none"/>
</svg>
