<?xml version="1.0" encoding="utf-8"?>
<!-- Generator: Adobe Illustrator 19.0.0, SVG Export Plug-In . SVG Version: 6.00 Build 0)  -->
<svg version="1.1" id="Layer_1" xmlns="http://www.w3.org/2000/svg" xmlns:xlink="http://www.w3.org/1999/xlink" x="0px" y="0px"
	 viewBox="-270 366.8 69.2 60.2" style="enable-background:new -270 366.8 69.2 60.2;" xml:space="preserve">
<style type="text/css">
	.st0{fill:#EDF2F4;}
	.st1{fill:#6DA2AA;}
</style>
<g id="Group_15873" transform="translate(-819.399 -253.876)">
	<path id="Polygon_37" class="st0" d="M596.3,620.7c2.9,0,5.5,1.5,6.9,4l12.7,22.1c1.4,2.5,1.4,5.5,0,8l-12.7,22.1
		c-1.4,2.5-4.1,4-6.9,4H571c-2.9,0-5.5-1.5-6.9-4l-12.7-22.1c-1.4-2.5-1.4-5.5,0-8l12.7-22.1c1.4-2.5,4.1-4,6.9-4H596.3z"/>
</g>
<g id="illustrations" transform="translate(-952.242 -663.786)">
	<path id="Path_48528" class="st1" d="M716.6,1064.8c-1.8,0-3.6-0.5-5.3-1.2c0.1,1.3,0.5,2.6,1.1,3.8c2.6,0.8,5.3,1,7.9,0.4
		c0.7-1.1,1.2-2.3,1.5-3.6C720.2,1064.7,718.4,1064.9,716.6,1064.8z"/>
	<path id="Path_48529" class="st1" d="M715.6,1072.8c0,0-0.1,2.3-0.1,2.3c0,0.3,0.2,0.5,0.5,0.5c0.1,0,0.3,0,0.4-0.1
		c0.1-0.1,0.2-0.2,0.2-0.3c0,0,0.1-2.1,0.1-2.2c0.9-1.4,1.9-2.7,2.9-4c-2.1,0.3-4.3,0.2-6.4-0.3
		C714.1,1069.9,714.9,1071.3,715.6,1072.8L715.6,1072.8z"/>
	<path id="Path_48530" class="st1" d="M713.3,1051.6c0.3,0.3,0.5,0.6,0.7,0.8c-0.1,0.3-0.3,0.5-0.3,0.8l-0.3,1.2
		c2.5-0.7,5.2-0.5,7.6,0.4c-0.1-0.7-0.2-1.3-0.5-2c1.6-1.8,3.7-3.3,5.9-4.4c0.3-0.1,0.5-0.5,0.3-0.9c-0.1-0.3-0.5-0.5-0.9-0.4
		c-2.3,1-4.4,2.6-6.1,4.5c-1.3-1.4-3.4-1.5-4.9-0.3c-1.5-2-3.4-3.7-5.6-5c-0.3-0.2-0.7-0.1-0.9,0.3c-0.2,0.3-0.1,0.7,0.3,0.9l0,0
		C710.4,1048.7,712,1050,713.3,1051.6L713.3,1051.6z"/>
	<path id="Path_48531" class="st1" d="M705.8,1062.3c-1,0.4-2.1,0.6-3.2,0.5c0.6,1.5,2,2.6,3.6,2.9c1.6,0.3,3.2-0.3,4.3-1.5
		c-0.1-0.8-0.2-1.7-0.1-2.6c0-0.5,0.1-0.9,0.1-1.3L705.8,1062.3z"/>
	<path id="Path_48532" class="st1" d="M722.1,1059.9c-0.3,0.1-0.5,0.2-0.8,0.3c-2.6,0.8-7.5,0.4-9.7-0.8c-0.2,1-0.3,2-0.3,3
		c1.8,1.6,8.7,2,10.8,0.6c0.1-0.6,0.1-1.1,0.1-1.7C722.2,1060.8,722.1,1060.3,722.1,1059.9L722.1,1059.9z"/>
	<path id="Path_48533" class="st1" d="M723.2,1060.9c0,0.6,0,1.2-0.1,1.8c-0.1,0.7-0.2,1.4-0.4,2c1,1.3,2.5,2,4.1,2
		c1.6-0.1,3.1-1,3.9-2.5c-1.1,0-2.2-0.2-3.2-0.8L723.2,1060.9z"/>
	<path id="Path_48534" class="st1" d="M712.9,1055.6c-0.4,0.9-0.8,1.8-1,2.7c2,1.3,7.8,1.6,10,0.6l0,0c-0.2-1-0.4-1.9-0.7-2.8
		C718.6,1054.9,715.6,1054.7,712.9,1055.6z"/>
	<path id="Path_48535" class="st1" d="M705.4,1061.4l5.3-2.3c0.1-0.3,0.2-0.8,0.2-0.8l-7.9-0.4c-0.3,0-0.5-0.3-0.5-0.5
		c0-0.3,0.2-0.5,0.5-0.5l8.2,0.4c0.1-0.3,0.2-0.5,0.3-0.8l-4.7-2.9c-3.3-2.1-7.8-0.8-8,3.6C698.4,1060,701.6,1063,705.4,1061.4
		L705.4,1061.4z"/>
	<path id="Path_48536" class="st1" d="M732,1054.2c-1.5-0.5-3.1-0.3-4.5,0.4l-4.9,2.4c0.1,0.2,0.1,0.5,0.2,0.8l8.2,0.4
		c0.3,0,0.5,0.3,0.5,0.5c0,0.3-0.2,0.5-0.5,0.5l-7.9-0.4c0,0.3,0.1,0.6,0.1,0.9l5,2.8c3.6,2,7-0.7,7-3.5
		C735.1,1056.5,734.1,1054.9,732,1054.2L732,1054.2z"/>
</g>
</svg>
