<?xml version="1.0" encoding="utf-8"?>
<!-- Generator: Adobe Illustrator 19.0.0, SVG Export Plug-In . SVG Version: 6.00 Build 0)  -->
<svg version="1.1" id="Layer_1" xmlns="http://www.w3.org/2000/svg" xmlns:xlink="http://www.w3.org/1999/xlink" x="0px" y="0px"
	 viewBox="-270 366.8 69.2 60.2" style="enable-background:new -270 366.8 69.2 60.2;" xml:space="preserve">
<style type="text/css">
	.st0{fill:#EDF2F4;}
	.st1{fill:#6DA2AA;}
	.st2{fill:#6DA2AA;stroke:#6DA2AA;stroke-width:0.6;}
</style>
<g id="Group_15873" transform="translate(-819.399 -253.876)">
	<path id="Polygon_37" class="st0" d="M596.6,620.6c2.9,0,5.5,1.5,6.9,4l12.7,22.1c1.4,2.5,1.4,5.5,0,8l-12.7,22.1
		c-1.4,2.5-4.1,4-6.9,4h-25.3c-2.9,0-5.5-1.5-6.9-4l-12.7-22.1c-1.4-2.5-1.4-5.5,0-8l12.7-22.1c1.4-2.5,4.1-4,6.9-4H596.6z"/>
	<g id="Group_15038" transform="translate(842.5 271)">
		<g>
			<defs>
				<rect id="SVGID_1_" x="-270" y="366.8" width="25.9" height="26.5"/>
			</defs>
			<clipPath id="SVGID_2_">
				<use xlink:href="#SVGID_1_"  style="overflow:visible;"/>
			</clipPath>
		</g>
	</g>
</g>
<g id="infographic-svgrepo-com_1_" transform="translate(-74.359 0.024)">
	<g id="Group_15937" transform="translate(74.36)">
		<g id="Group_15936">
			<path id="Rectangle_3735" class="st1" d="M-245.1,395h18.6c0.4,0,0.8,0.4,0.8,0.8l0,0c0,0.4-0.4,0.8-0.8,0.8h-18.6
				c-0.4,0-0.8-0.4-0.8-0.8l0,0C-245.9,395.4-245.6,395-245.1,395z"/>
			<path id="Rectangle_3736" class="st1" d="M-245.1,403.2h18.6c0.4,0,0.8,0.4,0.8,0.8l0,0c0,0.4-0.4,0.8-0.8,0.8h-18.6
				c-0.4,0-0.8-0.4-0.8-0.8l0,0C-245.9,403.5-245.6,403.2-245.1,403.2z"/>
			<path id="Rectangle_3737" class="st1" d="M-245.1,407.3h18.6c0.4,0,0.8,0.4,0.8,0.8l0,0c0,0.4-0.4,0.8-0.8,0.8h-18.6
				c-0.4,0-0.8-0.4-0.8-0.8l0,0C-245.9,407.6-245.6,407.3-245.1,407.3z"/>
			<path id="Rectangle_3738" class="st1" d="M-245.1,386.8h6c0.4,0,0.8,0.4,0.8,0.8l0,0c0,0.4-0.4,0.8-0.8,0.8h-6
				c-0.4,0-0.8-0.4-0.8-0.8l0,0C-245.9,387.2-245.5,386.8-245.1,386.8z"/>
			<path id="Rectangle_3742" class="st1" d="M-245.1,390.9h6c0.4,0,0.8,0.4,0.8,0.8l0,0c0,0.4-0.4,0.8-0.8,0.8h-6
				c-0.4,0-0.8-0.4-0.8-0.8l0,0C-245.9,391.3-245.5,390.9-245.1,390.9z"/>
			<path id="Rectangle_3741" class="st1" d="M-245.1,382.7h6c0.4,0,0.8,0.4,0.8,0.8l0,0c0,0.4-0.4,0.8-0.8,0.8h-6
				c-0.4,0-0.8-0.4-0.8-0.8l0,0C-245.9,383.1-245.5,382.7-245.1,382.7z"/>
			<path id="Rectangle_3739" class="st1" d="M-245.1,399.1h18.6c0.4,0,0.8,0.4,0.8,0.8l0,0c0,0.4-0.4,0.8-0.8,0.8h-18.6
				c-0.4,0-0.8-0.4-0.8-0.8l0,0C-245.9,399.5-245.6,399.1-245.1,399.1z"/>
			<path id="Path_48518" class="st2" d="M-231.1,389.5c0-0.3-0.1-0.6-0.3-0.8l1.3-1.5c0.3,0.1,0.7,0.1,1,0l1.4,1.6
				c-0.2,0.2-0.3,0.5-0.3,0.8c0,0.7,0.5,1.2,1.2,1.2c0.7,0,1.2-0.5,1.2-1.2c0-0.7-0.5-1.2-1.2-1.2c-0.2,0-0.4,0-0.5,0.1l-1.4-1.6
				c0.2-0.2,0.3-0.5,0.3-0.8c0-0.7-0.5-1.2-1.2-1.2c-0.7,0-1.2,0.5-1.2,1.2c0,0.3,0.1,0.6,0.3,0.8l-1.3,1.5c-0.3-0.1-0.7-0.1-1,0
				l-1.4-1.6c0.2-0.2,0.3-0.5,0.3-0.8c0-0.7-0.5-1.2-1.2-1.2s-1.2,0.5-1.2,1.2c0,0.7,0.6,1.2,1.2,1.2c0.2,0,0.3,0,0.5-0.1l1.4,1.6
				c-0.2,0.2-0.3,0.5-0.3,0.8c0,0.7,0.5,1.2,1.2,1.2C-231.6,390.7-231.1,390.2-231.1,389.5L-231.1,389.5z M-226.2,389.5
				c0,0.4-0.3,0.7-0.7,0.7c-0.4,0-0.7-0.3-0.7-0.7c0-0.4,0.3-0.7,0.7-0.7c0,0,0,0,0,0C-226.5,388.8-226.2,389.1-226.2,389.5z
				 M-229.7,385.4c0.4,0,0.7,0.3,0.7,0.7c0,0.4-0.3,0.7-0.7,0.7c-0.4,0-0.7-0.3-0.7-0.7C-230.4,385.8-230.1,385.4-229.7,385.4z
				 M-235.8,386.2c0-0.4,0.3-0.7,0.7-0.7c0.4,0,0.7,0.3,0.7,0.7c0,0.4-0.3,0.7-0.7,0.7C-235.5,386.8-235.8,386.5-235.8,386.2z
				 M-232.3,390.3c-0.4,0-0.7-0.3-0.7-0.7s0.3-0.7,0.7-0.7c0.4,0,0.7,0.3,0.7,0.7C-231.6,389.9-231.9,390.3-232.3,390.3
				L-232.3,390.3z"/>
		</g>
	</g>
</g>
</svg>
