<svg id="Group_15876" data-name="Group 15876" xmlns="http://www.w3.org/2000/svg" width="69.173" height="60.249" viewBox="0 0 69.173 60.249">
  <path id="Polygon_34" data-name="Polygon 34" d="M47.248,0a8,8,0,0,1,6.938,4.017l12.7,22.124a8,8,0,0,1,0,7.966l-12.7,22.124a8,8,0,0,1-6.938,4.017H21.925a8,8,0,0,1-6.938-4.017L2.286,34.107a8,8,0,0,1,0-7.966l12.7-22.124A8,8,0,0,1,21.925,0Z" fill="#edf2f4"/>
  <g id="Group_15041" data-name="Group 15041" transform="translate(-214.827 -116.767)">
    <path id="Polygon_39" data-name="Polygon 39" d="M9.465,0l3.155,5.5-3.155,5.5H3.155L0,5.5,3.155,0Z" transform="translate(232.531 141.305)" fill="#6da2aa"/>
    <path id="Polygon_42" data-name="Polygon 42" d="M9.465,0l3.155,5.5-3.155,5.5H3.155L0,5.5,3.155,0Z" transform="translate(254.234 141.305)" fill="#6da2aa"/>
    <path id="Polygon_40" data-name="Polygon 40" d="M9.465,0l3.155,5.5-3.155,5.5H3.155L0,5.5,3.155,0Z" transform="translate(243.383 148.165)" fill="#6da2aa"/>
    <path id="Polygon_41" data-name="Polygon 41" d="M9.465,0l3.155,5.5-3.155,5.5H3.155L0,5.5,3.155,0Z" transform="translate(243.383 134.627)" fill="#6da2aa"/>
  </g>
</svg>
