<svg xmlns="http://www.w3.org/2000/svg" width="100.173" height="87.249" viewBox="0 0 100.173 87.249">
  <g id="Group_15880" data-name="Group 15880" transform="translate(-804 -333.751)">
    <path id="Polygon_46" data-name="Polygon 46" d="M70.5,0a8,8,0,0,1,6.938,4.017L97.887,39.641a8,8,0,0,1,0,7.966L77.436,83.232A8,8,0,0,1,70.5,87.249H29.675a8,8,0,0,1-6.938-4.017L2.286,47.607a8,8,0,0,1,0-7.966L22.737,4.017A8,8,0,0,1,29.675,0Z" transform="translate(804 333.751)" fill="#edf2f4"/>
    <g id="Group_14505" data-name="Group 14505" transform="translate(836.465 354.404)">
      <g id="Group_1779" data-name="Group 1779" transform="translate(-0.464 0)">
        <rect id="Rectangle_3350" data-name="Rectangle 3350" width="35.138" height="2.584" rx="1.292" transform="translate(0.308 6.718)" fill="#6da2aa"/>
        <rect id="Rectangle_3355" data-name="Rectangle 3355" width="16" height="3" rx="1.5" transform="translate(18.999 12.596)" fill="#6da2aa"/>
        <rect id="Rectangle_3356" data-name="Rectangle 3356" width="16" height="3" rx="1.5" transform="translate(18.999 19.596)" fill="#6da2aa"/>
        <rect id="Rectangle_3351" data-name="Rectangle 3351" width="35.138" height="2.584" rx="1.292" transform="translate(0.308 0)" fill="#6da2aa"/>
        <rect id="Rectangle_3353" data-name="Rectangle 3353" width="17" height="33" rx="3" transform="translate(-0.001 12.596)" fill="#6da2aa"/>
        <rect id="Rectangle_3354" data-name="Rectangle 3354" width="16" height="18" rx="3" transform="translate(18.999 27.596)" fill="#6da2aa"/>
      </g>
    </g>
  </g>
</svg>
