<svg xmlns="http://www.w3.org/2000/svg" xmlns:xlink="http://www.w3.org/1999/xlink" width="69.173" height="60.249" viewBox="0 0 69.173 60.249">
  <defs>
    <clipPath id="clip-path">
      <rect id="Rectangle_3678" data-name="Rectangle 3678" width="25.938" height="26.487" fill="#6da2aa"/>
    </clipPath>
  </defs>
  <g id="Group_15873" data-name="Group 15873" transform="translate(-819.399 -253.876)">
    <path id="Polygon_37" data-name="Polygon 37" d="M47.248,0a8,8,0,0,1,6.938,4.017l12.7,22.124a8,8,0,0,1,0,7.966l-12.7,22.124a8,8,0,0,1-6.938,4.017H21.925a8,8,0,0,1-6.938-4.017L2.286,34.107a8,8,0,0,1,0-7.966l12.7-22.124A8,8,0,0,1,21.925,0Z" transform="translate(819.399 253.876)" fill="#edf2f4"/>
    <g id="Group_15038" data-name="Group 15038" transform="translate(842.5 271)">
      <g id="Group_15037" data-name="Group 15037" transform="translate(0 0)" clip-path="url(#clip-path)">
        <path id="Path_48481" data-name="Path 48481" d="M9.89,2.15V13.635a3.16,3.16,0,1,1-6.32,0V2.15Z" transform="translate(16.048 9.665)" fill="#6da2aa"/>
        <path id="Path_48482" data-name="Path 48482" d="M6.914.36H1.035A.493.493,0,0,0,.54.855v6.32a.493.493,0,0,0,.495.495h5.88a.493.493,0,0,0,.495-.495V.855A.493.493,0,0,0,6.914.36M6.42,6.734H1.529V1.349H6.42Z" transform="translate(2.427 1.618)" fill="#6da2aa"/>
        <path id="Path_48483" data-name="Path 48483" d="M9.029,2.07H2.1a.493.493,0,0,0-.495.495v5.55a.449.449,0,0,0,.495.44H9.029a.449.449,0,0,0,.495-.44V2.565a.493.493,0,0,0-.495-.495M8.534,7.62H2.6V3.059H8.534Z" transform="translate(7.237 9.305)" fill="#6da2aa"/>
        <path id="Path_48484" data-name="Path 48484" d="M14.827,3.5H.815a.493.493,0,0,0-.495.495V6.248A2.674,2.674,0,0,0,2.958,8.885h11.87a.493.493,0,0,0,.495-.495v-4.4a.493.493,0,0,0-.495-.495m-.495,4.4H2.958A1.653,1.653,0,0,1,1.309,6.248V4.489H14.333Z" transform="translate(1.438 15.733)" fill="#6da2aa"/>
        <path id="Path_48485" data-name="Path 48485" d="M18.629,23.3V0H0V23.3a3.178,3.178,0,0,0,3.132,3.187H20.168A3.986,3.986,0,0,1,18.629,23.3M2.967,2.473a.493.493,0,0,1,.495-.495h5.88a.493.493,0,0,1,.495.495v6.32a.493.493,0,0,1-.495.495H3.462a.493.493,0,0,1-.495-.495Zm-.495,8.9H6.649a.495.495,0,0,1,0,.989H2.473a.495.495,0,0,1,0-.989m0,2.528H6.649a.495.495,0,0,1,0,.989H2.473a.495.495,0,0,1,0-.989m0,2.583H6.649a.493.493,0,0,1,.495.495.449.449,0,0,1-.495.44H2.473a.449.449,0,0,1-.495-.44.493.493,0,0,1,.495-.495M16.76,24.124a.493.493,0,0,1-.495.495H4.4a2.674,2.674,0,0,1-2.638-2.638V19.728a.493.493,0,0,1,.495-.495H16.266a.493.493,0,0,1,.495.495Zm0-6.7a.449.449,0,0,1-.495.44H9.342a.449.449,0,0,1-.495-.44V11.87a.493.493,0,0,1,.495-.495h6.924a.493.493,0,0,1,.495.495Zm-.495-8.133H12.09a.493.493,0,0,1-.495-.495.484.484,0,0,1,.495-.44h4.176a.484.484,0,0,1,.495.44.493.493,0,0,1-.495.495m0-2.088H12.09a.495.495,0,1,1,0-.989h4.176a.495.495,0,0,1,0,.989m0-2.143H12.09a.484.484,0,0,1-.495-.44.493.493,0,0,1,.495-.495h4.176a.493.493,0,0,1,.495.495.484.484,0,0,1-.495.44m0-2.088H12.09a.495.495,0,1,1,0-.989h4.176a.495.495,0,0,1,0,.989" transform="translate(0 0)" fill="#6da2aa"/>
      </g>
    </g>
  </g>
</svg>
