<?xml version="1.0" encoding="utf-8"?>
<!-- Generator: Adobe Illustrator 19.0.0, SVG Export Plug-In . SVG Version: 6.00 Build 0)  -->
<svg version="1.1" id="Layer_1" xmlns="http://www.w3.org/2000/svg" xmlns:xlink="http://www.w3.org/1999/xlink" x="0px" y="0px"
	 viewBox="-270 366.8 69.2 60.2" style="enable-background:new -270 366.8 69.2 60.2;" xml:space="preserve">
<style type="text/css">
	.st0{fill:#EDF2F4;}
	.st1{fill:#6DA2AA;}
</style>
<g id="Group_15873" transform="translate(-819.399 -253.876)">
	<path id="Polygon_37" class="st0" d="M596.6,620.7c2.9,0,5.5,1.5,6.9,4l12.7,22.1c1.4,2.5,1.4,5.5,0,8l-12.7,22.1
		c-1.4,2.5-4.1,4-6.9,4h-25.3c-2.9,0-5.5-1.5-6.9-4l-12.7-22.1c-1.4-2.5-1.4-5.5,0-8l12.7-22.1c1.4-2.5,4.1-4,6.9-4H596.6z"/>
</g>
<g id="_1" transform="translate(-9.2 -7.08)">
	<path id="Path_48516" class="st1" d="M-238.2,414.6v-14.7l8,7.3L-238.2,414.6z M-222.7,407.2l8,7.3v-14.7L-222.7,407.2z
		 M-223.7,408.1l-2.4,2.2c-0.2,0.2-0.6,0.2-0.8,0l-2.4-2.2l-8,7.4h21.7L-223.7,408.1z M-217.7,399v1.9l2-1.9H-217.7z M-235.2,399h-2
		l2,1.9V399z M-219.5,389.4h-13.9c-0.4,0-0.6,0.3-0.6,0.6l0,0V402l7.6,7l7.6-7v-11.9C-218.9,389.7-219.2,389.4-219.5,389.4
		L-219.5,389.4L-219.5,389.4z M-222.6,402.5h-7.9c-0.4,0-0.6-0.3-0.6-0.6c0-0.4,0.3-0.6,0.6-0.6h7.9c0.4,0,0.6,0.3,0.6,0.6
		S-222.2,402.5-222.6,402.5z M-222.6,399.7h-7.9c-0.4,0-0.6-0.3-0.6-0.6s0.3-0.6,0.6-0.6l0,0h7.9c0.4,0,0.6,0.3,0.6,0.6
		C-221.9,399.4-222.2,399.7-222.6,399.7z M-222.6,396.9h-7.9c-0.4,0-0.6-0.3-0.6-0.6c0-0.4,0.3-0.6,0.6-0.6l0,0h7.9
		c0.4,0,0.6,0.3,0.6,0.6S-222.2,396.9-222.6,396.9z M-222.6,394.2h-7.9c-0.4,0-0.6-0.3-0.6-0.6s0.3-0.6,0.6-0.6l0,0h7.9
		c0.4,0,0.6,0.3,0.6,0.6C-221.9,393.9-222.2,394.2-222.6,394.2z"/>
</g>
</svg>
