<svg xmlns="http://www.w3.org/2000/svg" xmlns:xlink="http://www.w3.org/1999/xlink" width="96.667" height="87.11" viewBox="0 0 96.667 87.11">
  <defs>
    <clipPath id="clip-path">
      <path id="Path_47560" data-name="Path 47560" d="M0,0H96.667V-87.11H0Z" fill="none"/>
    </clipPath>
  </defs>
  <g id="Group_14813" data-name="Group 14813" transform="translate(0 87.11)">
    <g id="Group_14812" data-name="Group 14812" clip-path="url(#clip-path)">
      <g id="Group_14801" data-name="Group 14801" transform="translate(76.825 -81.316)">
        <path id="Path_47549" data-name="Path 47549" d="M0,0A12.8,12.8,0,0,0-10.035-5.794H-46.948A12.806,12.806,0,0,0-56.983,0L-75.439,31.968a12.8,12.8,0,0,0,0,11.587l18.456,31.968a12.805,12.805,0,0,0,10.035,5.793h36.913A12.8,12.8,0,0,0,0,75.523L18.457,43.555a12.808,12.808,0,0,0,0-11.587Z" fill="#ecb037"/>
      </g>
      <g id="Group_14802" data-name="Group 14802" transform="translate(62.039 -50.368)">
        <path id="Path_47550" data-name="Path 47550" d="M0,0A6.813,6.813,0,0,0-6.813,6.813,6.813,6.813,0,0,0,0,13.627,6.813,6.813,0,0,0,6.813,6.813,6.82,6.82,0,0,0,0,0M0,12.063a5.25,5.25,0,0,1-5.25-5.25A5.25,5.25,0,0,1,0,1.564,5.25,5.25,0,0,1,5.25,6.813,5.256,5.256,0,0,1,0,12.063" fill="#fff"/>
      </g>
      <g id="Group_14803" data-name="Group 14803" transform="translate(58.961 -25.237)">
        <path id="Path_47551" data-name="Path 47551" d="M0,0H-24.8a.782.782,0,0,0-.782.782.782.782,0,0,0,.782.782H0A.782.782,0,0,0,0,0" fill="#fff"/>
      </g>
      <g id="Group_14804" data-name="Group 14804" transform="translate(40.364 -61.873)">
        <path id="Path_47552" data-name="Path 47552" d="M0,0H12.4a.782.782,0,0,0,.782-.782.782.782,0,0,0-.782-.782H0a.782.782,0,0,0-.782.782A.782.782,0,0,0,0,0" fill="#fff"/>
      </g>
      <g id="Group_14805" data-name="Group 14805" transform="translate(34.165 -42.773)">
        <path id="Path_47553" data-name="Path 47553" d="M0,0H15.141a.782.782,0,0,0,.782-.782.782.782,0,0,0-.782-.782H0a.782.782,0,0,0-.782.782A.782.782,0,0,0,0,0" fill="#fff"/>
      </g>
      <g id="Group_14806" data-name="Group 14806" transform="translate(34.165 -49.14)">
        <path id="Path_47554" data-name="Path 47554" d="M0,0H16.843a.782.782,0,0,0,.782-.782.782.782,0,0,0-.782-.782H0a.782.782,0,0,0-.782.782A.782.782,0,0,0,0,0" fill="#fff"/>
      </g>
      <g id="Group_14807" data-name="Group 14807" transform="translate(34.165 -55.506)">
        <path id="Path_47555" data-name="Path 47555" d="M0,0H24.8a.782.782,0,0,0,.782-.782.782.782,0,0,0-.782-.782H0a.782.782,0,0,0-.782.782A.782.782,0,0,0,0,0" fill="#fff"/>
      </g>
      <g id="Group_14808" data-name="Group 14808" transform="translate(78.956 -30.587)">
        <path id="Path_47556" data-name="Path 47556" d="M0,0-5.371-5.37a1.9,1.9,0,0,0-2.684,0h0l-.079.079L-9.52-6.676a9.7,9.7,0,0,0-1.086-13.681,9.736,9.736,0,0,0-2.241-1.432V-38.434a.782.782,0,0,0-.782-.782H-51.158a.782.782,0,0,0-.782.782V12.5a.782.782,0,0,0,.782.782h37.529a.782.782,0,0,0,.782-.782V-4.147a9.738,9.738,0,0,0,2.221-1.424l1.385,1.385-.079.079a1.9,1.9,0,0,0,0,2.684h0l5.371,5.371a1.9,1.9,0,0,0,2.686,0L0,2.686A1.9,1.9,0,0,0,0,0H0M-14.411,11.716H-50.376V-37.652h35.965v15.3a9.717,9.717,0,0,0-11.9,6.88,9.717,9.717,0,0,0,6.88,11.9,9.717,9.717,0,0,0,5.016,0Zm-2.506-16.53a8.154,8.154,0,0,1-8.154-8.154,8.154,8.154,0,0,1,8.154-8.154,8.154,8.154,0,0,1,8.153,8.154,8.162,8.162,0,0,1-8.153,8.154M-1.106,1.579h0L-2.37,2.843a.335.335,0,0,1-.474,0l-5.37-5.37a.337.337,0,0,1,0-.474L-6.95-4.265a.337.337,0,0,1,.474,0l5.37,5.37a.335.335,0,0,1,0,.473A0,0,0,0,1-1.106,1.579Z" fill="#fff"/>
      </g>
      <g id="Group_14809" data-name="Group 14809" transform="translate(37.292 -33.502)">
        <path id="Path_47557" data-name="Path 47557" d="M0,0A.782.782,0,0,0-.782.782V5.92A.782.782,0,0,0,0,6.7H3.574a.782.782,0,0,0,.782-.782V.782A.782.782,0,0,0,3.574,0ZM2.792,5.138H.782V1.564h2.01Z" fill="#fff"/>
      </g>
      <g id="Group_14810" data-name="Group 14810" transform="translate(51.477 -32.721)">
        <path id="Path_47558" data-name="Path 47558" d="M0,0V5.138a.782.782,0,0,0,.782.782H4.356a.782.782,0,0,0,.782-.782V0a.782.782,0,0,0-.782-.782H.782A.782.782,0,0,0,0,0M1.564.782h2.01V4.356H1.564Z" fill="#fff"/>
      </g>
      <g id="Group_14811" data-name="Group 14811" transform="translate(44.776 -37.97)">
        <path id="Path_47559" data-name="Path 47559" d="M0,0A.782.782,0,0,0-.782.782v9.606A.782.782,0,0,0,0,11.169H3.574a.782.782,0,0,0,.782-.781V.782A.782.782,0,0,0,3.574,0ZM2.792,9.606H.782V1.564h2.01Z" fill="#fff"/>
      </g>
    </g>
  </g>
</svg>
