<svg xmlns="http://www.w3.org/2000/svg" xmlns:xlink="http://www.w3.org/1999/xlink" width="96.667" height="87.11" viewBox="0 0 96.667 87.11">
  <defs>
    <clipPath id="clip-path">
      <path id="Path_47583" data-name="Path 47583" d="M0,0H96.667V-87.11H0Z" fill="none"/>
    </clipPath>
  </defs>
  <g id="Group_14838" data-name="Group 14838" transform="translate(0 87.11)">
    <g id="Group_14837" data-name="Group 14837" clip-path="url(#clip-path)">
      <g id="Group_14829" data-name="Group 14829" transform="translate(76.825 -81.316)">
        <path id="Path_47575" data-name="Path 47575" d="M0,0A12.8,12.8,0,0,0-10.035-5.794H-46.948A12.806,12.806,0,0,0-56.983,0L-75.439,31.968a12.8,12.8,0,0,0,0,11.587l18.456,31.968a12.805,12.805,0,0,0,10.035,5.793h36.913A12.8,12.8,0,0,0,0,75.523L18.457,43.555a12.808,12.808,0,0,0,0-11.587Z" fill="#ecb037"/>
      </g>
      <g id="Group_14830" data-name="Group 14830" transform="translate(30.935 -22.996)">
        <path id="Path_47576" data-name="Path 47576" d="M0,0A.864.864,0,0,0,.864-.865v-20.3A.864.864,0,0,0,0-22.029a.865.865,0,0,0-.865.865v20.3A.865.865,0,0,0,0,0" fill="#fff"/>
      </g>
      <g id="Group_14831" data-name="Group 14831" transform="translate(54.764 -67.095)">
        <path id="Path_47577" data-name="Path 47577" d="M0,0A1.761,1.761,0,0,1,3.522,0,1.763,1.763,0,0,1,1.761,1.761,1.763,1.763,0,0,1,0,0M5.251,0a3.494,3.494,0,0,0-3.49-3.49A3.494,3.494,0,0,0-1.729,0a3.494,3.494,0,0,0,3.49,3.49A3.494,3.494,0,0,0,5.251,0" fill="#fff"/>
      </g>
      <g id="Group_14832" data-name="Group 14832" transform="translate(63.487 -63.793)">
        <path id="Path_47578" data-name="Path 47578" d="M0,0A1.761,1.761,0,0,1,3.522,0,1.763,1.763,0,0,1,1.761,1.761,1.763,1.763,0,0,1,0,0M5.251,0a3.49,3.49,0,1,0-6.98,0,3.494,3.494,0,0,0,3.49,3.49A3.494,3.494,0,0,0,5.251,0" fill="#fff"/>
      </g>
      <g id="Group_14833" data-name="Group 14833" transform="translate(73.717 -59.406)">
        <path id="Path_47579" data-name="Path 47579" d="M0,0A1.763,1.763,0,0,1-1.761-1.761,1.763,1.763,0,0,1,0-3.522,1.763,1.763,0,0,1,1.761-1.761,1.763,1.763,0,0,1,0,0M0-5.251a3.494,3.494,0,0,0-3.49,3.49A3.494,3.494,0,0,0,0,1.729a3.494,3.494,0,0,0,3.49-3.49A3.494,3.494,0,0,0,0-5.251" fill="#fff"/>
      </g>
      <g id="Group_14834" data-name="Group 14834" transform="translate(58.049 -60.303)">
        <path id="Path_47580" data-name="Path 47580" d="M0,0A1.763,1.763,0,0,1,1.761,1.761,1.763,1.763,0,0,1,0,3.522,1.761,1.761,0,0,1,0,0M0,5.251a3.494,3.494,0,0,0,3.49-3.49A3.494,3.494,0,0,0,0-1.729a3.49,3.49,0,1,0,0,6.98" fill="#fff"/>
      </g>
      <g id="Group_14835" data-name="Group 14835" transform="translate(34.438 -23.377)">
        <path id="Path_47581" data-name="Path 47581" d="M0,0H21.815V6.063H0ZM21.815-17.4H0v-.973A10.923,10.923,0,0,1,9.494-29.186h0a11.038,11.038,0,0,1,2.825,0h0a10.935,10.935,0,0,1,6.3,3.1,10.835,10.835,0,0,1,3.194,7.713ZM7.495-37.217v-4.4a1.258,1.258,0,0,1,1.257-1.256h4.4A1.258,1.258,0,0,1,14.4-41.763H12.432a2.392,2.392,0,0,0-2.389,2.39,2.379,2.379,0,0,0,.7,1.69,2.379,2.379,0,0,0,1.689.7h1.952a1.26,1.26,0,0,1-1.236,1.024h-.716a.864.864,0,0,0-.864.864v4.107c-.22-.011-.441-.017-.661-.017s-.439.006-.659.017V-35.1a.864.864,0,0,0-.865-.864H8.752a1.258,1.258,0,0,1-1.257-1.256M-.017,7.792h21.85A1.713,1.713,0,0,0,23.544,6.08V-18.37a12.556,12.556,0,0,0-3.7-8.936A12.7,12.7,0,0,0,13.3-30.78v-3.456a2.989,2.989,0,0,0,2.837-2.981v-.632a.864.864,0,0,0-.864-.865H12.432a.657.657,0,0,1-.466-.192.657.657,0,0,1-.194-.467.662.662,0,0,1,.66-.661H15.27a.864.864,0,0,0,.864-.864v-.717A2.989,2.989,0,0,0,13.148-44.6h-4.4a2.989,2.989,0,0,0-2.986,2.985v4.4a2.99,2.99,0,0,0,2.753,2.976v3.461A12.662,12.662,0,0,0-1.729-18.37v1.837a.865.865,0,0,0,.865.865H21.815V-1.729H-.864a.865.865,0,0,0-.865.865V6.08A1.714,1.714,0,0,0-.017,7.792" fill="#fff"/>
      </g>
      <g id="Group_14836" data-name="Group 14836" transform="translate(42.114 -32.094)">
        <path id="Path_47582" data-name="Path 47582" d="M0,0A3.256,3.256,0,0,1,3.252-3.252,3.256,3.256,0,0,1,6.505,0,3.256,3.256,0,0,1,3.252,3.252,3.256,3.256,0,0,1,0,0M8.234,0A4.987,4.987,0,0,0,3.252-4.981,4.987,4.987,0,0,0-1.729,0,4.987,4.987,0,0,0,3.252,4.981,4.987,4.987,0,0,0,8.234,0" fill="#fff"/>
      </g>
    </g>
  </g>
</svg>
