<svg xmlns="http://www.w3.org/2000/svg" xmlns:xlink="http://www.w3.org/1999/xlink" width="96.667" height="87.11" viewBox="0 0 96.667 87.11">
  <defs>
    <clipPath id="clip-path">
      <path id="Path_47588" data-name="Path 47588" d="M0,0H96.667V-87.11H0Z" fill="none"/>
    </clipPath>
  </defs>
  <g id="Group_14844" data-name="Group 14844" transform="translate(0 87.11)">
    <g id="Group_14843" data-name="Group 14843" clip-path="url(#clip-path)">
      <g id="Group_14839" data-name="Group 14839" transform="translate(76.825 -81.316)">
        <path id="Path_47584" data-name="Path 47584" d="M0,0A12.8,12.8,0,0,0-10.035-5.794H-46.948A12.806,12.806,0,0,0-56.983,0L-75.439,31.968a12.8,12.8,0,0,0,0,11.587l18.456,31.968a12.805,12.805,0,0,0,10.035,5.793h36.913A12.8,12.8,0,0,0,0,75.523L18.457,43.555a12.808,12.808,0,0,0,0-11.587Z" fill="#ecb037"/>
      </g>
      <g id="Group_14840" data-name="Group 14840" transform="translate(73.028 -31.233)">
        <path id="Path_47585" data-name="Path 47585" d="M0,0V-22.55A.749.749,0,0,0-.748-23.3H-5.715a.748.748,0,0,0-.748.749V-.721H-10.73V-15.1a.749.749,0,0,0-.748-.749h-4.967a.749.749,0,0,0-.749.749V-.721h-4.267V-17.935a.748.748,0,0,0-.748-.749h-4.967a.749.749,0,0,0-.749.749V-.721h-4.267V-9.108a.748.748,0,0,0-.749-.748h-4.967a.747.747,0,0,0-.748.748V-.721h-4.267V-11.39a.75.75,0,0,0-.749-.749h-4.966a.748.748,0,0,0-.748.749V0c0,.009-.006.018-.006.027V2.271A3.748,3.748,0,0,0-45.65,6.014h14.22V10.5h-5.118a.749.749,0,0,0-.749.75.75.75,0,0,0,.749.749h23.7a.749.749,0,0,0,.748-.749.749.749,0,0,0-.748-.75H-17.96V6.014H-3.741A3.747,3.747,0,0,0,0,2.271V.026C0,.017,0,.009,0,0M-4.966-21.8H-1.5V-.723h-3.47ZM-15.7-14.348h3.47V-.721H-15.7Zm-10.73-2.837h3.47V-.721h-3.47ZM-37.157-8.36h3.47V-.721h-3.47Zm-10.729-2.282h3.47V-.721h-3.47ZM-19.453,10.5H-29.931V6.013h10.478ZM-1.491,2.271A2.248,2.248,0,0,1-3.736,4.516h-41.91a2.247,2.247,0,0,1-2.245-2.245V.775h46.4v1.5Z" fill="#fff"/>
      </g>
      <g id="Group_14841" data-name="Group 14841" transform="translate(24.388 -59.654)">
        <path id="Path_47586" data-name="Path 47586" d="M0,0A.747.747,0,0,0,.748-.748v-3.8A2.218,2.218,0,0,1,2.994-6.727H34.42a.75.75,0,0,0,.749-.749.748.748,0,0,0-.749-.748H2.994A3.715,3.715,0,0,0-.749-4.544v3.8A.748.748,0,0,0,0,0" fill="#fff"/>
      </g>
      <g id="Group_14842" data-name="Group 14842" transform="translate(65.286 -64.084)">
        <path id="Path_47587" data-name="Path 47587" d="M0,0-7.1,5.45-17.452,1.84a.752.752,0,0,0-.749.153l-10.447,9.474L-40.739,8.936a.748.748,0,0,0-.625.151.751.751,0,0,0-.277.581V14a.747.747,0,0,0,.595.733L-27.833,17.5a.814.814,0,0,0,.154.016.747.747,0,0,0,.5-.194l10.4-9.432,10.311,3.6a.75.75,0,0,0,.7-.113l9.7-7.44L6.464,6.465a.749.749,0,0,0,1.279-.529V-3.047A.749.749,0,0,0,6.994-3.8H-1.987a.749.749,0,0,0-.692.461.749.749,0,0,0,.163.816ZM6.246-2.3V4.13L4.528,2.411a.752.752,0,0,0-.985-.065l-9.9,7.6L-16.7,6.332a.748.748,0,0,0-.749.151L-27.9,15.958-40.144,13.4V10.589l11.562,2.42a.747.747,0,0,0,.657-.178l10.4-9.432L-7.214,7a.751.751,0,0,0,.7-.113L1.589.668A.748.748,0,0,0,1.88.122a.748.748,0,0,0-.217-.577L-.18-2.3H6.246Z" fill="#fff"/>
      </g>
    </g>
  </g>
</svg>
