<svg xmlns="http://www.w3.org/2000/svg" xmlns:xlink="http://www.w3.org/1999/xlink" width="96.667" height="87.11" viewBox="0 0 96.667 87.11">
  <defs>
    <clipPath id="clip-path">
      <path id="Path_47598" data-name="Path 47598" d="M0,0H96.667V-87.11H0Z" fill="none"/>
    </clipPath>
  </defs>
  <g id="Group_14855" data-name="Group 14855" transform="translate(0 87.11)">
    <g id="Group_14854" data-name="Group 14854" clip-path="url(#clip-path)">
      <g id="Group_14845" data-name="Group 14845" transform="translate(76.825 -81.316)">
        <path id="Path_47589" data-name="Path 47589" d="M0,0A12.8,12.8,0,0,0-10.035-5.794H-46.948A12.806,12.806,0,0,0-56.983,0L-75.439,31.968a12.8,12.8,0,0,0,0,11.587l18.456,31.968a12.805,12.805,0,0,0,10.035,5.793h36.913A12.8,12.8,0,0,0,0,75.523L18.457,43.555a12.808,12.808,0,0,0,0-11.587Z" fill="#ecb037"/>
      </g>
      <g id="Group_14846" data-name="Group 14846" transform="translate(71.476 -66.144)">
        <path id="Path_47590" data-name="Path 47590" d="M0,0H-45.614A3.15,3.15,0,0,0-48.76,3.146V39.239a3.15,3.15,0,0,0,3.146,3.146H-29.5l-1.685,3.932h-4.069a.786.786,0,0,0-.786.786.787.787,0,0,0,.786.787h24.9a.787.787,0,0,0,.787-.787.786.786,0,0,0-.787-.786h-4.069l-1.685-3.932H0a3.15,3.15,0,0,0,3.146-3.146V3.146A3.149,3.149,0,0,0,0,0M-47.187,3.146a1.575,1.575,0,0,1,1.573-1.574H0A1.575,1.575,0,0,1,1.573,3.146v32.16h-48.76Zm31.052,43.171H-29.479l1.686-3.932h9.973ZM1.573,39.239A1.574,1.574,0,0,1,0,40.811H-45.614a1.574,1.574,0,0,1-1.573-1.572V36.88H1.573Z" fill="#fff"/>
      </g>
      <g id="Group_14847" data-name="Group 14847" transform="translate(66.181 -41.015)">
        <path id="Path_47591" data-name="Path 47591" d="M0,0A3.344,3.344,0,0,0-3.34,3.34,3.344,3.344,0,0,0,0,6.679,3.343,3.343,0,0,0,3.34,3.34,3.343,3.343,0,0,0,0,0M0,5.107A1.768,1.768,0,0,1-1.767,3.34,1.769,1.769,0,0,1,0,1.572,1.769,1.769,0,0,1,1.767,3.34,1.768,1.768,0,0,1,0,5.107" fill="#fff"/>
      </g>
      <g id="Group_14848" data-name="Group 14848" transform="translate(56.231 -46.732)">
        <path id="Path_47592" data-name="Path 47592" d="M0,0A3.339,3.339,0,0,0,3.237-2.553H9.164V1.933H7.989l1.961,3.4,1.96-3.4H10.737V-3.34a.787.787,0,0,0-.787-.786H3.237A3.338,3.338,0,0,0,0-6.679,3.343,3.343,0,0,0-3.34-3.34,3.343,3.343,0,0,0,0,0M0-5.108A1.769,1.769,0,0,1,1.767-3.34,1.769,1.769,0,0,1,0-1.572,1.77,1.77,0,0,1-1.767-3.34,1.77,1.77,0,0,1,0-5.108" fill="#fff"/>
      </g>
      <g id="Group_14849" data-name="Group 14849" transform="translate(44.178 -44.24)">
        <path id="Path_47593" data-name="Path 47593" d="M0,0H-1.18a.786.786,0,0,0-.786.786.786.786,0,0,0,.786.786H0A.786.786,0,0,0,.786.786.786.786,0,0,0,0,0" fill="#fff"/>
      </g>
      <g id="Group_14850" data-name="Group 14850" transform="translate(39.853 -44.24)">
        <path id="Path_47594" data-name="Path 47594" d="M0,0H-1.18a.786.786,0,0,0-.786.786.786.786,0,0,0,.786.786H0A.786.786,0,0,0,.786.786.786.786,0,0,0,0,0" fill="#fff"/>
      </g>
      <g id="Group_14851" data-name="Group 14851" transform="translate(59.057 -38.461)">
        <path id="Path_47595" data-name="Path 47595" d="M0,0H-4.449L-10-5.549a.777.777,0,0,0-.256-.169.781.781,0,0,0-.3-.061h-1.18a.787.787,0,0,0-.787.786.788.788,0,0,0,.787.787h.854l5.548,5.549a.789.789,0,0,0,.556.229H0V2.747L3.395.787,0-1.174Z" fill="#fff"/>
      </g>
      <g id="Group_14852" data-name="Group 14852" transform="translate(38.504 -58.42)">
        <path id="Path_47596" data-name="Path 47596" d="M0,0H-2.954A.783.783,0,0,0-3.51.231L-7.9,4.623a.787.787,0,0,0-.231.557v6.549a3.339,3.339,0,0,0-2.553,3.237,3.344,3.344,0,0,0,3.34,3.34A3.341,3.341,0,0,0-4.11,15.753h1.133a.788.788,0,0,0,.787-.787.787.787,0,0,0-.787-.786H-4.11a3.341,3.341,0,0,0-2.451-2.451V5.5l3.932-3.932H0V2.747L3.395.787,0-1.174ZM-5.58,14.966a1.77,1.77,0,0,1-1.767,1.768,1.769,1.769,0,0,1-1.767-1.768A1.769,1.769,0,0,1-7.347,13.2,1.77,1.77,0,0,1-5.58,14.966" fill="#fff"/>
      </g>
      <g id="Group_14853" data-name="Group 14853" transform="translate(49.106 -48.111)">
        <path id="Path_47597" data-name="Path 47597" d="M0,0,3.4-1.961,0-3.922v1.175H-2.691V-6.386A3.339,3.339,0,0,0-.138-9.622a3.344,3.344,0,0,0-3.34-3.341,3.345,3.345,0,0,0-3.34,3.341A3.339,3.339,0,0,0-4.264-6.386v4.425a.787.787,0,0,0,.786.787H0ZM-5.245-9.622a1.768,1.768,0,0,1,1.767-1.767A1.768,1.768,0,0,1-1.711-9.622,1.768,1.768,0,0,1-3.478-7.856,1.768,1.768,0,0,1-5.245-9.622" fill="#fff"/>
      </g>
    </g>
  </g>
</svg>
