<svg xmlns="http://www.w3.org/2000/svg" xmlns:xlink="http://www.w3.org/1999/xlink" width="69.173" height="60.249" viewBox="0 0 69.173 60.249">
  <defs>
    <clipPath id="clip-path">
      <rect id="Rectangle_3681" data-name="Rectangle 3681" width="23.953" height="31.184" fill="#6da2aa"/>
    </clipPath>
  </defs>
  <g id="Group_15872" data-name="Group 15872" transform="translate(-577.15 -253.876)">
    <path id="Polygon_36" data-name="Polygon 36" d="M47.248,0a8,8,0,0,1,6.938,4.017l12.7,22.124a8,8,0,0,1,0,7.966l-12.7,22.124a8,8,0,0,1-6.938,4.017H21.925a8,8,0,0,1-6.938-4.017L2.286,34.107a8,8,0,0,1,0-7.966l12.7-22.124A8,8,0,0,1,21.925,0Z" transform="translate(577.15 253.876)" fill="#edf2f4"/>
    <g id="Group_15046" data-name="Group 15046" transform="translate(599.76 268.408)">
      <g id="Group_15045" data-name="Group 15045" transform="translate(0 0)" clip-path="url(#clip-path)">
        <path id="Path_48489" data-name="Path 48489" d="M21.066,0H.533A.53.53,0,0,0,0,.533V28.225a.53.53,0,0,0,.533.533H21.066a.53.53,0,0,0,.533-.533V.533A.53.53,0,0,0,21.066,0M4.675,3.669H16.509a.684.684,0,0,1,.71.71.72.72,0,0,1-.71.71H4.675a.72.72,0,0,1-.71-.71.684.684,0,0,1,.71-.71m0,2.6H11.3a.71.71,0,1,1,0,1.42H4.675a.71.71,0,0,1,0-1.42m13.314,13.61c-.059,0-.118.059-.178.059s-.059-.059-.118-.059l-1.6-.828a3.336,3.336,0,0,0-.71-.237,4.638,4.638,0,0,0-.828-.3,7.009,7.009,0,0,0-3.669.178l-.414.178.118.237a.422.422,0,0,1-.178.355l-.651.178,2.249,3.728a1.38,1.38,0,0,1,.118,1.183,1.531,1.531,0,0,1-.828.888,1.3,1.3,0,0,1-.473.059,1.465,1.465,0,0,1-1.243-.651l-2.544-4.2-.592.237H6.213c-.059-.059-.059-.118-.118-.178L5.858,20a2.427,2.427,0,0,1-.651.059,2.323,2.323,0,0,1-.828-.178,2.452,2.452,0,0,1-1.065-1.124,2.28,2.28,0,0,1,.118-1.538A2.2,2.2,0,0,1,4.5,16.213l-.118-.473a.111.111,0,0,1,0-.178.127.127,0,0,1,.118-.118l3.965-1.42a.111.111,0,0,1,.178,0,.127.127,0,0,1,.118.118l.118.3.414-.178a6.7,6.7,0,0,0,2.959-2.13,5.4,5.4,0,0,0,.473-.769,1.778,1.778,0,0,0,.355-.651l.769-1.657a.3.3,0,0,1,.473,0l1.243,3.432,1.183,3.432,1.3,3.669c.059.059,0,.178-.059.3m-.651-3.965-1.183-3.432a.751.751,0,0,1,.355-.059,1.844,1.844,0,0,1,1.834,1.834,1.805,1.805,0,0,1-1.006,1.657" transform="translate(0 0.002)" fill="#6da2aa"/>
        <path id="Path_48490" data-name="Path 48490" d="M6.369,18.366a.528.528,0,0,1-.527-.527V1.46H4A.524.524,0,1,1,4,.413H6.369A.528.528,0,0,1,6.9.94v16.9a.528.528,0,0,1-.527.527" transform="translate(17.063 2.033)" fill="#6da2aa"/>
        <path id="Path_48491" data-name="Path 48491" d="M21.441,9.686H.926a.523.523,0,0,1-.521-.527V6.727a.524.524,0,1,1,1.047,0V8.632H20.914V4.9a.527.527,0,1,1,1.053,0v4.26a.528.528,0,0,1-.527.527" transform="translate(1.992 21.501)" fill="#6da2aa"/>
      </g>
    </g>
  </g>
</svg>
