<svg xmlns="http://www.w3.org/2000/svg" xmlns:xlink="http://www.w3.org/1999/xlink" width="69.173" height="60.249" viewBox="0 0 69.173 60.249">
  <defs>
    <clipPath id="clip-path">
      <rect id="Rectangle_3679" data-name="Rectangle 3679" width="26.091" height="28.61" fill="#6da2aa"/>
    </clipPath>
  </defs>
  <g id="Group_15871" data-name="Group 15871" transform="translate(-265.531 -253.876)">
    <path id="Polygon_35" data-name="Polygon 35" d="M47.248,0a8,8,0,0,1,6.938,4.017l12.7,22.124a8,8,0,0,1,0,7.966l-12.7,22.124a8,8,0,0,1-6.938,4.017H21.925a8,8,0,0,1-6.938-4.017L2.286,34.107a8,8,0,0,1,0-7.966l12.7-22.124A8,8,0,0,1,21.925,0Z" transform="translate(265.531 253.876)" fill="#edf2f4"/>
    <g id="Group_15040" data-name="Group 15040" transform="translate(287.828 269.695)">
      <g id="Group_15039" data-name="Group 15039" transform="translate(0 0)" clip-path="url(#clip-path)">
        <path id="Path_48486" data-name="Path 48486" d="M23.3,12.052,21.234,6.135,19.116.271A.408.408,0,0,0,18.736,0,.43.43,0,0,0,18.3.271L17,3.149a10.766,10.766,0,0,1-.6,1.086c-.271.434-.543.869-.869,1.3a11.2,11.2,0,0,1-5.1,3.692L9.724,9.5l-.163-.434a.361.361,0,0,0-.217-.271.346.346,0,0,0-.326,0l-6.84,2.443a.542.542,0,0,0-.271.217.346.346,0,0,0,0,.326l.271.869A3.5,3.5,0,0,0,.332,14.332a3.763,3.763,0,0,0-.163,2.66,3.523,3.523,0,0,0,1.792,1.954,3.583,3.583,0,0,0,1.466.326,3.762,3.762,0,0,0,1.086-.163l.434,1.249a.542.542,0,0,0,.217.271H5.49l1.086-.38,4.4,7.22a2.429,2.429,0,0,0,2.117,1.14A2.11,2.11,0,0,0,13.9,28.5a2.766,2.766,0,0,0,1.466-1.466,2.631,2.631,0,0,0-.217-2.117l-3.909-6.352,1.14-.38a.476.476,0,0,0,.271-.543l-.163-.434.651-.271a11.5,11.5,0,0,1,6.352-.326,14.976,14.976,0,0,1,1.466.434,11.055,11.055,0,0,1,1.194.489l2.769,1.412c.109,0,.163.054.217.054a.415.415,0,0,0,.271-.109.464.464,0,0,0,.163-.489Z" transform="translate(-0.001 0)" fill="#6da2aa"/>
        <path id="Path_48487" data-name="Path 48487" d="M7.951,4.323A2.93,2.93,0,0,1,6.159,7.092L4.1,1.174a2.643,2.643,0,0,1,.651-.054,3.175,3.175,0,0,1,3.2,3.2" transform="translate(18.141 4.961)" fill="#6da2aa"/>
      </g>
    </g>
  </g>
</svg>
