<svg xmlns="http://www.w3.org/2000/svg" width="100.173" height="87.249" viewBox="0 0 100.173 87.249">
  <g id="Group_15883" data-name="Group 15883" transform="translate(-598 -539.251)">
    <path id="Polygon_50" data-name="Polygon 50" d="M70.5,0a8,8,0,0,1,6.938,4.017L97.887,39.641a8,8,0,0,1,0,7.966L77.436,83.232A8,8,0,0,1,70.5,87.249H29.675a8,8,0,0,1-6.938-4.017L2.286,47.607a8,8,0,0,1,0-7.966L22.737,4.017A8,8,0,0,1,29.675,0Z" transform="translate(598 539.251)" fill="#edf2f4"/>
    <g id="Group_15866" data-name="Group 15866" transform="translate(0.325 -31)">
      <path id="Subtraction_5" data-name="Subtraction 5" d="M-12041,125h-9a4,4,0,0,1-4-4V87a4,4,0,0,1,4-4h9a4,4,0,0,1,4,4v34A4,4,0,0,1-12041,125Zm-8.171-12.01a.443.443,0,0,0-.312.127l-.623.623a.437.437,0,0,0,0,.62l2.855,2.856a.431.431,0,0,0,.312.13.431.431,0,0,0,.312-.13l5.052-5.052a.439.439,0,0,0,.13-.313.431.431,0,0,0-.13-.307l-.62-.623a.439.439,0,0,0-.312-.129.439.439,0,0,0-.312.129l-4.12,4.12-1.924-1.924A.436.436,0,0,0-12049.17,112.99Zm0-10.59a.439.439,0,0,0-.312.129l-.623.62a.446.446,0,0,0,0,.623l2.855,2.856a.443.443,0,0,0,.312.127.443.443,0,0,0,.312-.127l5.052-5.055a.431.431,0,0,0,.13-.307.439.439,0,0,0-.13-.313l-.62-.62a.439.439,0,0,0-.312-.129.439.439,0,0,0-.312.129l-4.12,4.12-1.924-1.924A.433.433,0,0,0-12049.17,102.4Zm0-10.589a.443.443,0,0,0-.312.127l-.623.623a.441.441,0,0,0,0,.62l2.855,2.856a.431.431,0,0,0,.312.13.431.431,0,0,0,.312-.13l5.052-5.052a.439.439,0,0,0,.13-.313.431.431,0,0,0-.13-.307l-.62-.623a.439.439,0,0,0-.312-.129.439.439,0,0,0-.312.129l-4.12,4.12-1.924-1.924A.436.436,0,0,0-12049.17,91.81Z" transform="translate(12683.676 509.876)" fill="#6da2aa"/>
      <rect id="Rectangle_3712" data-name="Rectangle 3712" width="11.507" height="2.773" rx="1.387" transform="translate(650.611 600.095)" fill="#6da2aa"/>
      <rect id="Rectangle_3713" data-name="Rectangle 3713" width="11.507" height="2.773" rx="1.387" transform="translate(650.611 614.515)" fill="#6da2aa"/>
      <rect id="Rectangle_3714" data-name="Rectangle 3714" width="11.507" height="2.773" rx="1.387" transform="translate(650.611 628.936)" fill="#6da2aa"/>
      <rect id="Rectangle_3709" data-name="Rectangle 3709" width="16.498" height="2.773" rx="1.387" transform="translate(650.611 592.884)" fill="#6da2aa"/>
      <rect id="Rectangle_3710" data-name="Rectangle 3710" width="16.498" height="2.773" rx="1.387" transform="translate(650.611 607.305)" fill="#6da2aa"/>
      <rect id="Rectangle_3711" data-name="Rectangle 3711" width="16.498" height="2.773" rx="1.387" transform="translate(650.611 621.726)" fill="#6da2aa"/>
    </g>
  </g>
</svg>
