<svg xmlns="http://www.w3.org/2000/svg" width="100.173" height="87.249" viewBox="0 0 100.173 87.249">
  <g id="Group_15882" data-name="Group 15882" transform="translate(-820 -539.251)">
    <path id="Polygon_49" data-name="Polygon 49" d="M70.5,0a8,8,0,0,1,6.938,4.017L97.887,39.641a8,8,0,0,1,0,7.966L77.436,83.232A8,8,0,0,1,70.5,87.249H29.675a8,8,0,0,1-6.938-4.017L2.286,47.607a8,8,0,0,1,0-7.966L22.737,4.017A8,8,0,0,1,29.675,0Z" transform="translate(820 539.251)" fill="#edf2f4"/>
    <g id="Group_15858" data-name="Group 15858" transform="translate(850.607 561.888)">
      <g id="Group_14507" data-name="Group 14507" transform="translate(0.393 -0.012)">
        <g id="Group_14031" data-name="Group 14031" transform="translate(0 0)">
          <g id="Group_1787" data-name="Group 1787" transform="translate(0 0)">
            <g id="Group_1785" data-name="Group 1785" transform="translate(0 0)">
              <g id="Group_1685" data-name="Group 1685" transform="translate(0 0)">
                <rect id="Rectangle_261" data-name="Rectangle 261" width="17" height="42" rx="4" transform="translate(0 0)" fill="#6da2aa"/>
              </g>
            </g>
          </g>
        </g>
      </g>
      <rect id="Rectangle_3359" data-name="Rectangle 3359" width="11.507" height="2.773" rx="1.387" transform="translate(21.33 7.207)" fill="#6da2aa"/>
      <rect id="Rectangle_3362" data-name="Rectangle 3362" width="11.507" height="2.773" rx="1.387" transform="translate(21.33 21.628)" fill="#6da2aa"/>
      <rect id="Rectangle_3364" data-name="Rectangle 3364" width="11.507" height="2.773" rx="1.387" transform="translate(21.33 36.048)" fill="#6da2aa"/>
      <rect id="Rectangle_3360" data-name="Rectangle 3360" width="16.498" height="2.773" rx="1.387" transform="translate(21.33 -0.004)" fill="#6da2aa"/>
      <rect id="Rectangle_3361" data-name="Rectangle 3361" width="16.498" height="2.773" rx="1.387" transform="translate(21.33 14.417)" fill="#6da2aa"/>
      <rect id="Rectangle_3363" data-name="Rectangle 3363" width="16.498" height="2.773" rx="1.387" transform="translate(21.33 28.838)" fill="#6da2aa"/>
    </g>
  </g>
</svg>
