<?xml version="1.0" encoding="utf-8"?>
<!-- Generator: Adobe Illustrator 28.0.0, SVG Export Plug-In . SVG Version: 6.00 Build 0)  -->
<svg version="1.1" id="Layer_1" xmlns="http://www.w3.org/2000/svg" xmlns:xlink="http://www.w3.org/1999/xlink" x="0px" y="0px"
	 viewBox="0 0 1264.4 445.2" style="enable-background:new 0 0 1264.4 445.2;" xml:space="preserve">
<style type="text/css">
	.st0{fill:#231F20;}
	.st1{fill:#E2B22D;}
	.st2{fill:#85A53D;}
	.st3{fill:#6DA3AA;}
	.st4{fill:#FFFFFF;}
	.st5{fill:#222C2D;}
</style>
<g>
	<path class="st1" d="M134.7,288.2H190c6,0,11.5-3.2,14.5-8.4L232,232c3-5.2,3-11.5,0-16.7l-27.6-47.9c-3-5.2-8.5-8.4-14.5-8.4
		h-55.3c-6,0-11.5,3.2-14.5,8.4l-27.6,47.9c-3,5.2-3,11.5,0,16.7l27.6,47.9C123.2,285,128.7,288.2,134.7,288.2z"/>
	<path class="st2" d="M368.9,287.4h55.3c6,0,11.5-3.2,14.5-8.4l27.6-47.9c3-5.2,3-11.5,0-16.7l-27.6-47.9c-3-5.2-8.5-8.4-14.5-8.4
		h-55.3c-6,0-11.5,3.2-14.5,8.4l-27.6,47.9c-3,5.2-3,11.5,0,16.7l27.6,47.9C357.4,284.2,363,287.4,368.9,287.4z"/>
	<path class="st3" d="M247.2,219.1h63c3.6,0,6.9-1.9,8.7-5l31.5-54.6c1.8-3.1,1.8-6.9,0-10L318.9,95c-1.8-3.1-5.1-5-8.7-5h-63
		c-3.6,0-6.9,1.9-8.7,5L207,149.6c-1.8,3.1-1.8,6.9,0,10l31.5,54.6C240.4,217.2,243.7,219.1,247.2,219.1z"/>
	<g>
		<path class="st4" d="M525.3,263.6h0.3L555,162.4h14.3l29.4,101.1h0.3l27.5-96.8c0.7-2.6,3.1-4.4,5.8-4.4l0,0c4,0,6.9,3.9,5.8,7.7
			l-30.5,103.2c-1.2,4-4.8,6.7-8.9,6.7l0,0c-4.1,0-7.8-2.7-8.9-6.7L562.2,179h-0.3l-27.6,94.3c-1.2,4-4.8,6.7-8.9,6.7l0,0
			c-4.1,0-7.8-2.7-8.9-6.7L486,170.1c-1.1-3.9,1.8-7.7,5.8-7.7l0,0c2.7,0,5.1,1.8,5.8,4.4L525.3,263.6z"/>
		<path class="st4" d="M671.5,172.4c0,2.3-0.8,4.2-2.5,5.7s-3.5,2.2-5.5,2.2s-3.8-0.7-5.5-2.2s-2.5-3.4-2.5-5.7s0.8-4.2,2.5-5.7
			s3.5-2.2,5.5-2.2s3.8,0.7,5.5,2.2C670.6,168.2,671.5,170.1,671.5,172.4z M663.5,280L663.5,280c-3.1,0-5.6-2.5-5.6-5.6V208
			c0-3.1,2.5-5.6,5.6-5.6l0,0c3.1,0,5.6,2.5,5.6,5.6v66.4C669.1,277.5,666.6,280,663.5,280z"/>
		<path class="st4" d="M705.2,280L705.2,280c-3.1,0-5.6-2.5-5.6-5.6V160.1c0-3.1,2.5-5.6,5.6-5.6l0,0c3.1,0,5.6,2.5,5.6,5.6v114.3
			C710.8,277.5,708.3,280,705.2,280z"/>
		<path class="st4" d="M805,266.9c-3.3,5-7.6,8.7-13,11.3c-5.3,2.5-10.8,3.8-16.4,3.8c-6.1,0-11.6-1.1-16.5-3.2s-9.1-5-12.6-8.6
			c-3.5-3.7-6.2-8-8.1-13c-1.9-5-2.9-10.4-2.9-16.1c0-5.8,1-11.1,2.9-16.1s4.7-9.3,8.1-13s7.7-6.5,12.6-8.6
			c4.9-2.1,10.4-3.2,16.5-3.2c5.6,0,11.1,1.3,16.4,3.9c5.3,2.6,9.6,6.5,13,11.5h0.3V160c0-3.1,2.5-5.6,5.6-5.6l0,0
			c3.1,0,5.6,2.5,5.6,5.6v114.3c0,3.1-2.5,5.6-5.6,5.6l0,0c-3.1,0-5.6-2.5-5.6-5.6v-7.5H805V266.9z M747.4,241.1
			c0,4.3,0.7,8.4,2,12.2s3.2,7.1,5.7,10c2.5,2.8,5.6,5,9.2,6.6c3.7,1.6,7.8,2.4,12.5,2.4c4.3,0,8.3-0.8,12-2.4s6.8-3.8,9.5-6.6
			c2.7-2.8,4.7-6.1,6.2-9.9c1.5-3.8,2.2-7.9,2.2-12.4c0-4.4-0.7-8.6-2.2-12.4c-1.5-3.8-3.6-7.1-6.2-10c-2.7-2.8-5.8-5-9.5-6.6
			s-7.6-2.4-12-2.4c-4.7,0-8.8,0.8-12.5,2.5s-6.7,3.9-9.2,6.7s-4.4,6.1-5.7,10C748,232.8,747.4,236.8,747.4,241.1z"/>
		<path class="st4" d="M847.5,162.4h33.2c6,0,11.4,0.6,16.3,1.9c4.9,1.3,9.1,3.2,12.5,5.8c3.5,2.6,6.2,5.9,8.1,9.8
			c1.9,3.9,2.8,8.6,2.8,13.9c0,5.3-1,9.9-2.9,13.9c-1.9,3.9-4.7,7.2-8.1,9.8c-3.5,2.6-7.7,4.6-12.6,5.9c-4.9,1.3-10.4,2-16.4,2
			h-20.9V274c0,3.3-2.7,6-6,6l0,0c-3.3,0-6-2.7-6-6L847.5,162.4L847.5,162.4z M859.5,215.2h20.3c9.4,0,16.6-1.8,21.4-5.5
			c4.9-3.7,7.3-9,7.3-15.9c0-7.3-2.5-12.6-7.6-16c-5-3.4-12.1-5.1-21.2-5.1h-20.3L859.5,215.2L859.5,215.2z"/>
		<path class="st4" d="M1008.4,241.1c0,5.9-1,11.3-3.1,16.3c-2.1,5-4.9,9.3-8.6,13c-3.7,3.7-8,6.5-13.1,8.6
			c-5.1,2-10.7,3.1-16.8,3.1c-6,0-11.5-1-16.6-3.1c-5.1-2-9.5-4.9-13.1-8.6c-3.7-3.7-6.5-8-8.6-13s-3.1-10.4-3.1-16.3
			c0-5.9,1-11.3,3.1-16.3c2-5,4.9-9.3,8.6-13c3.7-3.7,8-6.5,13.1-8.6c5.1-2,10.6-3.1,16.6-3.1c6.1,0,11.7,1,16.8,3.1
			s9.5,4.9,13.1,8.6c3.7,3.7,6.5,8,8.6,13C1007.4,229.9,1008.4,235.3,1008.4,241.1z M996.5,241.1c0-4.3-0.7-8.4-2.1-12.2
			c-1.4-3.8-3.4-7.1-5.9-10c-2.5-2.8-5.6-5.1-9.3-6.7c-3.7-1.7-7.8-2.5-12.3-2.5s-8.6,0.8-12.2,2.5c-3.6,1.7-6.7,3.9-9.2,6.7
			s-4.5,6.1-5.9,10c-1.4,3.8-2.1,7.9-2.1,12.2s0.7,8.4,2.1,12.2c1.4,3.8,3.3,7.1,5.9,10c2.5,2.8,5.6,5,9.2,6.6
			c3.6,1.6,7.7,2.4,12.2,2.4s8.6-0.8,12.3-2.4s6.8-3.8,9.3-6.6c2.5-2.8,4.5-6.1,5.9-10C995.8,249.5,996.5,245.5,996.5,241.1z"/>
		<path class="st4" d="M1078.4,217.4c-2.2,1.7-5.3,1.3-7.2-0.7c-1.3-1.5-2.9-2.8-4.8-3.9c-3.4-2-7.2-3.1-11.5-3.1c-2,0-4,0.2-6,0.7
			c-2,0.4-3.8,1.2-5.3,2.2c-1.6,1-2.8,2.3-3.7,3.8c-0.9,1.6-1.4,3.4-1.4,5.5c0,3.7,1.5,6.5,4.5,8.4s7.7,3.6,14.1,4.9
			c9.2,1.9,16,4.6,20.3,8.2c4.4,3.6,6.6,8.4,6.6,14.5c0,4.4-0.9,8.2-2.6,11.2s-4,5.5-6.7,7.5c-2.8,1.9-5.9,3.3-9.4,4.2
			s-7,1.2-10.5,1.2c-5.9,0-11.6-1.2-17.1-3.7c-3.6-1.6-6.9-3.8-9.6-6.6c-2.4-2.4-2.1-6.3,0.6-8.3l0,0c2.2-1.6,5.3-1.4,7.2,0.6
			c1.6,1.8,3.6,3.4,6,4.8c3.9,2.3,8.1,3.5,12.8,3.5c2.4,0,4.8-0.2,7-0.7c2.2-0.4,4.2-1.2,5.8-2.3c1.7-1.1,3-2.5,4-4.2
			s1.5-3.8,1.5-6.4c0-4.1-2-7.2-5.9-9.2s-9.6-4-17-5.7c-2.3-0.6-4.8-1.2-7.4-2.1c-2.6-0.8-5-2-7.2-3.7c-2.2-1.6-4-3.6-5.5-6.1
			c-1.4-2.4-2.2-5.5-2.2-9.1c0-4,0.8-7.4,2.3-10.2s3.6-5.1,6.2-7c2.6-1.8,5.6-3.2,8.9-4.1c3.3-0.9,6.8-1.3,10.3-1.3
			c5.4,0,10.7,1.2,15.8,3.7c3.1,1.5,5.8,3.4,7.9,5.6C1081.4,211.8,1081,215.5,1078.4,217.4L1078.4,217.4z"/>
		<path class="st4" d="M1118.4,215.1c2.3-4.9,6.2-8.8,11.8-11.5c4.6-2.2,12.5-3.6,17.6-3.2c8.2,0.6,14.5,3.5,18.9,8.7
			c4.9,5.9,7.4,13.6,7.4,23.3v42c0,3.1-2.5,5.6-5.6,5.6l0,0c-3.1,0-5.6-2.5-5.6-5.6V237c0-4.1-0.3-7.8-1-11.1s-1.8-6.2-3.4-8.6
			c-1.6-2.4-3.8-4.2-6.5-5.6c-2.7-1.3-6.1-2-10.2-2c-3,0-5.9,0.6-8.7,1.8c-2.8,1.2-5.3,3.1-7.6,5.6c-2.2,2.5-4,5.6-5.3,9.5
			c-1.3,3.8-2,8.3-2,13.5v34.2c0,3.1-2.5,5.6-5.6,5.6l0,0c-3.1,0-5.6-2.5-5.6-5.6V160.1c0-3.1,2.5-5.6,5.6-5.6l0,0
			c3.1,0,5.6,2.5,5.6,5.6v55H1118.4z"/>
	</g>
	<g>
		<path class="st4" d="M215.1,200.7c-2.6-2.6-6.2-0.4-11.2,2.7c-2,1.2-4.4,2.6-6.9,3.9c-5.7,2.9-14.1,4.7-19.8,5.8
			c-0.2-0.3-0.3-0.6-0.5-0.9l8.3-5.5c0.4-0.3,0.7-0.7,0.8-1.2l0.9-4.4l2.6-2.6c0.4-0.4,0.6-0.8,0.6-1.4c0-0.5-0.2-1-0.6-1.4
			c-0.7-0.7-2-0.7-2.7,0l-3,3c-0.3,0.3-0.5,0.6-0.5,1l-0.8,4.2l-7.9,5.3c-0.7-0.7-1.5-1.3-2.3-1.8c2.4-1.6,3.9-4.3,3.9-7.4
			c0-3.7-2.2-7-5.5-8.3c-0.1-0.1-0.3-0.2-0.5-0.3l2.3-1.7c0.3-0.2,0.5-0.6,0.7-0.9l2-6c0.3-1-0.2-2.1-1.2-2.4
			c-0.5-0.2-1-0.1-1.5,0.1c-0.5,0.2-0.8,0.6-1,1.1l-1.8,5.4l-3.5,2.6l0,0c-0.7-0.2-1.4-0.4-2-0.4c-0.5,0-1.1,0.1-1.7,0.3l-3.4-2.6
			l-1.8-5.4c-0.2-0.5-0.5-0.9-1-1.1c-0.5-0.2-1-0.3-1.5-0.1c-1,0.3-1.5,1.4-1.2,2.4l2,6c0.1,0.4,0.4,0.7,0.7,0.9l2.2,1.7
			c-0.2,0.1-0.4,0.2-0.5,0.3c-3.3,1.4-5.5,4.7-5.5,8.4c0,3.1,1.6,5.8,3.9,7.4c-0.8,0.5-1.6,1.1-2.3,1.8l-7.9-5.3l-0.8-4.2
			c-0.1-0.4-0.3-0.7-0.5-1l-3-3c-0.7-0.7-2-0.7-2.7,0c-0.4,0.4-0.6,0.8-0.6,1.4c0,0.5,0.2,1,0.6,1.4l2.6,2.6l0.9,4.4
			c0.1,0.5,0.4,0.9,0.8,1.2l8.3,5.5c-0.2,0.3-0.4,0.6-0.5,1c-5.7-1-14.2-2.9-20.1-5.8c-2.5-1.3-4.9-2.7-6.9-3.9
			c-5-3-8.7-5.2-11.2-2.7c-1.7,1.7-2.4,4.2-2.2,7.2c0.4,5,3.9,12.5,12.4,18.6c3.1,2.2,6.5,3.3,10.1,3.3c4.2,0,8.6-1.6,12.1-4.4
			c0.4-0.3,0.7-0.8,0.7-1.3c0.1-0.5-0.1-1-0.4-1.4c-0.3-0.4-0.8-0.7-1.3-0.7c-0.5-0.1-1,0.1-1.4,0.4c-4.1,3.3-11.2,5.5-17.6,0.9
			c-7.4-5.3-10.4-11.8-10.8-15.8c-0.2-1.9,0.2-3.3,1-4.2c0.7-0.3,4.6,2.1,6.5,3.2c2.1,1.3,4.5,2.7,7.2,4.1
			c10.1,5.1,26.8,7.1,27.5,7.1c0.5,0.1,1-0.1,1.4-0.4c0.4-0.3,0.7-0.8,0.7-1.3c0.1-0.5-0.1-1-0.4-1.4c-0.3-0.4-0.8-0.7-1.3-0.7
			c-0.1,0-0.9-0.1-2.1-0.3c1.8-2.7,4.8-4.5,8.1-4.8h1.9c3.3,0.3,6.3,2,8.1,4.7c-1.4,0.2-2.3,0.3-2.3,0.3c-0.5,0.1-1,0.3-1.3,0.7
			s-0.5,0.9-0.4,1.4s0.3,1,0.7,1.3s0.9,0.5,1.4,0.4c0.7-0.1,17.3-2.1,27.5-7.1c2.7-1.3,5.1-2.8,7.2-4.1c1.9-1.1,5.8-3.5,6.5-3.2
			c0.8,0.8,1.2,2.3,1.1,4.2c-0.3,4-3.3,10.4-10.8,15.8c-6.4,4.6-13.5,2.4-17.6-0.9c-0.4-0.3-0.9-0.5-1.4-0.4s-1,0.3-1.3,0.7
			s-0.5,0.9-0.4,1.4s0.3,1,0.7,1.3c3.5,2.8,7.9,4.4,12.1,4.4c3.6,0,7-1.1,10.1-3.3c8.5-6.1,12-13.6,12.4-18.6
			C217.5,204.9,216.8,202.4,215.1,200.7z M164.1,205.1c-0.4,0-0.8,0-1.2,0h-1.7c-2.9,0-5.2-2.3-5.2-5.2c0-2.1,1.3-4,3.2-4.8
			c0.1,0,0.2-0.1,0.3-0.1c1.5-0.9,3.6-1.9,4.3-1.9c0.8,0,3,1,4.7,2c0.1,0,0.2,0.1,0.3,0.1c2,0.8,3.3,2.7,3.3,4.8
			c0,2.9-2.3,5.2-5.2,5.2h-1.7C164.8,205.2,164.5,205.1,164.1,205.1z"/>
		<path class="st4" d="M184.7,236c-0.2-0.4-0.5-0.7-0.9-0.9l-6-3c-0.1-0.1-0.3-0.1-0.4-0.1c-0.5-1.1-1.1-2-1.8-2.8
			c1.1-1.4,1.9-2.9,2.5-4.7c0.3-1-0.2-2.1-1.2-2.4c-1-0.3-2.1,0.2-2.4,1.2c-1.5,4.6-5.7,7.6-10.5,7.6c-2.9,0-5.5-1.1-7.5-3l-0.1-0.1
			c-1.2-1.1-2.1-2.6-2.7-4.2c-0.4-1-1.5-1.5-2.5-1.2c-1,0.4-1.5,1.5-1.2,2.5c0.6,1.6,1.4,3,2.4,4.3c-0.6,0.8-1.1,1.7-1.7,2.7
			c-0.2,0-0.4,0.1-0.6,0.2l-6,3c-0.4,0.2-0.7,0.5-0.9,0.9l-7.9,15.9c-0.2,0.4-0.2,0.8-0.2,1.2l1,6c0.2,0.9,0.9,1.6,1.9,1.6
			c0.1,0,0.2,0,0.3,0c0.5-0.1,0.9-0.4,1.2-0.8s0.4-0.9,0.3-1.4l-0.9-5.3l7.4-14.8l2.3-1.2c-0.8,3.2-1.2,6.7-0.7,9.9
			c1.4,9.9,6,17.3,13.9,22.6v3.5c0,1.1,0.9,1.9,1.9,1.9c1.1,0,1.9-0.9,1.9-1.9v-3.5c5.9-3.9,10-9,12.3-15.3c0.2-0.3,0.4-0.7,0.4-1.1
			l0,0c0.6-1.9,1.1-4,1.4-6.2c0.5-3.3,0.1-6.7-0.7-9.8l2.1,1.1l7.4,14.8l-0.9,5.3c-0.1,0.5,0,1,0.3,1.4s0.7,0.7,1.2,0.8
			c0.1,0,0.2,0,0.3,0c0.9,0,1.7-0.7,1.9-1.6l1-6c0.1-0.4,0-0.8-0.2-1.2L184.7,236z M164.1,266.4c-4.4-3-7.6-6.6-9.6-11.2h19.3
			C171.7,259.7,168.5,263.4,164.1,266.4z M153.1,251.3c-0.4-1.5-0.8-3.1-1-4.8c-0.1-0.7-0.2-1.5-0.2-2.2h24.5c0,0.7-0.1,1.5-0.2,2.2
			c-0.2,1.7-0.6,3.3-1,4.8H153.1z M152.2,240.5c0.6-3.5,1.8-6.6,3.2-8.5c2.5,1.8,5.5,2.9,8.7,2.9c3.3,0,6.4-1.1,8.9-2.9
			c1.4,1.9,2.7,5.1,3.2,8.6h-24V240.5z"/>
	</g>
	<path class="st4" d="M441.6,241.2l-4.5-7.2c-0.2-0.4-0.6-0.7-1-0.8l-10.9-3.6c-0.1,0-0.2-0.1-0.3-0.1c-3.5-5-7.3-9.4-10.4-12.8
		l4.9-0.5c0.4,0,0.8-0.2,1.1-0.6c0.8-0.8,1.3-2.4,2.5-9.1c0.2-1.2,0.5-3,0.6-3.2c0.9-1.7,7.6-4.6,13.3-6.3c0.5-0.1,0.9-0.5,1.2-0.9
		c0.2-0.4,0.3-1,0.2-1.5c-0.3-1-1.4-1.6-2.4-1.3c-3.2,0.9-13.6,4.2-15.7,8.2c-0.2,0.5-0.4,1.3-1,4.3c-0.3,1.8-0.9,5-1.3,6.5
		l-6.7,0.7c-1.4-1.4-2.4-2.4-2.9-2.9c-0.1-0.4-0.1-0.7-0.2-1l5.8-3.3c0.2-0.1,0.3-0.2,0.4-0.3c0.4-0.4,1.3-1.3,5.9-18
		c0-0.2,0.1-0.3,0.1-0.5c0-1.9-1.6-8.3-1.9-9.5c-0.3-1-1.3-1.6-2.3-1.4c-1,0.3-1.7,1.3-1.4,2.3c0.6,2.5,1.6,6.9,1.7,8.4
		c-2.1,7.6-4.2,14.4-4.9,16l-5.1,2.9c-0.4-0.5-0.8-1-1.3-1.5c2.8-1.5,4.7-4.5,4.7-8c0-4.7-3.5-8.6-7.9-8.9l-3-2.2l1.5-1
		c0.4-0.3,0.7-0.7,0.8-1.2c0.1-0.5,0-1-0.3-1.4s-0.7-0.7-1.2-0.8s-1,0-1.4,0.3l-0.6,0.4V178c0-1.1-0.9-1.9-1.9-1.9s-1.9,0.9-1.9,1.9
		v3.4l-0.6-0.4c-0.4-0.3-0.9-0.4-1.4-0.3c-0.5,0.1-0.9,0.4-1.2,0.8s-0.4,0.9-0.3,1.4s0.4,0.9,0.8,1.2l1.7,1.1l-2.8,2.1
		c-4.5,0.4-7.9,4.3-7.9,8.9c0,4.9,3.9,9,8.6,9h7.3c3.7,0,6.8,3,6.8,6.8v2.5c0,3.7-3,6.8-6.8,6.8h-3.4c-3.7,0-6.8-3-6.8-6.8V212
		c0-1.1,0.3-2.2,0.8-3.1c0.5-0.9,0.1-2.1-0.8-2.6c-0.3-0.2-0.7-0.2-1-0.2l-5.7-3.3c-0.7-1.7-2.8-8.4-4.9-16c0.1-1.5,1.1-5.9,1.7-8.4
		c0.3-1-0.4-2.1-1.4-2.3c-1-0.3-2.1,0.4-2.3,1.4c-0.3,1.2-1.9,7.6-1.9,9.5c0,0.2,0,0.3,0.1,0.5c4.7,16.8,5.5,17.7,5.9,18
		c0.1,0.1,0.3,0.2,0.4,0.3l5.8,3.3c-0.1,0.3-0.2,0.7-0.2,1c-0.5,0.5-1.6,1.5-2.9,2.9l-6.7-0.7c-0.4-1.5-1-4.7-1.4-6.6
		c-0.6-3-0.7-3.8-1-4.3c-2-4.1-12.5-7.3-15.7-8.2c-1-0.3-2.1,0.3-2.4,1.3s0.3,2.1,1.3,2.4c5.7,1.6,12.4,4.5,13.2,6.1
		c0.1,0.3,0.4,2.1,0.7,3.4c1.2,6.6,1.6,8.2,2.5,9c0.3,0.3,0.7,0.5,1.1,0.6l4.9,0.5c-3.2,3.5-7,8.1-10.6,13.2l-10.1,3.4
		c-0.4,0.1-0.8,0.4-1,0.8l-4.5,7.2c-0.6,0.9-0.3,2.1,0.6,2.6c0.3,0.2,0.7,0.3,1,0.3c0.7,0,1.3-0.3,1.6-0.9l4.2-6.7l4.8-1.6
		c-3.3,5.4-6,11.2-7,16.8c-1.3,6.9-0.8,12.8,1.3,15.7c1,1.4,2.3,1.9,3.1,2c0.3,0,0.7,0.1,1.1,0.1c9.1,0,28.2-12,32.5-19.1
		c0.6-1,1.1-2.3,1.5-3.8c0.5,1.6,1,2.9,1.5,3.8c1,1.6,2.7,3.5,4.9,5.4c-1.2,2.5-3.5,5.3-6.5,5.3c-1.8,0-3.2-1-4.1-1.9
		c-0.8-0.7-2-0.7-2.7,0.1c-0.7,0.8-0.7,2,0.1,2.7c2,1.9,4.3,2.9,6.7,2.9c4.4,0,7.7-3.2,9.5-6.6c7.6,5.7,18.4,11.2,24.5,11.2
		c0.4,0,0.7,0,1.1-0.1c0.8-0.1,2.1-0.5,3.1-2c2.1-2.9,2.6-8.8,1.3-15.7c-1.1-5.7-3.9-11.7-7.3-17.2l5.9,2l4.2,6.7
		c0.4,0.6,1,0.9,1.6,0.9c0.4,0,0.7-0.1,1-0.3C441.9,243.3,442.2,242.1,441.6,241.2z M394.2,235.4c-0.6,5.1-1.6,10.9-2.9,13.1
		c-4,6.7-23.5,18-29.8,17.2c-0.1,0-0.3-0.1-0.5-0.4c-0.9-1.2-2-5.3-0.6-12.7c1.2-6.5,5-13.4,9.2-19.6c0.2-0.2,0.4-0.4,0.6-0.7
		c0.1-0.1,0.1-0.2,0.1-0.3c4.8-6.9,10.2-12.8,13.5-16.2c0.4,3.5,2.5,6.4,5.4,8.1c0,3,2.1,7.2,5.3,8.3
		C394.4,233.2,394.3,234.2,394.2,235.4C394.2,235.2,394.2,235.3,394.2,235.4z M396.1,228.5c-1,0-2.3-1.7-2.8-3.5
		c0.4,0,0.7,0.1,1.1,0.1h3.4c0.4,0,0.8,0,1.1-0.1C398.4,226.8,397.1,228.5,396.1,228.5z M398.4,231.8c2.8-1.4,4.6-5.3,4.6-8
		c2.9-1.6,5-4.6,5.4-8.1c6.4,6.6,20.7,22.7,23.4,36.8c1.4,7.4,0.3,11.5-0.6,12.7c-0.2,0.3-0.4,0.4-0.5,0.4
		c-6.3,0.8-25.8-10.5-29.8-17.2c-1.1-1.9-2.2-6.5-2.9-13C398.2,234,398.3,232.7,398.4,231.8z M389.2,191.4l0.1,0.1
		c0.1,0.1,2.2,1.3,0.9,5.9c-0.3,1,0.3,2.1,1.3,2.4c0.2,0,0.4,0.1,0.5,0.1c0.9,0,1.6-0.6,1.8-1.4c1.3-4.4,0.3-7.1-0.9-8.6l2.9-2.2
		l2.9,2.2c-1.1,1.6-2.1,4.3-0.8,8.6c0.2,0.8,1,1.4,1.8,1.4c0.2,0,0.4,0,0.5-0.1c0.5-0.1,0.9-0.5,1.2-0.9c0.2-0.4,0.3-1,0.2-1.5
		c-1.3-4.6,0.8-5.9,0.9-5.9c0,0,0.1,0,0.1-0.1c1.9,0.6,3.4,2.6,3.4,4.9c0,2.8-2.1,5.1-4.8,5.1h-10.6c-2.6,0-4.8-2.3-4.8-5.1
		C385.8,193.9,387.3,192,389.2,191.4z"/>
	<g>
		<path class="st4" d="M313.6,169.7c-0.5-0.2-1-0.1-1.5,0.1c-0.9,0.5-1.3,1.6-0.9,2.6c1,2,1.3,4,1,6.3c-0.8,5.6-3.1,9.7-6.5,11.6
			c-2.5,1.4-5.4,1.6-8,0.4c-8.9-3.8-11.9-10.8-12.4-12.1v-10.1c0-1.2-0.4-2.3-1.1-3.2c0.7-0.9,1.1-2,1.1-3.2v-10.9
			c0-1-0.3-2-0.8-2.8c1.1-1,1.7-2.4,1.7-4c0-1.5-0.6-2.8-1.6-3.8c1-2.4,4.3-9,9.6-11.6c0.9-0.5,1.3-1.6,0.9-2.6
			c-0.5-0.9-1.6-1.3-2.6-0.9c-6.3,3.2-10,10.5-11.3,13.4c-0.2,0-0.3,0-0.5,0h-0.9c-0.2,0-0.3,0-0.5,0c-1.3-2.9-5-10.2-11.3-13.4
			c-0.9-0.5-2.1-0.1-2.6,0.9c-0.5,0.9-0.1,2.1,0.9,2.6c5.3,2.6,8.5,9.2,9.6,11.6c-1,1-1.6,2.4-1.6,3.8c0,1.6,0.7,3,1.7,4
			c-0.5,0.8-0.8,1.7-0.8,2.8v10.9c0,1.2,0.4,2.3,1.1,3.2c-0.7,0.9-1.1,2-1.1,3.2v10c-0.7,1.5-4.3,8.4-13.2,12.2
			c-2.6,1.1-5.5,1-8-0.4c-3.4-1.9-5.7-6.1-6.5-11.6c-0.3-2.2,0-4.3,1-6.3c0.2-0.5,0.3-1,0.1-1.5s-0.5-0.9-1-1.1
			c-0.5-0.2-1-0.3-1.5-0.1s-0.9,0.5-1.1,1c-1.3,2.7-1.8,5.5-1.3,8.5c1,6.8,4,11.9,8.5,14.4c1.9,1.1,4.1,1.7,6.3,1.7
			c1.7,0,3.4-0.4,5.1-1c6.1-2.6,10-6.5,12.4-9.6c0.7,2.9,2,6.1,4.4,6.1c2.3,0,3.6-3,4.3-5.8c2.2,3.1,5.8,6.7,11.7,9.2
			c1.6,0.7,3.3,1,5.1,1c2.2,0,4.4-0.6,6.3-1.7c4.5-2.5,7.5-7.7,8.5-14.4c0.4-3,0-5.8-1.3-8.5C314.5,170.2,314.1,169.9,313.6,169.7z
			 M279,162.2v-10.9c0-0.7,0.6-1.2,1.2-1.2s1.2,0.6,1.2,1.2v10.9c0,0.7-0.6,1.2-1.2,1.2S279,162.9,279,162.2z M279,168.5
			c0-0.7,0.6-1.2,1.2-1.2s1.2,0.6,1.2,1.2v11.8c0,1.2-0.6,3.9-1.2,5.6c-0.6-1.7-1.2-4.4-1.2-5.6V168.5z M279.8,146.2
			c-0.9,0-1.7-0.8-1.7-1.7s0.8-1.7,1.7-1.7h0.9c0.9,0,1.7,0.8,1.7,1.7s-0.8,1.7-1.7,1.7H279.8z"/>
		<path class="st4" d="M326.2,124.9c-10.2-7.5-26.3,6.7-38,19.9c-0.7,0.8-0.6,2,0.2,2.7c0.8,0.7,2,0.6,2.7-0.2
			c21-23.8,30-21.5,32.9-19.4c8.9,6.5,3.5,17.4,1.2,22c-0.5,0.9-0.8,1.6-1,2.1c-0.4,1.1-0.4,2.3-0.5,3.7c-0.1,2.6-0.3,5.5-2.4,7.1
			c-6,4.5-14-0.9-14-0.9c-0.4-0.3-0.9-0.4-1.4-0.3c-0.5,0.1-0.9,0.4-1.2,0.8c-0.3,0.4-0.4,0.9-0.3,1.4s0.4,0.9,0.8,1.2
			c0.2,0.1,5,3.5,10.7,3.5c2.9,0,5.6-0.9,7.9-2.6c3.6-2.7,3.8-6.9,4-10c0.1-1,0.1-2.1,0.3-2.7c0.1-0.3,0.4-1,0.8-1.6
			C331,146.7,337.7,133.3,326.2,124.9z"/>
		<path class="st4" d="M244.2,168.6c5.7,0,10.5-3.3,10.7-3.5c0.9-0.6,1.1-1.8,0.5-2.7s-1.8-1.1-2.7-0.5c-0.3,0.2-8.1,5.4-14,0.9
			c-2.1-1.6-2.3-4.5-2.4-7.2c-0.1-1.3-0.2-2.6-0.5-3.7c-0.2-0.5-0.5-1.2-1-2.1c-2.3-4.6-7.7-15.5,1.2-22c2.9-2.1,11.8-4.5,32.9,19.4
			c0.3,0.4,0.8,0.6,1.3,0.6s1-0.1,1.4-0.5c0.4-0.3,0.6-0.8,0.6-1.3s-0.1-1-0.5-1.4c-11.7-13.2-27.7-27.5-38-19.9
			c-11.5,8.4-4.8,21.8-2.3,26.8c0.3,0.6,0.7,1.3,0.8,1.6c0.2,0.6,0.3,1.7,0.3,2.7c0.2,3.1,0.4,7.3,4,10
			C238.6,167.7,241.2,168.6,244.2,168.6L244.2,168.6z"/>
	</g>
	<g>
		<g>
			<path class="st4" d="M264.6,310.9c-0.1,0-0.2,0-0.3,0c-0.2,0-0.4,0.1-0.6,0.2c-0.2,0.2-0.4,0.4-0.5,0.7c-0.1,0.3-0.1,0.6,0.1,0.9
				c0.2,0.2,0.4,0.4,0.7,0.5c0.3,0.1,0.6,0.1,0.9-0.1c0.2-0.2,0.4-0.4,0.5-0.7c0.1-0.3,0-0.6-0.1-1
				C265.1,311.2,264.9,311,264.6,310.9z M287.7,312.8c-0.4-0.1-0.8-0.1-1.2-0.1c-0.9,0-1.9,0.3-2.7,0.8c-1.2,0.7-2.1,1.8-2.4,3.2
				c-0.3,1.3-0.1,2.7,0.6,3.9c0.7,1.2,1.8,2.1,3.2,2.4c1.3,0.3,2.7,0.1,3.9-0.6c1.2-0.7,2.1-1.8,2.4-3.2
				C292.1,316.4,290.4,313.6,287.7,312.8z M290.2,295.9c0.3,0.1,0.6,0.1,0.9-0.1c0.2-0.2,0.4-0.4,0.5-0.7c0.1-0.3,0.1-0.6-0.1-0.9
				c-0.2-0.2-0.4-0.4-0.7-0.5c-0.1,0-0.2,0-0.3,0c-0.2,0-0.4,0.1-0.6,0.2c-0.2,0.2-0.4,0.4-0.5,0.7c-0.1,0.3,0,0.6,0.1,0.8
				C289.7,295.6,289.9,295.8,290.2,295.9z M351.6,285.6L320,231.1c-1.8-3.1-5.1-5-8.7-5h-63c-3.6,0-6.9,1.9-8.7,5l-31.5,54.6
				c-1.8,3.1-1.8,6.9,0,10l31.5,54.6c1.9,3,5.2,4.9,8.8,4.9h63c3.6,0,6.9-1.9,8.7-5l31.5-54.6C353.4,292.5,353.4,288.7,351.6,285.6z
				 M281.5,338.4c-0.6,0-1.2,0-1.7,0c-7.7,0-15-2.9-20.6-8.2c-6-5.7-9.3-13.4-9.3-21.7c0-3.5,0.6-6.8,1.7-9.9
				c0.1-0.2,0.2-0.5,0.3-0.7c3.1-7.9,9.3-14.3,17.4-17.4c1.8-0.7,2.9-2.3,2.9-4.1v-24.3h-2.9c-1,0-1.9-0.9-1.9-1.9s0.8-1.9,1.9-1.9
				h4.8c1,0,1.9,0.8,1.9,1.9v26.2c0,3.5-2.1,6.5-5.4,7.7c-6.2,2.4-11.2,7.1-14.1,12.9H286c-0.5-1-0.7-2.2-0.4-3.3
				c0.3-1.3,1.1-2.4,2.2-3.1c1.2-0.7,2.5-0.9,3.8-0.6c1.3,0.3,2.4,1.1,3.1,2.2c0.7,1.2,0.9,2.5,0.6,3.8c0,0.4-0.2,0.7-0.3,1h8.3
				c-3-5.9-8.1-10.7-14.6-13c-3.3-1.1-5.5-4.3-5.5-7.7v-26c0-1,0.8-1.9,1.9-1.9h4.7c1,0,1.9,0.9,1.9,1.9s-0.8,1.9-1.9,1.9H287v24.1
				c0,1.8,1.2,3.5,3,4.1c8.4,3,14.9,9.5,17.9,17.6c0.1,0.2,0.2,0.4,0.2,0.6c1.1,3.1,1.7,6.4,1.7,9.8
				C309.8,324.1,297.1,337.6,281.5,338.4z M255,300.8c-0.8,2.5-1.2,5.1-1.2,7.7c0,7.2,2.9,13.9,8.1,18.9c5.3,5,12.1,7.5,19.4,7.1
				c13.6-0.7,24.7-12.4,24.7-26.1c0-2.6-0.5-5.2-1.2-7.6H255z M269.2,313.3c-0.3,1.3-1.1,2.4-2.2,3.1c-0.8,0.5-1.7,0.7-2.6,0.7
				c-0.4,0-0.8,0-1.2-0.1c-1.3-0.3-2.4-1.1-3.1-2.2c-0.7-1.2-0.9-2.5-0.6-3.8c0.3-1.3,1.1-2.4,2.2-3.1c1.2-0.7,2.5-0.9,3.8-0.6
				c1.2,0.3,2.3,1.1,3.1,2.2C269.3,310.7,269.5,312,269.2,313.3z M295.1,320.3c-0.6,2.3-2,4.3-4.1,5.6c-1.4,0.8-3.1,1.3-4.7,1.3
				c-0.7,0-1.4-0.1-2.1-0.3c-2.3-0.6-4.3-2-5.6-4.1c-1.3-2.1-1.7-4.5-1.1-6.9c0.6-2.3,2-4.3,4.1-5.6c2.1-1.3,4.5-1.7,6.9-1.1
				C293.4,310.3,296.4,315.3,295.1,320.3z"/>
		</g>
	</g>
</g>
</svg>
