<svg xmlns="http://www.w3.org/2000/svg" width="100.173" height="87.249" viewBox="0 0 100.173 87.249">
  <g id="Group_15885" data-name="Group 15885" transform="translate(-161 -539)">
    <path id="Polygon_47" data-name="Polygon 47" d="M70.5,0a8,8,0,0,1,6.938,4.017L97.887,39.641a8,8,0,0,1,0,7.966L77.436,83.232A8,8,0,0,1,70.5,87.249H29.675a8,8,0,0,1-6.938-4.017L2.286,47.607a8,8,0,0,1,0-7.966L22.737,4.017A8,8,0,0,1,29.675,0Z" transform="translate(161 539)" fill="#edf2f4"/>
    <g id="Group_15864" data-name="Group 15864" transform="translate(194.164 562)">
      <g id="Group_1779" data-name="Group 1779" transform="translate(-0.163 0)">
        <rect id="Rectangle_3350" data-name="Rectangle 3350" width="33.037" height="2.429" rx="1.215" transform="translate(0.102 6.316)" fill="#6da2aa"/>
        <rect id="Rectangle_3351" data-name="Rectangle 3351" width="33.037" height="2.429" rx="1.215" transform="translate(0.102 0)" fill="#6da2aa"/>
        <path id="Subtraction_6" data-name="Subtraction 6" d="M-12218.586-478.955h-27a3,3,0,0,1-3-3v-24a3.005,3.005,0,0,1,3-3h27a3,3,0,0,1,3,3v24A3,3,0,0,1-12218.586-478.955Zm-13.382-6.747a2.518,2.518,0,0,1,2.367,1.623,10.056,10.056,0,0,0,2.936-1.217,2.53,2.53,0,0,1,.526-2.822,2.517,2.517,0,0,1,1.795-.741,2.528,2.528,0,0,1,1.026.215,10.09,10.09,0,0,0,1.221-2.936,2.542,2.542,0,0,1-1.626-2.376,2.525,2.525,0,0,1,1.632-2.37,10.1,10.1,0,0,0-1.22-2.936,2.559,2.559,0,0,1-1.033.221,2.53,2.53,0,0,1-1.795-.741,2.527,2.527,0,0,1-.526-2.828,9.971,9.971,0,0,0-2.929-1.217,2.561,2.561,0,0,1-2.374,1.629,2.553,2.553,0,0,1-2.369-1.629,10.069,10.069,0,0,0-2.937,1.217,2.552,2.552,0,0,1-.525,2.828,2.52,2.52,0,0,1-1.795.741,2.514,2.514,0,0,1-1.033-.221,10.261,10.261,0,0,0-1.214,2.942,2.551,2.551,0,0,1,1.629,2.37,2.531,2.531,0,0,1-1.626,2.37,10.065,10.065,0,0,0,1.221,2.936,2.537,2.537,0,0,1,1.029-.215,2.54,2.54,0,0,1,1.795.741,2.555,2.555,0,0,1,.523,2.822,10.093,10.093,0,0,0,2.936,1.217A2.549,2.549,0,0,1-12231.968-485.7Zm.047-4.144a4.119,4.119,0,0,1-4.113-4.116,4.117,4.117,0,0,1,4.113-4.113,4.119,4.119,0,0,1,4.116,4.113A4.121,4.121,0,0,1-12231.921-489.847Z" transform="translate(12248.587 521.595)" fill="#6da2aa"/>
      </g>
    </g>
  </g>
</svg>
