<?xml version="1.0" encoding="UTF-8"?><svg id="Layer_1" xmlns="http://www.w3.org/2000/svg" xmlns:xlink="http://www.w3.org/1999/xlink" viewBox="0 0 574.08 286.55"><defs><style>.cls-1{opacity:.22;}.cls-1,.cls-2,.cls-3,.cls-4,.cls-5,.cls-6,.cls-7,.cls-8,.cls-9,.cls-10,.cls-11{stroke-width:0px;}.cls-1,.cls-7{fill:#242424;}.cls-12{clip-path:url(#clippath);}.cls-2,.cls-13,.cls-14{fill:none;}.cls-15{clip-path:url(#clippath-1);}.cls-16{clip-path:url(#clippath-2);}.cls-13{stroke:#fff;stroke-linecap:round;stroke-linejoin:round;stroke-width:.99px;}.cls-3{opacity:.43;}.cls-3,.cls-5{fill:#6ea1a9;}.cls-14{stroke:#231f20;stroke-miterlimit:10;}.cls-4{opacity:.26;}.cls-4,.cls-11{fill:#e3b12a;}.cls-6{fill:#231f20;}.cls-8{fill:#dce6ea;}.cls-9{fill:#85a53e;}.cls-10{fill:#fff;}</style><clipPath id="clippath"><rect class="cls-2" x="31.76" y="195.63" width="62.92" height="56.71"/></clipPath><clipPath id="clippath-1"><rect class="cls-2" x="36.2" y="130.9" width="57.42" height="51.75"/></clipPath><clipPath id="clippath-2"><rect class="cls-2" x="33.01" y="62.37" width="57.77" height="52.05"/></clipPath></defs><rect class="cls-8" x="3.27" y="3.57" width="566.9" height="279.91" rx="10.92" ry="10.92"/><rect class="cls-10" x="25.13" y="24.78" width="172.16" height="237.45" rx="10.92" ry="10.92"/><rect class="cls-14" x="271.3" y="58.18" width="102.48" height="62.22" rx="10.92" ry="10.92"/><path class="cls-3" d="M61.89,24.78h98.04v5.19c0,10.11-8.21,18.31-18.31,18.31h-62.51c-9.5,0-17.22-7.72-17.22-17.22v-6.29h0Z"/><rect class="cls-10" x="220.39" y="24.78" width="189.01" height="106.43" rx="10.92" ry="10.92"/><rect class="cls-10" x="221.15" y="152.89" width="325.7" height="109.34" rx="10.92" ry="10.92"/><rect class="cls-7" x="233.35" y="60.83" width="164.99" height="55.13" rx="10.92" ry="10.92"/><rect class="cls-9" x="419.4" y="25.7" width="127.45" height="45.18" rx="10" ry="10"/><rect class="cls-9" x="419.4" y="86.33" width="127.45" height="45.18" rx="10" ry="10"/><path class="cls-10" d="M303.27,95.41c-.22,0-.41-.07-.58-.2-.17-.13-.29-.31-.36-.54l-3.62-12.02c-.12-.4-.11-.71.03-.95.14-.23.36-.35.67-.35.2,0,.39.06.56.17s.29.29.36.53l3.15,10.98h-.4l2.92-10.87c.05-.18.16-.33.32-.45.17-.12.36-.18.58-.18.19,0,.38.05.55.15.17.1.28.25.33.46l2.93,10.89h-.36l3.17-11.07c.12-.41.43-.61.92-.61.34,0,.55.13.65.39.1.26.1.56,0,.91l-3.62,12.01c-.08.23-.21.41-.37.55s-.35.21-.57.21c-.23,0-.42-.07-.58-.22-.16-.14-.28-.32-.35-.52l-2.9-11.2h.43l-2.93,11.18c-.08.23-.21.41-.37.55s-.35.21-.57.21Z"/><path class="cls-10" d="M318.1,95.41c-.26,0-.49-.09-.67-.27s-.27-.4-.27-.67v-12.19c0-.28.09-.5.27-.67.18-.17.4-.26.67-.26h3.6c.9,0,1.7.2,2.39.59.7.4,1.24.95,1.63,1.65.39.7.58,1.51.58,2.42s-.2,1.66-.58,2.34c-.39.68-.93,1.22-1.63,1.6-.7.38-1.49.58-2.39.58h-2.66v3.94c0,.26-.09.49-.26.67-.17.18-.4.27-.67.27ZM319.04,88.8h2.66c.55,0,1.04-.12,1.46-.36s.75-.57.99-.99c.24-.42.36-.9.36-1.44,0-.58-.12-1.08-.36-1.52-.24-.44-.57-.78-.99-1.04s-.91-.38-1.46-.38h-2.66v5.72Z"/><path class="cls-10" d="M334.72,95.41c-.24,0-.44-.09-.61-.27-.17-.18-.25-.4-.25-.65v-2.27h-5.99c-.28,0-.49-.08-.65-.25-.16-.17-.24-.36-.26-.58-.02-.22.04-.42.17-.6l6.89-9.04c.1-.12.21-.22.33-.29s.27-.11.42-.11c.25,0,.46.09.61.27s.23.4.23.67v8.28h1.08c.25,0,.47.06.65.18.18.12.27.34.27.65,0,.23-.09.42-.27.58-.18.16-.4.24-.65.24h-1.08v2.27c0,.25-.08.47-.25.65-.17.18-.38.27-.65.27ZM328.94,91.07l-.49-.5h5.4v-7.42l.56.72-5.47,7.2Z"/><rect class="cls-11" x="239.01" y="195.63" width="89.12" height="54.43" rx="10.92" ry="10.92"/><path class="cls-10" d="M282.31,230.68c-.22,0-.41-.07-.58-.2-.17-.13-.29-.31-.36-.54l-3.62-12.02c-.12-.4-.11-.71.03-.95s.36-.35.67-.35c.2,0,.39.06.56.17s.29.29.36.53l3.15,10.98h-.4l2.92-10.87c.05-.18.16-.33.32-.45.17-.12.36-.18.58-.18.19,0,.38.05.55.15.17.1.29.25.33.46l2.93,10.89h-.36l3.17-11.07c.12-.41.43-.61.92-.61.34,0,.55.13.65.39.1.26.1.56,0,.91l-3.62,12.01c-.08.23-.21.41-.37.55s-.35.21-.57.21c-.23,0-.42-.07-.58-.22-.16-.14-.28-.32-.35-.52l-2.9-11.2h.43l-2.93,11.18c-.08.23-.21.41-.37.55-.16.14-.35.21-.57.21Z"/><path class="cls-10" d="M297.14,230.68c-.26,0-.49-.09-.67-.27s-.27-.4-.27-.67v-12.19c0-.28.09-.5.27-.67.18-.17.4-.26.67-.26h3.6c.9,0,1.7.2,2.39.59.7.4,1.24.95,1.63,1.65.39.7.58,1.51.58,2.42s-.2,1.66-.58,2.34c-.39.68-.93,1.22-1.63,1.6-.7.38-1.49.58-2.39.58h-2.66v3.94c0,.26-.09.49-.26.67-.17.18-.4.27-.67.27ZM298.07,224.07h2.66c.55,0,1.04-.12,1.46-.36s.75-.57.99-.99c.24-.42.36-.9.36-1.44,0-.58-.12-1.08-.36-1.52-.24-.44-.57-.78-.99-1.04s-.91-.38-1.46-.38h-2.66v5.72Z"/><path class="cls-10" d="M311.36,230.68c-.86,0-1.64-.2-2.33-.6-.69-.4-1.24-.95-1.64-1.65-.4-.7-.6-1.48-.6-2.34,0-.26.08-.48.25-.66s.38-.26.65-.26.49.09.67.26c.18.17.27.39.27.66,0,.52.12.98.36,1.4.24.42.57.75.98.99.41.24.88.36,1.4.36s1-.12,1.41-.36c.41-.24.74-.57.98-.99s.36-.89.36-1.4-.12-1-.36-1.41-.57-.74-.98-.98c-.41-.24-.89-.36-1.41-.36h-3.01c-.26,0-.48-.09-.65-.26-.17-.17-.25-.39-.25-.66v-4.86c0-.26.08-.49.25-.67s.38-.27.65-.27h6.01c.25,0,.47.09.65.28.18.19.27.41.27.66s-.09.45-.26.63c-.17.18-.39.27-.66.27h-5.09v3.04h2.09c.88,0,1.66.2,2.35.6.69.4,1.24.95,1.64,1.64.4.69.6,1.47.6,2.35s-.2,1.64-.6,2.34c-.4.7-.95,1.25-1.64,1.65-.69.4-1.47.6-2.35.6Z"/><rect class="cls-11" x="336.83" y="195.63" width="100.88" height="54.43" rx="10.92" ry="10.92"/><path class="cls-10" d="M397.97,230.68c-.22,0-.41-.07-.58-.2-.17-.13-.29-.31-.36-.54l-3.62-12.02c-.12-.4-.11-.71.03-.95s.36-.35.67-.35c.2,0,.39.06.56.17s.29.29.36.53l3.15,10.98h-.4l2.92-10.87c.05-.18.16-.33.32-.45.17-.12.36-.18.58-.18.19,0,.38.05.55.15.17.1.29.25.33.46l2.93,10.89h-.36l3.17-11.07c.12-.41.43-.61.92-.61.34,0,.55.13.65.39.1.26.1.56,0,.91l-3.62,12.01c-.08.23-.21.41-.37.55s-.35.21-.57.21c-.23,0-.42-.07-.58-.22-.16-.14-.28-.32-.35-.52l-2.9-11.2h.43l-2.93,11.18c-.08.23-.21.41-.37.55-.16.14-.35.21-.57.21Z"/><path class="cls-10" d="M412.8,230.68c-.26,0-.49-.09-.67-.27s-.27-.4-.27-.67v-12.19c0-.28.09-.5.27-.67.18-.17.4-.26.67-.26h3.6c.9,0,1.7.2,2.39.59.7.4,1.24.95,1.63,1.65.39.7.58,1.51.58,2.42s-.2,1.66-.58,2.34c-.39.68-.93,1.22-1.63,1.6-.7.38-1.49.58-2.39.58h-2.66v3.94c0,.26-.09.49-.26.67-.17.18-.4.27-.67.27ZM413.73,224.07h2.66c.55,0,1.04-.12,1.46-.36s.75-.57.99-.99c.24-.42.36-.9.36-1.44,0-.58-.12-1.08-.36-1.52-.24-.44-.57-.78-.99-1.04s-.91-.38-1.46-.38h-2.66v5.72Z"/><path class="cls-10" d="M426.69,230.68c-.83,0-1.56-.18-2.21-.55s-1.14-.87-1.5-1.51c-.36-.64-.54-1.38-.54-2.21s.18-1.58.54-2.22c.36-.64.86-1.15,1.5-1.51s1.38-.55,2.21-.55,1.56.18,2.2.55c.64.37,1.13.87,1.49,1.51.36.64.54,1.38.54,2.22s-.18,1.56-.54,2.21c-.36.64-.86,1.15-1.49,1.51-.64.37-1.37.55-2.2.55ZM423.04,224.11l4.18-6.97c.22-.34.49-.5.83-.5.25,0,.46.07.63.22.17.14.27.32.31.54s0,.43-.13.65l-2.56,4.25-3.26,1.82ZM426.68,229.06c.49,0,.93-.11,1.3-.33.38-.22.67-.53.89-.94s.32-.86.32-1.38-.11-.99-.32-1.39c-.22-.4-.51-.71-.89-.94s-.81-.34-1.3-.34-.93.11-1.31.34-.67.54-.88.94c-.21.4-.31.86-.31,1.39s.1.97.31,1.38.5.71.88.94c.38.22.81.33,1.31.33Z"/><rect class="cls-11" x="444.27" y="195.63" width="91.21" height="54.43" rx="10.92" ry="10.92"/><path class="cls-10" d="M490.71,230.68c-.22,0-.41-.07-.58-.2-.17-.13-.29-.31-.36-.54l-3.62-12.02c-.12-.4-.11-.71.03-.95s.36-.35.67-.35c.2,0,.39.06.56.17s.29.29.36.53l3.15,10.98h-.4l2.92-10.87c.05-.18.16-.33.32-.45.17-.12.36-.18.58-.18.19,0,.38.05.55.15.17.1.29.25.33.46l2.93,10.89h-.36l3.17-11.07c.12-.41.43-.61.92-.61.34,0,.55.13.65.39.1.26.1.56,0,.91l-3.62,12.01c-.08.23-.21.41-.37.55s-.35.21-.57.21c-.23,0-.42-.07-.58-.22-.16-.14-.28-.32-.35-.52l-2.9-11.2h.43l-2.93,11.18c-.08.23-.21.41-.37.55-.16.14-.35.21-.57.21Z"/><path class="cls-10" d="M505.54,230.68c-.26,0-.49-.09-.67-.27s-.27-.4-.27-.67v-12.19c0-.28.09-.5.27-.67.18-.17.4-.26.67-.26h3.6c.9,0,1.7.2,2.39.59.7.4,1.24.95,1.63,1.65.39.7.58,1.51.58,2.42s-.2,1.66-.58,2.34c-.39.68-.93,1.22-1.63,1.6-.7.38-1.49.58-2.39.58h-2.66v3.94c0,.26-.09.49-.26.67-.17.18-.4.27-.67.27ZM506.48,224.07h2.66c.55,0,1.04-.12,1.46-.36s.75-.57.99-.99c.24-.42.36-.9.36-1.44,0-.58-.12-1.08-.36-1.52-.24-.44-.57-.78-.99-1.04s-.91-.38-1.46-.38h-2.66v5.72Z"/><path class="cls-10" d="M516.59,230.68c-.24,0-.45-.09-.63-.27s-.27-.4-.27-.65c0-.1.01-.19.04-.28s.07-.19.12-.3l5.17-10.73h-5.47c-.26,0-.48-.09-.66-.26-.17-.17-.26-.39-.26-.66s.09-.48.26-.66.39-.26.66-.26h6.86c.25,0,.47.09.65.27s.27.4.27.65c0,.08-.01.17-.04.24-.02.08-.05.16-.09.24l-5.76,12.15c-.19.34-.47.5-.85.5Z"/><path class="cls-10" d="M479.88,57.69c-.22,0-.41-.07-.58-.2-.17-.13-.29-.31-.36-.54l-3.62-12.02c-.12-.4-.11-.71.03-.95.14-.23.36-.35.67-.35.2,0,.39.06.56.17s.29.29.36.53l3.15,10.98h-.4l2.92-10.87c.05-.18.16-.33.32-.45.17-.12.36-.18.58-.18.19,0,.38.05.55.15.17.1.29.25.33.46l2.93,10.89h-.36l3.17-11.07c.12-.41.43-.61.92-.61.34,0,.55.13.65.39.1.26.1.56,0,.91l-3.62,12.01c-.08.23-.21.41-.37.55s-.35.21-.57.21c-.23,0-.42-.07-.58-.22-.16-.14-.28-.32-.35-.52l-2.9-11.2h.43l-2.93,11.18c-.08.23-.21.41-.37.55-.16.14-.35.21-.57.21Z"/><path class="cls-10" d="M494.71,57.69c-.26,0-.49-.09-.67-.27s-.27-.4-.27-.67v-12.19c0-.28.09-.5.27-.67.18-.17.4-.26.67-.26h3.6c.9,0,1.7.2,2.39.59.7.4,1.24.95,1.63,1.65.39.7.58,1.51.58,2.42s-.2,1.66-.58,2.34c-.39.68-.93,1.22-1.63,1.6-.7.38-1.49.58-2.39.58h-2.66v3.94c0,.26-.09.49-.26.67-.17.18-.4.27-.67.27ZM495.65,51.08h2.66c.55,0,1.04-.12,1.46-.36s.75-.57.99-.99c.24-.42.36-.9.36-1.44,0-.58-.12-1.08-.36-1.52-.24-.44-.57-.78-.99-1.04s-.91-.38-1.46-.38h-2.66v5.72Z"/><path class="cls-10" d="M508.43,57.67c-.79,0-1.5-.19-2.13-.57-.63-.38-1.12-.89-1.49-1.55s-.54-1.39-.54-2.21.18-1.5.54-2.13.85-1.12,1.49-1.49c.63-.36,1.34-.54,2.13-.54s1.5.18,2.12.54c.62.36,1.12.86,1.48,1.49s.54,1.34.53,2.13c0,.82-.18,1.55-.55,2.21s-.86,1.17-1.49,1.55-1.33.57-2.11.57ZM508.43,50.5c-.68,0-1.29-.15-1.83-.45-.53-.3-.96-.71-1.27-1.21-.31-.51-.47-1.09-.47-1.74,0-.68.16-1.29.47-1.83.31-.53.74-.96,1.27-1.28.53-.32,1.14-.48,1.83-.48.68-.01,1.29.14,1.83.45.53.31.96.74,1.27,1.28.31.54.46,1.16.45,1.85,0,.65-.16,1.23-.47,1.74-.31.51-.74.92-1.27,1.21s-1.14.45-1.81.45ZM508.43,56.01c.44,0,.84-.12,1.2-.36.35-.24.63-.56.84-.96.2-.4.31-.85.31-1.34.01-.48-.08-.91-.29-1.29s-.48-.68-.84-.9c-.35-.22-.76-.33-1.21-.33s-.85.11-1.21.33c-.36.22-.64.52-.85.9s-.31.81-.31,1.29.1.94.3,1.34c.2.4.48.72.84.96.36.24.77.36,1.22.36ZM508.43,49.01c.34,0,.64-.09.9-.27.26-.18.47-.42.63-.71.16-.29.23-.62.23-.98.01-.36-.06-.68-.22-.95-.16-.28-.37-.5-.63-.66-.26-.16-.57-.24-.92-.24-.5,0-.92.17-1.26.52-.34.35-.51.79-.52,1.33s.15,1,.5,1.39.77.58,1.29.58Z"/><path class="cls-10" d="M479.88,118.34c-.22,0-.41-.07-.58-.2-.17-.13-.29-.31-.36-.54l-3.62-12.02c-.12-.4-.11-.71.03-.95.14-.23.36-.35.67-.35.2,0,.39.06.56.17s.29.29.36.53l3.15,10.98h-.4l2.92-10.87c.05-.18.16-.33.32-.45.17-.12.36-.18.58-.18.19,0,.38.05.55.15.17.1.29.25.33.46l2.93,10.89h-.36l3.17-11.07c.12-.41.43-.61.92-.61.34,0,.55.13.65.39.1.26.1.56,0,.91l-3.62,12.01c-.08.23-.21.41-.37.55s-.35.21-.57.21c-.23,0-.42-.07-.58-.22-.16-.14-.28-.32-.35-.52l-2.9-11.2h.43l-2.93,11.18c-.08.23-.21.41-.37.55-.16.14-.35.21-.57.21Z"/><path class="cls-10" d="M494.71,118.34c-.26,0-.49-.09-.67-.27s-.27-.4-.27-.67v-12.19c0-.28.09-.5.27-.67.18-.17.4-.26.67-.26h3.6c.9,0,1.7.2,2.39.59.7.4,1.24.95,1.63,1.65.39.7.58,1.51.58,2.42s-.2,1.66-.58,2.34c-.39.68-.93,1.22-1.63,1.6-.7.38-1.49.58-2.39.58h-2.66v3.94c0,.26-.09.49-.26.67-.17.18-.4.27-.67.27ZM495.65,111.74h2.66c.55,0,1.04-.12,1.46-.36s.75-.57.99-.99c.24-.42.36-.9.36-1.44,0-.58-.12-1.08-.36-1.52-.24-.44-.57-.78-.99-1.04s-.91-.38-1.46-.38h-2.66v5.72Z"/><path class="cls-10" d="M508.23,104.27c.84,0,1.58.18,2.21.55.64.37,1.13.87,1.49,1.51.36.64.54,1.38.54,2.21s-.18,1.57-.54,2.21c-.36.65-.86,1.16-1.49,1.52-.64.37-1.37.55-2.21.55s-1.54-.18-2.19-.55c-.64-.37-1.14-.87-1.5-1.52-.36-.65-.54-1.39-.54-2.21s.18-1.56.54-2.21c.36-.64.86-1.15,1.49-1.51.64-.37,1.37-.55,2.2-.55ZM508.25,105.89c-.49,0-.93.11-1.3.33-.38.22-.67.53-.89.93-.22.4-.32.86-.32,1.39s.11.97.32,1.38c.22.4.51.72.89.94.38.23.81.34,1.3.34s.93-.11,1.31-.34c.38-.23.67-.54.88-.94.21-.4.31-.86.31-1.38s-.1-.99-.31-1.39c-.21-.4-.5-.7-.88-.93-.38-.22-.81-.33-1.31-.33ZM511.88,110.84l-4.18,6.97c-.22.34-.49.5-.83.5-.24,0-.45-.07-.62-.22-.17-.14-.28-.33-.32-.55s0-.43.13-.64l2.56-4.25,3.26-1.82Z"/><rect class="cls-5" x="38.22" y="131.38" width="145.75" height="50.54" rx="10.92" ry="10.92"/><path class="cls-10" d="M96.12,160.84c-.22,0-.41-.07-.58-.2-.17-.13-.29-.31-.36-.54l-3.62-12.02c-.12-.4-.11-.71.03-.95s.36-.35.67-.35c.2,0,.39.06.56.17s.29.29.36.53l3.15,10.98h-.4l2.92-10.87c.05-.18.16-.33.32-.45.17-.12.36-.18.58-.18.19,0,.38.05.55.15.17.1.29.25.33.46l2.93,10.89h-.36l3.17-11.07c.12-.41.43-.61.92-.61.34,0,.55.13.65.39.1.26.1.56,0,.91l-3.62,12.01c-.08.23-.21.41-.37.55s-.35.21-.57.21c-.23,0-.42-.07-.58-.22-.16-.14-.28-.32-.35-.52l-2.9-11.2h.43l-2.93,11.18c-.08.23-.21.41-.37.55-.16.14-.35.21-.57.21Z"/><path class="cls-10" d="M110.96,160.84c-.26,0-.49-.09-.67-.27s-.27-.4-.27-.67v-12.19c0-.28.09-.5.27-.67.18-.17.4-.26.67-.26h3.6c.9,0,1.7.2,2.39.59.7.4,1.24.95,1.63,1.65.39.7.58,1.51.58,2.42s-.2,1.66-.58,2.34c-.39.68-.93,1.22-1.63,1.6-.7.38-1.49.58-2.39.58h-2.66v3.94c0,.26-.09.49-.26.67-.17.18-.4.27-.67.27ZM111.89,154.23h2.66c.55,0,1.04-.12,1.46-.36s.75-.57.99-.99c.24-.42.36-.9.36-1.44,0-.58-.12-1.08-.36-1.52-.24-.44-.57-.78-.99-1.04s-.91-.38-1.46-.38h-2.66v5.72Z"/><path class="cls-10" d="M121.52,160.84c-.26,0-.48-.09-.66-.27-.17-.18-.26-.4-.26-.65s.08-.48.25-.65l5.11-5.98c.36-.42.64-.82.84-1.19.2-.37.3-.73.3-1.06,0-.53-.09-.98-.27-1.37-.18-.38-.44-.68-.77-.89s-.74-.32-1.21-.32-.87.12-1.23.35c-.37.23-.65.55-.86.94-.21.39-.32.82-.32,1.29,0,.24-.09.45-.26.63s-.39.27-.66.27-.47-.09-.65-.27c-.18-.18-.27-.39-.27-.63,0-.82.19-1.54.56-2.19.37-.64.88-1.15,1.52-1.52.64-.37,1.37-.56,2.17-.56s1.52.17,2.12.52c.6.35,1.06.84,1.39,1.48.33.64.5,1.39.5,2.27,0,.38-.08.77-.24,1.17-.16.4-.37.77-.61,1.13-.25.36-.5.68-.75.97l-4.12,4.68h5.04c.26,0,.49.09.67.28.18.19.27.4.27.64s-.09.47-.27.65c-.18.18-.4.27-.67.27h-6.66Z"/><path class="cls-5" d="M123.97,112.74l-12.03,17.33c-.71,1.03-2.24,1-2.92-.04l-11.31-17.33c-.76-1.17.08-2.72,1.47-2.72h23.34c1.42,0,2.26,1.6,1.45,2.76Z"/><path class="cls-10" d="M198.06,69.04l17.33,12.03c1.03.71,1,2.24-.04,2.92l-17.33,11.31c-1.17.76-2.72-.08-2.72-1.47v-23.34c0-1.42,1.6-2.26,2.76-1.45Z"/><path class="cls-10" d="M325.03,128.99l-12.03,17.33c-.71,1.03-2.24,1-2.92-.04l-11.31-17.33c-.76-1.17.08-2.72,1.47-2.72h23.34c1.42,0,2.26,1.6,1.45,2.76Z"/><path class="cls-10" d="M198.06,194.06l17.33,12.03c1.03.71,1,2.24-.04,2.92l-17.33,11.31c-1.17.76-2.72-.08-2.72-1.47v-23.34c0-1.42,1.6-2.26,2.76-1.45Z"/><path class="cls-5" d="M124.03,181.69l-12.03,17.33c-.71,1.03-2.24,1-2.92-.04l-11.31-17.33c-.76-1.17.08-2.72,1.47-2.72h23.34c1.42,0,2.26,1.6,1.45,2.76Z"/><path class="cls-1" d="M262.89,24.78h98.04v5.19c0,10.11-8.21,18.31-18.31,18.31h-61.29c-10.18,0-18.44-8.26-18.44-18.44v-5.07h0Z"/><path class="cls-4" d="M338.24,152.89h98.04v5.19c0,10.11-8.21,18.31-18.31,18.31h-61.29c-10.18,0-18.44-8.26-18.44-18.44v-5.07h0Z"/><path class="cls-6" d="M370.68,167.3c-.15,0-.27-.05-.37-.15-.1-.1-.15-.22-.15-.37v-6.77c0-.15.05-.28.15-.38.1-.1.22-.14.37-.14s.28.05.38.14.15.22.15.38v6.77c0,.15-.05.27-.15.37-.1.1-.22.15-.38.15Z"/><path class="cls-6" d="M373.61,167.31c-.15,0-.27-.05-.37-.14s-.14-.22-.14-.37v-4.45c0-.15.05-.28.14-.37.1-.09.22-.14.37-.14s.28.05.37.14c.09.09.14.22.14.37v4.45c0,.15-.05.27-.14.37-.09.1-.22.14-.37.14ZM376.95,167.31c-.15,0-.27-.05-.37-.14s-.14-.22-.14-.37v-2.86c0-.42-.1-.73-.31-.93-.21-.2-.48-.3-.81-.3s-.63.12-.86.36-.34.55-.34.92h-.63c0-.43.09-.81.26-1.14.17-.33.41-.59.72-.78s.66-.28,1.05-.28.72.08,1.01.25c.29.17.52.41.68.73.16.32.25.71.25,1.17v2.86c0,.15-.05.27-.14.37-.09.1-.22.14-.37.14ZM380.28,167.31c-.15,0-.27-.05-.37-.14s-.14-.22-.14-.37v-2.86c0-.42-.1-.73-.31-.93-.21-.2-.48-.3-.81-.3s-.63.12-.86.36-.33.55-.33.92h-.83c0-.43.09-.81.28-1.14s.45-.59.79-.78.72-.28,1.16-.28c.38,0,.72.08,1.01.25.29.17.52.41.68.73s.25.71.25,1.17v2.86c0,.15-.05.27-.14.37-.09.1-.22.14-.37.14Z"/><path class="cls-6" d="M382.99,169.64c-.15,0-.27-.05-.37-.14s-.14-.22-.14-.37v-4.56c0-.53.13-1,.37-1.42.24-.42.57-.75.98-.99.41-.24.88-.37,1.4-.37s1,.12,1.41.37c.41.24.74.57.99.99s.37.89.37,1.42-.11,1-.33,1.42c-.22.42-.53.75-.92.99s-.82.37-1.31.37c-.39,0-.75-.08-1.08-.25s-.61-.38-.84-.67v2.7c0,.15-.05.27-.14.37-.09.1-.22.14-.37.14ZM385.23,166.44c.34,0,.64-.08.91-.25.27-.16.48-.39.64-.67.16-.28.23-.6.23-.96s-.08-.68-.23-.96c-.16-.28-.37-.51-.64-.67-.27-.16-.57-.25-.91-.25s-.64.08-.91.25c-.27.16-.48.39-.63.67-.15.28-.23.61-.23.96s.08.67.23.96c.15.28.36.51.63.67.27.16.57.25.91.25Z"/><path class="cls-6" d="M391.79,167.34c-.49,0-.92-.12-1.31-.37s-.69-.57-.92-.99c-.22-.42-.33-.89-.33-1.42s.12-1,.37-1.42c.24-.42.57-.75.99-.99.42-.24.89-.37,1.41-.37s.99.12,1.4.37c.41.24.74.57.98.99s.37.89.37,1.42h-.39c0,.53-.11,1-.33,1.42-.22.42-.53.75-.92.99s-.82.37-1.31.37ZM391.99,166.44c.34,0,.64-.08.91-.25.27-.16.48-.39.63-.67.15-.28.23-.6.23-.96s-.08-.68-.23-.96c-.15-.28-.36-.51-.63-.67-.27-.16-.57-.25-.91-.25s-.63.08-.91.25c-.27.16-.48.39-.64.67-.16.28-.24.61-.24.96s.08.67.24.96c.16.28.37.51.64.67.27.16.57.25.91.25ZM394.23,167.31c-.15,0-.27-.05-.37-.14s-.14-.22-.14-.37v-1.53l.19-1.06.83.36v2.23c0,.15-.05.27-.14.37s-.22.14-.37.14Z"/><path class="cls-6" d="M398.74,167.34c-.53,0-1.01-.12-1.42-.37-.42-.24-.74-.57-.98-.99-.24-.42-.35-.89-.35-1.42s.12-1.02.35-1.44.55-.75.96-.99c.41-.24.87-.35,1.4-.35.39,0,.75.08,1.08.22.33.15.62.38.88.67.09.11.13.22.1.33-.03.11-.1.21-.22.3-.09.07-.2.09-.31.07-.11-.02-.22-.08-.31-.17-.33-.35-.73-.52-1.22-.52-.34,0-.64.08-.9.24-.26.16-.46.38-.61.66-.15.28-.22.61-.22.99,0,.36.08.68.23.96.15.28.36.5.62.66.27.16.58.25.93.25.23,0,.44-.03.62-.08s.34-.14.49-.26c.11-.09.22-.13.33-.15.11,0,.21.02.3.1.11.09.18.2.19.31.01.12-.03.22-.12.32-.48.45-1.08.67-1.8.67Z"/><path class="cls-6" d="M402.04,162.89c-.14,0-.25-.04-.34-.12s-.13-.18-.13-.3c0-.13.04-.24.13-.32s.2-.12.34-.12h2.31c.14,0,.25.04.34.12.09.08.13.19.13.32,0,.12-.04.22-.13.3-.09.08-.2.12-.34.12h-2.31ZM404.26,167.3c-.33,0-.63-.08-.9-.25s-.48-.4-.63-.7c-.15-.29-.23-.62-.23-.99v-4.77c0-.15.05-.27.14-.36.09-.09.21-.14.36-.14s.27.05.36.14c.09.09.14.21.14.36v4.77c0,.27.07.49.22.67.15.18.33.27.54.27h.34c.12,0,.22.05.3.14.08.09.12.21.12.36s-.05.27-.17.36c-.11.09-.25.14-.42.14h-.18Z"/><rect class="cls-5" x="38.22" y="62.36" width="145.75" height="50.54" rx="10.92" ry="10.92"/><path class="cls-10" d="M98.4,93.76c-.22,0-.41-.07-.58-.2-.17-.13-.29-.31-.36-.54l-3.62-12.02c-.12-.4-.11-.71.03-.95s.36-.35.67-.35c.2,0,.39.06.56.17s.29.29.36.53l3.15,10.98h-.4l2.92-10.87c.05-.18.16-.33.32-.45.17-.12.36-.18.58-.18.19,0,.38.05.55.15.17.1.29.25.33.46l2.93,10.89h-.36l3.17-11.07c.12-.41.43-.61.92-.61.34,0,.55.13.65.39.1.26.1.56,0,.91l-3.62,12.01c-.08.23-.21.41-.37.55s-.35.21-.57.21c-.23,0-.42-.07-.58-.22-.16-.14-.28-.32-.35-.52l-2.9-11.2h.43l-2.93,11.18c-.08.23-.21.41-.37.55-.16.14-.35.21-.57.21Z"/><path class="cls-10" d="M113.23,93.76c-.26,0-.49-.09-.67-.27s-.27-.4-.27-.67v-12.19c0-.28.09-.5.27-.67.18-.17.4-.26.67-.26h3.6c.9,0,1.7.2,2.39.59.7.4,1.24.95,1.63,1.65.39.7.58,1.51.58,2.42s-.2,1.66-.58,2.34c-.39.68-.93,1.22-1.63,1.6-.7.38-1.49.58-2.39.58h-2.66v3.94c0,.26-.09.49-.26.67-.17.18-.4.27-.67.27ZM114.17,87.16h2.66c.55,0,1.04-.12,1.46-.36s.75-.57.99-.99c.24-.42.36-.9.36-1.44,0-.58-.12-1.08-.36-1.52-.24-.44-.57-.78-.99-1.04s-.91-.38-1.46-.38h-2.66v5.72Z"/><path class="cls-10" d="M126.05,93.76c-.24,0-.45-.09-.63-.27-.18-.18-.27-.4-.27-.65v-10.98l-1.31.56c-.2.08-.4.13-.58.13-.26,0-.48-.08-.66-.25s-.26-.38-.26-.65c0-.19.05-.37.14-.52.1-.16.25-.27.45-.34l2.81-1.01c.06-.02.12-.04.18-.05.06-.01.11-.02.16-.02.28,0,.5.09.66.26s.24.4.24.67v12.2c0,.25-.09.47-.27.65-.18.18-.4.27-.67.27Z"/><rect class="cls-5" x="38.22" y="199.2" width="145.75" height="50.54" rx="10.92" ry="10.92"/><path class="cls-10" d="M96.41,232.88c-.22,0-.41-.07-.58-.2-.17-.13-.29-.31-.36-.54l-3.62-12.02c-.12-.4-.11-.71.03-.95s.36-.35.67-.35c.2,0,.39.06.56.17s.29.29.36.53l3.15,10.98h-.4l2.92-10.87c.05-.18.16-.33.32-.45.17-.12.36-.18.58-.18.19,0,.38.05.55.15.17.1.29.25.33.46l2.93,10.89h-.36l3.17-11.07c.12-.41.43-.61.92-.61.34,0,.55.13.65.39.1.26.1.56,0,.91l-3.62,12.01c-.08.23-.21.41-.37.55s-.35.21-.57.21c-.23,0-.42-.07-.58-.22-.16-.14-.28-.32-.35-.52l-2.9-11.2h.43l-2.93,11.18c-.08.23-.21.41-.37.55-.16.14-.35.21-.57.21Z"/><path class="cls-10" d="M111.24,232.88c-.26,0-.49-.09-.67-.27s-.27-.4-.27-.67v-12.19c0-.28.09-.5.27-.67.18-.17.4-.26.67-.26h3.6c.9,0,1.7.2,2.39.59.7.4,1.24.95,1.63,1.65.39.7.58,1.51.58,2.42s-.2,1.66-.58,2.34c-.39.68-.93,1.22-1.63,1.6-.7.38-1.49.58-2.39.58h-2.66v3.94c0,.26-.09.49-.26.67-.17.18-.4.27-.67.27ZM112.17,226.28h2.66c.55,0,1.04-.12,1.46-.36s.75-.57.99-.99c.24-.42.36-.9.36-1.44,0-.58-.12-1.08-.36-1.52-.24-.44-.57-.78-.99-1.04s-.91-.38-1.46-.38h-2.66v5.72Z"/><path class="cls-10" d="M125.33,232.88c-.9,0-1.7-.19-2.39-.57-.7-.38-1.24-.89-1.64-1.55-.4-.65-.59-1.39-.59-2.21,0-.28.08-.5.24-.67.16-.17.36-.26.58-.26s.44.09.59.26c.16.17.23.4.23.67,0,.49.13.95.38,1.36s.59.74,1.03.99c.43.25.92.37,1.46.37.79,0,1.43-.22,1.92-.66.49-.44.73-1.05.73-1.84,0-.5-.11-.96-.32-1.36s-.51-.72-.88-.96c-.37-.24-.79-.36-1.26-.36-.26,0-.48-.09-.66-.27-.17-.18-.26-.4-.26-.67s.09-.48.26-.66c.17-.17.39-.26.66-.26.33,0,.66-.09.97-.26.31-.17.57-.41.77-.7s.31-.63.31-1c0-.53-.19-.97-.58-1.33-.38-.36-.88-.54-1.48-.54-.46,0-.87.09-1.25.27-.38.18-.68.42-.9.72-.22.3-.33.64-.33,1.01,0,.28-.08.51-.23.69-.16.19-.35.28-.59.28s-.42-.09-.58-.26-.24-.39-.24-.66c0-.7.18-1.32.54-1.87s.85-.99,1.48-1.3c.62-.32,1.32-.48,2.09-.48.71,0,1.35.15,1.92.46.57.31,1.02.72,1.35,1.24s.5,1.11.5,1.77c0,.47-.11.88-.32,1.24-.21.36-.48.67-.8.93s-.67.47-1.03.64c.64.22,1.15.51,1.55.87.4.37.69.79.87,1.27.19.48.28,1,.28,1.57,0,.78-.2,1.48-.59,2.1-.4.62-.92,1.1-1.58,1.46-.66.35-1.39.53-2.18.53Z"/><g id="Group_14828"><g class="cls-12"><g id="Group_14827"><g id="Group_14815"><path id="Path_47562" class="cls-10" d="M64.86,217.42c-.45.37-.74.9-.82,1.48h-1.66c-.08-.58-.37-1.1-.82-1.48-.69-.44-1.54-.55-2.32-.31,2.34-1.54,5.37-1.56,7.73-.04-.72-.18-1.49-.05-2.12.36M64.98,224.69h-3.53c.59-1.54.93-3.17,1.02-4.82h1.49c.09,1.65.43,3.28,1.02,4.82M63.13,237.05c-.93-1.97-2.07-3.84-3.4-5.58h6.83c-1.37,1.71-2.52,3.59-3.44,5.58M65.32,225.67c.6,1.6,1.3,3.17,2.1,4.68-.03.05-.07.09-.1.14h-8.33l-.04-.05c.82-1.54,1.53-3.13,2.14-4.77h4.23ZM56.76,232.15c-4.61,5.42-12.24-1.09-8.19-6.35,1.41-1.67,3.03-3.16,4.83-4.41,1.82-1.37,4.08-3.1,6.4-3.4,1.16-.15,1.47.47,1.66,1.48.15,2.09-.69,4.3-1.43,6.21-.85,2.19-1.75,4.66-3.28,6.47M78.62,225.21c-1.33-1.73-5.7-5.52-9.25-7.28-.67-.83-1.49-1.51-2.42-2.02.53-.67.78-1.53.68-2.38-.15-1.31-.92-2.46-2.07-3.11.51-.95,1.5-1.55,2.58-1.56.27,0,.49-.22.49-.49s-.22-.49-.49-.49h0c-1.47.02-2.81.85-3.48,2.15-.97-.3-2.02-.3-2.99,0-.67-1.31-2.01-2.14-3.49-2.16-.27,0-.49.22-.49.49s.22.49.49.49c1.05,0,2.02.57,2.54,1.49l.05.09c-.34.19-.64.43-.92.7-.19.19-.19.5,0,.69.19.19.5.19.69,0,1.14-1.06,2.81-1.34,4.23-.71,1.03.44,1.74,1.4,1.88,2.51.09.68-.14,1.36-.63,1.85-1.85-.7-3.89-.71-5.74,0-.34-.32-.55-.75-.62-1.21-.04-.27-.3-.45-.56-.4-.26.04-.43.28-.4.54.08.55.3,1.07.65,1.5-.98.53-1.84,1.26-2.52,2.15-3.51,1.81-7.72,5.47-9.03,7.16-2.07,2.75-1.51,6.67,1.24,8.73.04.03.08.06.11.08,3.43,2.42,7.36.65,9.28-2.65,2.73,3.55,3.97,6.25,4.24,7.18.08.26.36.4.62.32.16-.05.28-.18.32-.34,0-.03.69-2.74,4.33-7.24,1.13,1.96,2.67,3.5,5.02,3.8,1.9.24,3.79-.42,5.14-1.77.19-.19.19-.5,0-.69-.19-.19-.5-.19-.69,0h0c-1.14,1.14-2.73,1.69-4.32,1.49-2.49-.32-3.45-2.11-4.69-4-.92-1.73-1.71-3.53-2.37-5.37-1.22-3.44-1.44-5.9-.57-6.56.98-.76,2.65.18,3.44.59,3.35,1.69,7.69,5.39,8.95,7.03,1.06,1.37,1.36,3.18.81,4.82-.08.26.07.53.33.61.25.08.51-.06.6-.3.65-1.95.29-4.1-.96-5.73Z"/></g><g id="Group_14816"><path id="Path_47563" class="cls-10" d="M75.52,231.65c-.21.17-.23.48-.06.69.16.19.43.23.64.1,1.84-1.36,2.23-3.96.88-5.8-.18-.21-.48-.23-.69-.05-.19.16-.23.43-.1.63,1.04,1.41.74,3.4-.67,4.44"/></g><g id="Group_14817"><path id="Path_47564" class="cls-10" d="M49.77,212.62c.27,0,.49-.22.49-.49s-.22-.49-.49-.49-.49.22-.49.49.22.49.49.49"/></g><g id="Group_14818"><path id="Path_47565" class="cls-10" d="M54.7,215.3c.27,0,.49-.22.49-.49s-.22-.49-.49-.49-.49.22-.49.49.22.49.49.49"/></g><g id="Group_14819"><path id="Path_47566" class="cls-10" d="M49.95,218.37c.27,0,.49-.22.49-.49s-.22-.49-.49-.49-.49.22-.49.49.22.49.49.49"/></g><g id="Group_14820"><path id="Path_47567" class="cls-10" d="M76.04,212.62c.27,0,.49-.22.49-.49s-.22-.49-.49-.49-.49.22-.49.49.22.49.49.49"/></g><g id="Group_14821"><path id="Path_47568" class="cls-10" d="M71.11,215.3c.27,0,.49-.22.49-.49s-.22-.49-.49-.49-.49.22-.49.49.22.49.49.49"/></g><g id="Group_14822"><path id="Path_47569" class="cls-10" d="M75.86,218.37c.27,0,.49-.22.49-.49s-.22-.49-.49-.49-.49.22-.49.49.22.49.49.49"/></g><g id="Group_14823"><path id="Path_47570" class="cls-10" d="M57.64,235.8c-.27,0-.49.22-.49.49s.22.49.49.49.49-.22.49-.49-.22-.49-.49-.49"/></g><g id="Group_14824"><path id="Path_47571" class="cls-10" d="M52.16,238.06c-.27,0-.49.22-.49.49s.22.49.49.49.49-.22.49-.49-.22-.49-.49-.49"/></g><g id="Group_14825"><path id="Path_47572" class="cls-10" d="M68.79,235.8c-.27,0-.49.22-.49.49s.22.49.49.49.49-.22.49-.49-.22-.49-.49-.49"/></g><g id="Group_14826"><path id="Path_47573" class="cls-10" d="M74.27,238.06c-.27,0-.49.22-.49.49s.22.49.49.49.49-.22.49-.49-.22-.49-.49-.49"/></g></g></g></g><g id="Group_14875"><g class="cls-15"><g id="Group_14874"><g id="Group_14868"><path id="Path_47610" class="cls-10" d="M64.59,156.04v-9.39c.94-.3,1.47-1.31,1.16-2.26h0c-.24-.75-.93-1.25-1.71-1.25h-6.87c-.99,0-1.8.8-1.8,1.79h0c0,.78.5,1.47,1.25,1.71v9.39l-6.66,11.43c-.59,1.01-.25,2.3.76,2.88,0,0,0,0,0,0,.32.19.69.29,1.06.29h17.64c1.16,0,2.11-.94,2.11-2.11,0-.37-.1-.74-.29-1.06l-6.66-11.43ZM57.17,144.24h6.87c.39,0,.7.31.7.7,0,0,0,0,0,0,0,.39-.31.7-.7.7h-6.87c-.39,0-.7-.32-.7-.7,0-.39.31-.7.7-.7M57.65,156.46c.05-.08.07-.18.07-.28v-9.45h5.78v9.45c0,.1.03.19.07.28l2.26,3.87c-1.68.34-3.42.27-5.07-.18-1.66-.46-3.4-.55-5.09-.28l1.99-3.41ZM70.31,169.03c-.18.32-.52.51-.88.51h-17.64c-.56,0-1.01-.45-1.01-1.01h0c0-.18.05-.36.14-.51l4-6.87c1.82-.46,3.73-.44,5.55.07,1.05.29,2.13.43,3.22.43.92,0,1.83-.1,2.72-.32l3.9,6.69c.18.31.18.7,0,1.01"/></g><g id="Group_14869"><path id="Path_47611" class="cls-10" d="M61.23,163.88c-1.16,0-2.11.94-2.11,2.11,0,1.16.94,2.11,2.11,2.11h0c1.16,0,2.11-.94,2.11-2.11,0,0,0,0,0,0,0-1.16-.94-2.11-2.11-2.11M61.23,167c-.56,0-1.01-.45-1.01-1.01h0c0-.56.45-1.01,1.01-1.02,0,0,0,0,0,0,.56,0,1.01.45,1.01,1.01h0c0,.56-.45,1.01-1.01,1.02,0,0,0,0,0,0"/></g><g id="Group_14870"><path id="Path_47612" class="cls-10" d="M56.66,163.49c.34,0,.62.28.62.62h0c0,.34-.28.62-.62.62,0,0,0,0,0,0-.34,0-.62-.28-.62-.62,0,0,0,0,0,0,0-.34.28-.62.62-.62h0"/></g><g id="Group_14871"><path id="Path_47613" class="cls-10" d="M66.35,165.36c.34,0,.62.28.62.62h0c0,.34-.28.62-.62.62,0,0,0,0,0,0-.34,0-.62-.28-.62-.62,0,0,0,0,0,0,0-.34.28-.62.62-.62h0"/></g><g id="Group_14872"><path id="Path_47614" class="cls-10" d="M61.23,157.51c.34,0,.62.28.62.62h0c0,.34-.28.62-.62.62,0,0,0,0,0,0-.34,0-.62-.28-.62-.62,0,0,0,0,0,0,0-.34.28-.62.62-.62h0"/></g><g id="Group_14873"><path id="Path_47615" class="cls-10" d="M79.85,150.71l-1.35-.78v-2.81c0-.2-.1-.38-.27-.47l-2.43-1.4v-1.56c0-.3-.24-.55-.55-.55-.3,0-.55.24-.55.55v1.56l-2.16,1.25-1.35-.78c-.26-.15-.6-.06-.75.2,0,0,0,0,0,0-.15.26-.06.6.2.75l1.35.78v2.49l-2.16,1.25-1.35-.78c-.26-.15-.6-.06-.75.21,0,0,0,0,0,0-.15.26-.06.59.2.74l1.35.78v2.81c0,.2.1.38.27.47l2.43,1.4v1.56c0,.3.25.55.55.55.3,0,.55-.24.55-.55v-1.56l2.16-1.25,1.35.78c.26.15.59.06.75-.2,0,0,0,0,0,0,.15-.26.07-.59-.2-.75h0s-1.35-.78-1.35-.78v-2.49l2.16-1.25,1.35.78c.26.15.6.06.75-.2,0,0,0,0,0,0,.15-.26.06-.6-.2-.75,0,0,0,0,0,0ZM72.55,155.86l-2.16-1.25v-2.49l2.16-1.25,2.16,1.25v2.49l-2.16,1.25ZM77.41,149.93l-2.16,1.25-2.16-1.25v-2.49l2.16-1.25,2.16,1.25v2.49Z"/></g></g></g></g><g class="cls-16"><path class="cls-10" d="M51.49,100.68c.29,0,.52-.23.52-.52v-12.13c0-.29-.23-.52-.52-.52s-.52.23-.52.52v12.13c0,.29.23.52.52.52"/><path class="cls-10" d="M68.87,74.33c0-1.15-.94-2.09-2.09-2.09s-2.09.94-2.09,2.09.94,2.09,2.09,2.09,2.09-.94,2.09-2.09M65.73,74.33c0-.58.47-1.05,1.05-1.05s1.05.47,1.05,1.05-.47,1.05-1.05,1.05-1.05-.47-1.05-1.05"/><path class="cls-10" d="M74.08,76.3c0-1.15-.94-2.09-2.09-2.09s-2.09.94-2.09,2.09.94,2.09,2.09,2.09,2.09-.94,2.09-2.09M70.95,76.3c0-.58.47-1.05,1.05-1.05s1.05.47,1.05,1.05-.47,1.05-1.05,1.05-1.05-.47-1.05-1.05"/><path class="cls-10" d="M77.06,75.78c-1.15,0-2.09.94-2.09,2.09s.94,2.09,2.09,2.09,2.09-.94,2.09-2.09-.94-2.09-2.09-2.09M77.06,78.92c-.58,0-1.05-.47-1.05-1.05s.47-1.05,1.05-1.05,1.05.47,1.05,1.05-.47,1.05-1.05,1.05"/><path class="cls-10" d="M67.7,81.52c1.15,0,2.09-.94,2.09-2.09s-.94-2.09-2.09-2.09-2.09.94-2.09,2.09.94,2.09,2.09,2.09M67.7,78.39c.58,0,1.05.47,1.05,1.05s-.47,1.05-1.05,1.05-1.05-.47-1.05-1.05.47-1.05,1.05-1.05"/><path class="cls-10" d="M53.58,105.11h13.06c.56,0,1.02-.46,1.02-1.02v-13.94h0v-.67c0-2.02-.79-3.91-2.21-5.34-1.07-1.07-2.44-1.79-3.91-2.08v-2.07c.94-.05,1.7-.83,1.7-1.78v-.38c0-.29-.23-.52-.52-.52h-1.7c-.11,0-.2-.04-.28-.11-.07-.07-.12-.17-.12-.28,0-.22.18-.4.39-.4h1.7c.29,0,.52-.23.52-.52v-.43c0-.98-.8-1.78-1.78-1.78h-2.63c-.98,0-1.78.8-1.78,1.78v2.63c0,.94.73,1.71,1.65,1.78v2.07c-3.52.67-6.12,3.78-6.12,7.42v1.1c0,.29.23.52.52.52h13.55v8.33h-13.55c-.29,0-.52.23-.52.52v4.15c0,.56.46,1.02,1.02,1.02M58.07,78.21v-2.63c0-.41.34-.75.75-.75h2.63c.38,0,.7.29.75.66h-1.17c-.79,0-1.43.64-1.43,1.43,0,.38.15.74.42,1.01.27.27.63.42,1.01.42h1.17c-.07.35-.37.61-.74.61h-.43c-.29,0-.52.23-.52.52v2.45c-.13,0-.26-.01-.39-.01s-.26,0-.39.01v-2.45c0-.29-.23-.52-.52-.52h-.38c-.41,0-.75-.34-.75-.75M66.62,90.06h-13.04v-.58c0-3.27,2.44-6.05,5.67-6.46h0c.56-.07,1.13-.07,1.69,0h0c1.41.18,2.75.84,3.76,1.85,1.23,1.23,1.91,2.87,1.91,4.61v.58ZM53.59,100.45h13.04v3.62h-13.04v-3.62Z"/><path class="cls-10" d="M63.09,95.24c0-1.64-1.34-2.98-2.98-2.98s-2.98,1.33-2.98,2.98,1.34,2.98,2.98,2.98,2.98-1.33,2.98-2.98M58.17,95.24c0-1.07.87-1.94,1.94-1.94s1.94.87,1.94,1.94-.87,1.94-1.94,1.94-1.94-.87-1.94-1.94"/></g><path class="cls-10" d="M260.01,208.13c-.09-.09-.2-.14-.31-.14h-3.68c-.12,0-.23.05-.31.14-.08.08-.12.2-.12.31l.15,1.85.06.83.11,1.45.08.85.52,6.55c.02.22.2.38.42.38h1.85c.22,0,.4-.17.42-.38l.52-6.55.08-.86.11-1.45.06-.83.15-1.83c0-.11-.03-.23-.11-.31ZM259.07,210.98l-.11,1.43-.08.85-.49,6.24h-1.06l-.51-6.24-.06-.83-.12-1.45-.06-.83-.11-1.31h2.77l-.11,1.32-.06.81Z"/><path class="cls-10" d="M257.86,221.33c-1.06,0-1.92.88-1.92,1.94s.86,1.92,1.92,1.92,1.94-.86,1.94-1.92-.88-1.94-1.94-1.94ZM257.86,224.34c-.6,0-1.08-.48-1.08-1.08s.48-1.09,1.08-1.09,1.09.49,1.09,1.09-.49,1.08-1.09,1.08Z"/><path class="cls-10" d="M264.35,215.13c-1.25-1.32-2.83-2.2-4.55-2.58-.28-.06-.55-.11-.83-.14l-.08.85c.28.03.55.09.83.15,1.52.35,2.91,1.15,4.01,2.31,3.09,3.24,2.95,8.38-.28,11.46-3.24,3.09-8.4,2.95-11.47-.28-3.08-3.24-2.95-8.4.29-11.47,1.06-1,2.34-1.69,3.72-2.01.28-.06.55-.12.83-.15l-.06-.83c-.29.03-.57.08-.85.14-1.58.35-3.03,1.11-4.23,2.25-3.58,3.4-3.72,9.09-.32,12.66,1.77,1.85,4.12,2.78,6.49,2.78,2.21,0,4.44-.82,6.17-2.46,3.58-3.4,3.72-9.07.32-12.66Z"/><path class="cls-10" d="M275.39,236.44l-4.8-5.06c-.08-.08-.18-.12-.31-.12-.11,0-.22.03-.29.11l-.25.25-3.12-3.29c3.46-4.32,3.31-10.64-.62-14.76-1.69-1.77-3.81-2.88-6.04-3.29-.28-.05-.55-.09-.83-.11l-.06.81c.28.03.55.08.83.12,2.03.42,3.95,1.43,5.49,3.03,3.95,4.17,3.78,10.75-.37,14.7-4.15,3.95-10.75,3.78-14.7-.37-3.95-4.15-3.78-10.75.37-14.7,1.48-1.4,3.26-2.29,5.12-2.64.28-.06.55-.11.83-.14l-.06-.83c-.28.03-.55.08-.83.14-2.05.37-4.01,1.34-5.63,2.88-4.49,4.26-4.67,11.39-.42,15.88,2.21,2.32,5.18,3.49,8.15,3.49,2.29,0,4.58-.71,6.54-2.11l3.14,3.29-.25.23c-.17.15-.18.43-.02.6l4.81,5.06c.45.46,1.05.71,1.66.71.55,0,1.12-.22,1.57-.63.48-.45.71-1.06.71-1.66,0-.57-.2-1.14-.63-1.58ZM265.1,229.94l1-.94,3.03,3.18-.98.95-3.04-3.2ZM274.73,239.07c-.57.55-1.49.52-2.05-.05l-4.52-4.75.25-.23v-.02l1.61-1.52.25-.23,4.52,4.75c.54.58.52,1.49-.06,2.05Z"/><g id="setting_gear_cogwheel_data_database_data_base"><path class="cls-13" d="M243.64,95.8v2.53c0,2.1,5.38,3.79,12.01,3.79,1.58,0,3.09-.1,4.47-.27"/><line class="cls-13" x1="267.67" y1="73.04" x2="267.67" y2="79.36"/><line class="cls-13" x1="243.64" y1="73.04" x2="243.64" y2="79.36"/><line class="cls-13" x1="243.64" y1="83.15" x2="243.64" y2="85.68"/><line class="cls-13" x1="243.64" y1="89.48" x2="243.64" y2="92"/><path class="cls-13" d="M256.29,95.79c-.21,0-.42,0-.63,0-6.63,0-12.01-1.7-12.01-3.79"/><path class="cls-13" d="M256.23,89.47c-.19,0-.39,0-.58,0-6.63,0-12.01-1.7-12.01-3.79"/><path class="cls-13" d="M267.67,79.36c0,2.1-5.38,3.79-12.01,3.79s-12.01-1.7-12.01-3.79"/><path class="cls-13" d="M243.64,73.04c0-2.1,5.38-3.79,12.01-3.79s12.01,1.7,12.01,3.79-5.38,3.79-12.01,3.79c-3.95,0-7.46-.6-9.65-1.53"/><path class="cls-13" d="M270.7,84.42h-2.26l-.48,2.42c-.69.13-1.35.36-1.97.64l-1.82-1.68-1.83,1.33,1.03,2.25c-.47.51-.88,1.06-1.22,1.67l-2.45-.29-.7,2.15,2.16,1.21c-.04.34-.07.68-.07,1.03s.03.7.07,1.03l-2.16,1.21.7,2.15,2.45-.29c.34.61.75,1.17,1.22,1.67l-1.03,2.25,1.83,1.33,1.82-1.68c.62.29,1.28.51,1.97.64l.48,2.42h2.26l.48-2.42c.69-.13,1.35-.36,1.97-.64l1.82,1.68,1.83-1.33-1.03-2.25c.47-.51.88-1.06,1.22-1.67l2.45.29.7-2.15-2.16-1.21c.04-.34.07-.68.07-1.03s-.03-.7-.07-1.03l2.16-1.21-.7-2.15-2.45.29c-.34-.61-.75-1.17-1.22-1.67l1.03-2.25-1.83-1.33-1.82,1.68c-.62-.29-1.28-.51-1.97-.64l-.48-2.42ZM270.18,99.55c-.2.03-.4.04-.61.04-2.44,0-4.43-1.98-4.43-4.43s1.98-4.43,4.43-4.43,4.43,1.98,4.43,4.43c0,.21-.01.42-.04.63"/><line class="cls-13" x1="271.46" y1="77.94" x2="271.46" y2="78.09"/><line class="cls-13" x1="271.46" y1="75.41" x2="271.46" y2="75.57"/><line class="cls-13" x1="271.46" y1="72.88" x2="271.46" y2="73.04"/><line class="cls-13" x1="256.13" y1="105.92" x2="256.29" y2="105.92"/><line class="cls-13" x1="253.6" y1="105.92" x2="253.76" y2="105.92"/><line class="cls-13" x1="251.08" y1="105.92" x2="251.23" y2="105.92"/><line class="cls-13" x1="272.88" y1="98.18" x2="272.73" y2="98.33"/></g><path class="cls-10" d="M377.34,224.21c-2.93,0-5.32,2.39-5.32,5.32s2.39,5.32,5.32,5.32,5.32-2.39,5.32-5.32-2.39-5.32-5.32-5.32ZM377.34,233.95c-2.44,0-4.42-1.98-4.42-4.42s1.98-4.42,4.42-4.42,4.42,1.98,4.42,4.42-1.98,4.42-4.42,4.42Z"/><path class="cls-10" d="M387.8,226.91h-1.92c-.17-.54-.38-1.06-.64-1.56l1.36-1.36c.08-.08.13-.2.13-.32s-.05-.23-.13-.32l-3.08-3.08c-.17-.17-.47-.17-.64,0l-1.36,1.36c-.5-.26-1.02-.48-1.56-.64v-1.92c0-.25-.2-.45-.45-.45h-4.35c-.25,0-.45.2-.45.45v1.92c-.54.17-1.06.38-1.56.64l-1.36-1.36c-.18-.18-.46-.18-.64,0l-1.3,1.3-7.19-12.46c-.7-1.22-1.97-1.95-3.38-1.95h0c-1.41,0-2.67.73-3.38,1.95l-10.86,18.8c-.7,1.22-.7,2.68,0,3.9.7,1.22,1.97,1.95,3.38,1.95h20.95l-1.3,1.3c-.18.18-.18.46,0,.64l3.08,3.08c.08.08.2.13.32.13s.23-.05.32-.13l1.36-1.36c.5.26,1.02.48,1.56.64v1.92c0,.25.2.45.45.45h4.35c.25,0,.45-.2.45-.45v-1.92c.54-.17,1.06-.38,1.56-.64l1.36,1.36c.17.17.47.17.64,0l3.08-3.08c.18-.18.18-.46,0-.64l-1.36-1.36c.26-.5.48-1.02.64-1.56h1.92c.25,0,.45-.2.45-.45v-4.35c0-.25-.2-.45-.45-.45ZM348.44,232.88c-1.08,0-2.05-.56-2.6-1.5-.54-.94-.54-2.06,0-3l10.86-18.8c.54-.94,1.51-1.5,2.6-1.5h0c1.08,0,2.05.56,2.6,1.5l7.31,12.66-1.11,1.11c-.18.18-.18.46,0,.64l1.36,1.36c-.26.5-.48,1.02-.64,1.56h-1.92c-.25,0-.45.2-.45.45v4.35c0,.25.2.45.45.45h1.92c.07.25.16.48.26.72h-20.63ZM387.36,231.26h-1.81c-.2,0-.38.14-.43.33-.18.7-.46,1.36-.82,1.97-.1.18-.07.4.07.54l1.28,1.28-2.44,2.44-1.28-1.28c-.14-.14-.37-.17-.54-.07-.62.36-1.28.63-1.98.82-.2.05-.33.23-.33.43v1.81h-3.45v-1.81c0-.2-.14-.38-.33-.43-.7-.18-1.36-.46-1.98-.82-.18-.1-.4-.07-.54.07l-1.28,1.28-2.44-2.44,1.28-1.28c.14-.14.17-.37.07-.54-.36-.62-.63-1.28-.82-1.97-.05-.2-.23-.33-.43-.33h-1.81v-3.45h1.81c.2,0,.38-.14.43-.33.18-.7.46-1.36.82-1.97.1-.18.07-.4-.07-.54l-1.28-1.28,2.44-2.44,1.28,1.28c.14.14.37.17.54.07.62-.36,1.28-.63,1.98-.82.2-.05.33-.23.33-.43v-1.81h3.45v1.81c0,.2.14.38.33.43.69.18,1.36.46,1.98.82.18.1.4.07.54-.07l1.28-1.28,2.44,2.44-1.28,1.28c-.14.14-.17.37-.07.54.36.61.63,1.28.82,1.97.05.2.23.33.43.33h1.81v3.45Z"/><path class="cls-10" d="M361.25,212.8h-3.92c-.13,0-.24.05-.33.14s-.13.22-.12.34l.98,12.29c.02.23.21.41.45.41h1.96c.23,0,.43-.18.45-.41l.98-12.29c0-.13-.03-.25-.12-.34s-.2-.14-.33-.14ZM359.86,225.09h-1.13l-.91-11.39h2.94l-.91,11.39Z"/><path class="cls-10" d="M359.29,227.04c-1.14,0-2.06.92-2.06,2.06s.92,2.06,2.06,2.06,2.06-.92,2.06-2.06-.92-2.06-2.06-2.06ZM359.29,230.26c-.64,0-1.16-.52-1.16-1.16s.52-1.16,1.16-1.16,1.16.52,1.16,1.16-.52,1.16-1.16,1.16Z"/><path class="cls-10" d="M478.88,229.09c-.08,0-.15-.02-.23-.05l-3.19-1.61c-3.14-1.59-6.85-1.82-10.17-.64l-1.24.44c-.13.04-.26.04-.38-.02-.12-.06-.21-.16-.26-.28l-2.77-7.78c-.04-.12-.04-.26.02-.38.06-.12.16-.21.28-.26l1.24-.44c3.32-1.18,6.04-3.7,7.47-6.92l1.45-3.26c.08-.19.27-.31.48-.3.2,0,.38.14.45.33l7.3,20.5c.07.19.01.41-.14.54-.09.08-.21.12-.33.12ZM469.63,225.05c2.17,0,4.33.5,6.29,1.49l2.07,1.05-6.46-18.15-.94,2.12-.46-.2.46.2c-1.54,3.47-4.48,6.18-8.05,7.46l-.77.27,2.43,6.83.77-.27c1.51-.54,3.09-.8,4.67-.8Z"/><path class="cls-10" d="M456.46,230.99c-.07,0-.15-.02-.21-.05-.12-.06-.21-.16-.26-.28l-3.45-9.69c-.04-.12-.04-.26.02-.38.06-.12.16-.21.28-.26l7.78-2.77c.13-.04.26-.04.38.02.12.06.21.16.26.28l3.45,9.7c.09.26-.04.55-.3.64l-7.78,2.77c-.05.02-.11.03-.17.03ZM453.64,221.1l3.12,8.75,6.83-2.43-3.12-8.75-6.83,2.43Z"/><path class="cls-10" d="M474.93,227.14c-.07,0-.13-.01-.2-.04-.85-.36-1.73-.64-2.63-.81-.17-.03-.32-.16-.38-.32l-4.03-11.32c-.06-.17-.03-.35.09-.49.58-.7,1.09-1.47,1.52-2.29.09-.18.27-.28.48-.27.2.01.37.14.44.33l5.18,14.54c.07.19.02.4-.13.53-.09.09-.22.14-.34.14ZM472.58,225.37c.51.11,1.02.25,1.52.42l-4.45-12.49c-.28.45-.58.88-.91,1.28l3.84,10.79Z"/><path class="cls-10" d="M465.21,240.03c-.94,0-1.85-.48-2.36-1.32l-5.2-8.54c-.08-.13-.09-.29-.04-.43.05-.14.16-.25.3-.3l4.29-1.53c.22-.08.47,0,.59.21l4.75,7.71c.44.71.53,1.57.25,2.36-.28.79-.89,1.4-1.67,1.68-.3.11-.61.16-.92.16ZM458.82,230.18l4.88,8.01c.43.7,1.31,1.01,2.08.74.5-.18.89-.57,1.06-1.07s.12-1.05-.16-1.5l-4.54-7.37-3.33,1.19Z"/><path class="cls-10" d="M454.29,229.46c-.57,0-1.14-.13-1.68-.38-.94-.45-1.66-1.24-2.01-2.22s-.3-2.05.15-2.99c.45-.94,1.24-1.66,2.22-2.01,0,0,.35-.13.35-.13.26-.09.55.04.64.3l2.29,6.44c.09.26-.04.55-.3.64l-.35.13c-.43.15-.87.23-1.32.23ZM453.2,222.83c-.68.27-1.22.79-1.54,1.45-.33.7-.37,1.5-.11,2.23.26.73.79,1.32,1.5,1.66.66.32,1.41.37,2.11.15l-1.95-5.49Z"/><path class="cls-10" d="M459.99,233.55c-.21,0-.4-.13-.47-.33-.09-.26.04-.55.3-.64l4.31-1.53c.26-.09.55.04.64.3.09.26-.04.55-.3.64l-4.31,1.53c-.06.02-.11.03-.17.03Z"/><path class="cls-10" d="M456.04,223.5c-.21,0-.4-.13-.47-.33l-.34-.94c-.09-.26.04-.55.3-.64.26-.09.55.04.64.3l.34.94c.09.26-.04.55-.3.64-.06.02-.11.03-.17.03Z"/><path class="cls-10" d="M456.96,226.08c-.21,0-.4-.13-.47-.33l-.46-1.29c-.09-.26.04-.55.3-.64.26-.09.55.04.64.3l.46,1.29c.09.26-.04.55-.3.64-.05.02-.11.03-.17.03Z"/><path class="cls-10" d="M457.76,228.31c-.21,0-.4-.13-.47-.33l-.34-.94c-.09-.26.04-.55.3-.64.26-.09.55.04.64.3l.34.94c.09.26-.04.55-.3.64-.06.02-.11.03-.17.03Z"/><path class="cls-10" d="M459.42,222.29c-.21,0-.4-.13-.47-.33l-.34-.94c-.09-.26.04-.55.3-.64.26-.09.55.04.64.3l.34.94c.09.26-.04.55-.3.64-.06.02-.11.03-.17.03Z"/><path class="cls-10" d="M460.34,224.88c-.21,0-.4-.13-.47-.33l-.46-1.29c-.09-.26.04-.55.3-.64.26-.09.55.04.64.3l.46,1.29c.09.26-.04.55-.3.64-.05.02-.11.03-.17.03Z"/><path class="cls-10" d="M461.13,227.11c-.21,0-.4-.13-.47-.33l-.34-.94c-.09-.26.04-.55.3-.64.26-.09.55.04.64.3l.34.94c.09.26-.04.55-.3.64-.06.02-.11.03-.17.03Z"/><path class="cls-10" d="M452.18,113.79c-3.56,0-6.45-2.89-6.45-6.45,0-.32.26-.57.57-.57h11.76c.32,0,.57.26.57.57,0,3.56-2.89,6.45-6.45,6.45ZM446.91,107.91c.29,2.66,2.54,4.73,5.27,4.73s4.99-2.07,5.27-4.73h-10.55Z"/><path class="cls-10" d="M456.66,107.91h-8.96c-.2,0-.38-.1-.49-.27-.11-.17-.11-.38-.03-.56l4.48-9.08c.1-.2.3-.32.51-.32s.42.12.51.32l4.48,9.08c.09.18.08.39-.03.56s-.29.27-.49.27ZM448.62,106.77h7.11l-3.56-7.21-3.56,7.21Z"/><path class="cls-10" d="M432.09,113.79c-3.56,0-6.45-2.89-6.45-6.45,0-.32.26-.57.57-.57h11.76c.32,0,.57.26.57.57,0,3.56-2.89,6.45-6.45,6.45ZM426.81,107.91c.29,2.66,2.54,4.73,5.27,4.73s4.99-2.07,5.27-4.73h-10.55Z"/><path class="cls-10" d="M436.57,107.91h-8.96c-.2,0-.38-.1-.49-.27-.11-.17-.12-.38-.03-.56l4.48-9.08c.1-.2.3-.32.51-.32s.42.12.51.32l4.48,9.08c.09.18.08.39-.03.56-.1.17-.29.27-.49.27ZM428.53,106.77h7.11l-3.55-7.21-3.56,7.21Z"/><path class="cls-10" d="M440.76,117.69c-.32,0-.57-.26-.57-.57v-18.96c0-.32.26-.57.57-.57s.57.26.57.57v18.96c0,.32-.26.57-.57.57Z"/><path class="cls-10" d="M443.51,117.69c-.32,0-.57-.26-.57-.57v-18.96c0-.32.26-.57.57-.57s.57.26.57.57v18.96c0,.32-.26.57-.57.57Z"/><path class="cls-10" d="M453.4,98.84h-3.2c-1.3,0-2.57-.37-3.67-1.08l-2.65-1.68c-.27-.17-.35-.52-.18-.79.17-.27.52-.35.79-.18l2.65,1.68c.91.59,1.97.9,3.05.9h3.2c.32,0,.57.26.57.57s-.26.57-.57.57Z"/><path class="cls-10" d="M434.29,98.84h-3.42c-.32,0-.57-.26-.57-.57s.26-.57.57-.57h3.42c1.15,0,2.26-.35,3.2-1l2.25-1.56c.26-.18.62-.12.8.14.18.26.12.62-.14.8l-2.25,1.56c-1.14.79-2.47,1.21-3.86,1.21Z"/><path class="cls-10" d="M448.4,123.24h-12.52c-.32,0-.57-.26-.57-.57v-1.86c0-.71.58-1.28,1.28-1.28h1.05l.83-1.56c.46-.88,1.37-1.42,2.36-1.42h2.65c.99,0,1.9.55,2.36,1.42l.83,1.56h1.05c.71,0,1.28.58,1.28,1.28v1.86c0,.32-.26.57-.57.57ZM436.45,122.1h11.38v-1.29c0-.07-.06-.14-.14-.14h-1.39c-.21,0-.41-.12-.51-.31l-.99-1.87c-.26-.5-.78-.81-1.34-.81h-2.65c-.57,0-1.08.31-1.34.81l-.99,1.87c-.1.19-.29.31-.51.31h-1.39c-.07,0-.14.06-.14.14v1.29Z"/><path class="cls-10" d="M452.9,123.24h-21.54c-.32,0-.57-.26-.57-.57s.26-.57.57-.57h21.54c.32,0,.57.26.57.57s-.26.57-.57.57Z"/><path class="cls-10" d="M442.13,99.21c-1.54,0-2.79-1.25-2.79-2.79s1.25-2.79,2.79-2.79,2.79,1.25,2.79,2.79-1.25,2.79-2.79,2.79ZM442.13,94.77c-.91,0-1.64.74-1.64,1.64s.74,1.64,1.64,1.64,1.64-.74,1.64-1.64-.74-1.64-1.64-1.64Z"/><path class="cls-10" d="M441.31,120.67h-3.34c-.32,0-.57-.26-.57-.57s.26-.57.57-.57h3.34c.32,0,.57.26.57.57s-.26.57-.57.57Z"/><path class="cls-10" d="M432.09,110.07h-5.47c-.32,0-.57-.26-.57-.57s.26-.57.57-.57h5.47c.32,0,.57.26.57.57s-.26.57-.57.57Z"/><path class="cls-10" d="M437.56,110.07h-2.78c-.32,0-.57-.26-.57-.57s.26-.57.57-.57h2.78c.32,0,.57.26.57.57s-.26.57-.57.57Z"/><path class="cls-10" d="M457.65,110.07h-5.47c-.32,0-.57-.26-.57-.57s.26-.57.57-.57h5.47c.32,0,.57.26.57.57s-.26.57-.57.57Z"/><path class="cls-10" d="M449.49,110.07h-2.78c-.32,0-.57-.26-.57-.57s.26-.57.57-.57h2.78c.32,0,.57.26.57.57s-.26.57-.57.57Z"/><g id="person_gear_human_profile_setting_cogwheel"><path class="cls-13" d="M430.6,41.85c-.25.36-.48.73-.69,1.12l-3.36-.5-.98,3.01,3.03,1.57c-.07.54-.12,1.09-.12,1.65s.05,1.11.12,1.65l-3.03,1.57.98,3.01,3.36-.51c.52.98,1.18,1.87,1.95,2.66l-1.52,3.05,2.56,1.86,2.43-2.39c.98.47,2.03.82,3.13,1.02l.56,3.36h3.16l.56-3.36c1.1-.2,2.15-.54,3.13-1.02l2.43,2.39,2.56-1.86-1.52-3.05c.76-.79,1.42-1.69,1.95-2.66l3.36.5.98-3.01-3.03-1.57c.07-.54.12-1.09.12-1.65s-.05-1.11-.12-1.65l3.03-1.57-.98-3.01-3.36.51c-.52-.98-1.18-1.87-1.95-2.66l1.52-3.05-2.56-1.86-2.43,2.39c-.98-.47-2.03-.82-3.13-1.02l-.56-3.36h-3.16l-.56,3.36c-1.1.2-2.15.54-3.13,1.02l-2.43-2.39-2.56,1.86,1.52,3.05"/><path class="cls-13" d="M445.07,52.86l-2.89-1.24-.57.31c-.63.35-1.4.35-2.03,0l-.56-.31-2.83,1.22c-.6.18-1.1.72-1.29,1.32,1.44,1.5,3.46,2.44,5.7,2.44s4.26-.94,5.7-2.44c-.19-.61-.67-1.14-1.23-1.3Z"/><path class="cls-13" d="M442.18,51.51v-1.25c.63-.48,1.05-1.24,1.05-2.1v-1.05c0-1.46,0-3.16-2.63-3.16s-2.63,1.71-2.63,3.16v1.05c0,.86.42,1.61,1.05,2.1v1.25"/><path class="cls-13" d="M433.49,52.15c-.51-1.04-.79-2.21-.79-3.45,0-4.37,3.54-7.9,7.9-7.9s7.9,3.54,7.9,7.9c0,1.24-.28,2.41-.79,3.45"/></g><path class="cls-6" d="M87.59,39.37h-.91l1.24-7.11h.91l-1.24,7.11Z"/><path class="cls-6" d="M90.91,34.08l-.13.67c.48-.52,1.02-.77,1.62-.76.5.01.87.19,1.1.52s.33.8.26,1.4l-.58,3.46h-.88l.58-3.47c.02-.16.02-.31,0-.44-.06-.46-.32-.69-.81-.7-.53,0-1,.27-1.4.85l-.65,3.77h-.88l.92-5.28h.83Z"/><path class="cls-6" d="M98.93,38.14l1.9-4.05h.93l-2.66,5.28h-.67l-1.04-5.28h.87l.66,4.05Z"/><path class="cls-6" d="M102.72,39.37h-.88l.92-5.28h.88l-.92,5.28ZM103.44,32.16c.15,0,.27.04.37.13.1.1.15.22.15.38,0,.15-.05.28-.15.38-.1.1-.22.15-.37.16s-.28-.04-.38-.13-.14-.22-.14-.37.05-.28.15-.38.22-.15.37-.16Z"/><path class="cls-6" d="M106.08,38.14l1.9-4.05h.93l-2.66,5.28h-.67l-1.04-5.28h.87l.66,4.05Z"/><path class="cls-6" d="M111.77,33.99c.44,0,.82.13,1.14.36s.55.56.7.97c.15.41.2.86.15,1.35v.11c-.07.51-.22.98-.47,1.39-.24.42-.56.74-.95.97s-.81.34-1.27.33c-.44,0-.82-.13-1.14-.36-.32-.23-.55-.55-.7-.96s-.2-.85-.16-1.33c.05-.55.2-1.04.44-1.47s.57-.77.95-1.01c.39-.24.82-.35,1.29-.34ZM109.97,36.82c-.02.21-.02.42,0,.64.03.38.15.69.34.92.2.23.46.35.79.36.29,0,.56-.06.81-.22.25-.16.46-.39.62-.7s.28-.66.33-1.04c.03-.3.03-.55.01-.76-.04-.39-.16-.71-.36-.93s-.46-.35-.79-.36c-.46,0-.84.17-1.16.54s-.52.85-.59,1.45v.11Z"/><path class="cls-6" d="M117.12,36.72c.07-.54.21-1.02.44-1.46s.52-.76.85-.97.71-.32,1.12-.31c.59.01,1.04.23,1.36.64l.51-2.76h.88l-1.3,7.5h-.81l.09-.57c-.42.46-.93.68-1.54.66-.49-.01-.88-.2-1.17-.57-.29-.37-.45-.86-.47-1.49,0-.19,0-.42.02-.69ZM117.97,37.23c0,.46.07.83.25,1.08s.43.39.77.39c.51.02.96-.23,1.36-.77l.42-2.44c-.2-.48-.55-.73-1.06-.74-.35,0-.66.09-.92.31-.26.22-.47.53-.61.92-.14.39-.21.81-.21,1.24Z"/><path class="cls-6" d="M125.62,39.37c-.02-.09-.03-.19-.03-.28v-.28c-.47.45-.98.67-1.53.65-.47,0-.84-.15-1.14-.44-.29-.29-.42-.65-.4-1.08.03-.56.28-1,.74-1.31.46-.31,1.06-.47,1.8-.47h.92s.06-.42.06-.42c.03-.32-.03-.57-.18-.75-.15-.18-.39-.28-.7-.29-.3,0-.57.07-.8.22-.23.15-.38.36-.43.61h-.89c.03-.3.15-.58.36-.82.21-.24.48-.43.82-.56.33-.13.68-.2,1.03-.19.55.01.98.18,1.28.5.31.32.43.75.39,1.28l-.43,2.62-.02.38c0,.18.01.36.06.53v.08h-.91ZM124.23,38.69c.28,0,.55-.06.8-.2.25-.14.47-.34.65-.59l.19-1.09h-.67c-.56,0-.98.08-1.28.26s-.46.42-.5.75c-.03.25.03.45.17.62.14.16.36.25.63.26Z"/><path class="cls-6" d="M130.04,32.81l-.22,1.28h.96l-.12.7h-.96l-.55,3.29c0,.08-.01.16,0,.23.02.25.16.38.42.38.11,0,.25-.02.43-.05l-.07.74c-.21.06-.43.09-.64.09-.35,0-.62-.14-.79-.39-.18-.25-.24-.59-.21-1.02l.54-3.27h-.93l.12-.7h.93l.22-1.28h.88Z"/><path class="cls-6" d="M134.16,39.37c-.02-.09-.03-.19-.03-.28v-.28c-.47.45-.98.67-1.53.65-.47,0-.84-.15-1.14-.44-.29-.29-.42-.65-.4-1.08.03-.56.28-1,.74-1.31.46-.31,1.06-.47,1.8-.47h.92s.06-.42.06-.42c.03-.32-.03-.57-.18-.75-.15-.18-.39-.28-.7-.29-.3,0-.57.07-.8.22-.23.15-.38.36-.43.61h-.89c.03-.3.15-.58.36-.82.21-.24.48-.43.82-.56.33-.13.68-.2,1.03-.19.55.01.98.18,1.28.5.31.32.43.75.39,1.28l-.43,2.62-.02.38c0,.18.01.36.06.53v.08h-.91ZM132.77,38.69c.28,0,.55-.06.8-.2.25-.14.47-.34.65-.59l.19-1.09h-.67c-.56,0-.98.08-1.28.26s-.46.42-.5.75c-.03.25.03.45.17.62.14.16.36.25.63.26Z"/><path class="cls-6" d="M286.12,39.58h-.91l1.24-7.11h.91l-1.24,7.11Z"/><path class="cls-6" d="M289.44,34.29l-.13.67c.48-.52,1.02-.77,1.62-.76.5.01.87.19,1.1.52s.33.8.26,1.4l-.58,3.46h-.88l.58-3.47c.02-.16.02-.31,0-.44-.06-.46-.32-.69-.81-.7-.53,0-1,.27-1.4.85l-.65,3.77h-.88l.92-5.28h.83Z"/><path class="cls-6" d="M298.81,38.15c.05-.36-.15-.62-.6-.77l-.92-.27c-.77-.27-1.15-.71-1.12-1.33.02-.47.24-.85.64-1.14.4-.3.88-.44,1.42-.44.53,0,.97.16,1.3.47.33.3.49.7.48,1.19h-.88c0-.27-.08-.48-.25-.65s-.4-.25-.69-.26c-.31,0-.57.07-.79.22-.21.15-.32.34-.36.58-.04.31.14.53.56.67l.44.12c.61.16,1.04.36,1.29.61s.37.56.35.93c-.02.33-.13.62-.32.86s-.46.43-.78.56c-.33.13-.67.19-1.04.18-.56,0-1.02-.17-1.39-.49-.36-.32-.54-.73-.53-1.24h.88c0,.3.09.54.28.72s.45.27.78.27c.32,0,.6-.06.83-.2.23-.14.37-.34.4-.58Z"/><path class="cls-6" d="M301.55,39.58h-.88l.92-5.28h.88l-.92,5.28ZM302.28,32.36c.15,0,.27.04.37.13.1.1.15.22.15.38,0,.15-.05.28-.15.38-.1.1-.22.15-.37.16s-.28-.04-.38-.13-.14-.22-.14-.37.05-.28.15-.38.22-.15.37-.16Z"/><path class="cls-6" d="M303.95,39.58h-.88l1.3-7.5h.88l-1.3,7.5Z"/><path class="cls-6" d="M306.35,39.58h-.88l.92-5.28h.88l-.92,5.28ZM307.08,32.36c.15,0,.27.04.37.13.1.1.15.22.15.38,0,.15-.05.28-.15.38-.1.1-.22.15-.37.16s-.28-.04-.38-.13-.14-.22-.14-.37.05-.28.15-.38.22-.15.37-.16Z"/><path class="cls-6" d="M310.03,38.94c.32,0,.6-.09.85-.28.25-.19.42-.44.5-.75h.83c-.05.33-.18.63-.4.9-.22.27-.49.49-.82.64s-.67.22-1.01.21c-.44,0-.81-.12-1.12-.34-.3-.22-.53-.53-.67-.93-.14-.4-.19-.85-.15-1.34l.02-.24c.06-.51.21-.96.44-1.36s.54-.71.92-.94c.38-.22.79-.33,1.25-.31.55.01,1,.2,1.33.56s.5.81.5,1.36h-.83c0-.35-.1-.63-.29-.84-.19-.21-.44-.33-.75-.34-.46,0-.84.16-1.14.51-.3.35-.49.84-.57,1.47v.13c-.03.21-.04.42-.02.64.02.38.13.68.32.9s.46.34.79.35Z"/><path class="cls-6" d="M315.86,34.2c.44,0,.82.13,1.14.36s.55.56.7.97c.15.41.2.86.15,1.35v.11c-.07.51-.22.98-.47,1.39-.24.42-.56.74-.95.97s-.81.34-1.27.33c-.44,0-.82-.13-1.14-.36-.32-.23-.55-.55-.7-.96s-.2-.85-.16-1.33c.05-.55.2-1.04.44-1.47s.57-.77.95-1.01c.39-.24.82-.35,1.29-.34ZM314.06,37.03c-.02.21-.02.42,0,.64.03.38.15.69.34.92.2.23.46.35.79.36.29,0,.56-.06.81-.22.25-.16.46-.39.62-.7s.28-.66.33-1.04c.03-.3.03-.55.01-.76-.04-.39-.16-.71-.36-.93s-.46-.35-.79-.36c-.46,0-.84.17-1.16.54s-.52.85-.59,1.45v.11Z"/><path class="cls-6" d="M321.21,36.92c.07-.54.21-1.02.44-1.46s.52-.76.85-.97.71-.32,1.12-.31c.59.01,1.04.23,1.36.64l.51-2.76h.88l-1.3,7.5h-.81l.09-.57c-.42.46-.93.68-1.54.66-.49-.01-.88-.2-1.17-.57-.29-.37-.45-.86-.47-1.49,0-.19,0-.42.02-.69ZM322.06,37.43c0,.46.07.83.25,1.08s.43.39.77.39c.51.02.96-.23,1.36-.77l.42-2.44c-.2-.48-.55-.73-1.06-.74-.35,0-.66.09-.92.31-.26.22-.47.53-.61.92-.14.39-.21.81-.21,1.24Z"/><path class="cls-6" d="M329.71,39.58c-.02-.09-.03-.19-.03-.28v-.28c-.47.45-.98.67-1.53.65-.47,0-.84-.15-1.14-.44-.29-.29-.42-.65-.4-1.08.03-.56.28-1,.74-1.31.46-.31,1.06-.47,1.8-.47h.92s.06-.42.06-.42c.03-.32-.03-.57-.18-.75-.15-.18-.39-.28-.7-.29-.3,0-.57.07-.8.22-.23.15-.38.36-.43.61h-.89c.03-.3.15-.58.36-.82.21-.24.48-.43.82-.56.33-.13.68-.2,1.03-.19.55.01.98.18,1.28.5.31.32.43.75.39,1.28l-.43,2.62-.02.38c0,.18.01.36.06.53v.08h-.91ZM328.32,38.89c.28,0,.55-.06.8-.2.25-.14.47-.34.65-.59l.19-1.09h-.67c-.56,0-.98.08-1.28.26s-.46.42-.5.75c-.03.25.03.45.17.62.14.16.36.25.63.26Z"/><path class="cls-6" d="M334.14,33.01l-.22,1.28h.96l-.12.7h-.96l-.55,3.29c0,.08-.01.16,0,.23.02.25.16.38.42.38.11,0,.25-.02.43-.05l-.07.74c-.21.06-.43.09-.64.09-.35,0-.62-.14-.79-.39-.18-.25-.24-.59-.21-1.02l.54-3.27h-.93l.12-.7h.93l.22-1.28h.88Z"/><path class="cls-6" d="M338.25,39.58c-.02-.09-.03-.19-.03-.28v-.28c-.47.45-.98.67-1.53.65-.47,0-.84-.15-1.14-.44-.29-.29-.42-.65-.4-1.08.03-.56.28-1,.74-1.31.46-.31,1.06-.47,1.8-.47h.92s.06-.42.06-.42c.03-.32-.03-.57-.18-.75-.15-.18-.39-.28-.7-.29-.3,0-.57.07-.8.22-.23.15-.38.36-.43.61h-.89c.03-.3.15-.58.36-.82.21-.24.48-.43.82-.56.33-.13.68-.2,1.03-.19.55.01.98.18,1.28.5.31.32.43.75.39,1.28l-.43,2.62-.02.38c0,.18.01.36.06.53v.08h-.91ZM336.87,38.89c.28,0,.55-.06.8-.2.25-.14.47-.34.65-.59l.19-1.09h-.67c-.56,0-.98.08-1.28.26s-.46.42-.5.75c-.03.25.03.45.17.62.14.16.36.25.63.26Z"/></svg>